<svg xmlns="http://www.w3.org/2000/svg" width="163.026" height="31.442" viewBox="0 0 43.134 8.319"><g fill="none"><g stroke="#000" stroke-linecap="round" stroke-linejoin="round" stroke-miterlimit="10"><g stroke-width=".48"><path stroke-width=".12699839999999998" d="M.063.889.698.317l.571.572" class="st0"/><path stroke-width=".12699839999999998" d="M.063 1.333.698.698l.571.635M.063 4.127l.635-.635.571.635" class="st0"/><path stroke-width=".12699839999999998" d="m.063 4.508.635-.571.571.571" class="st0"/></g><path stroke-width=".127" d="M.699 3.937v.889" class="st0"/><path stroke-width=".12699839999999998" d="M.063 4.826h1.206V7.62H.063V4.826M1.523 6.667V5.97h.508" class="st0"/><path stroke-width=".127" d="M1.524 6.286h.318" class="st0"/><path stroke-width=".12699839999999998" d="M2.285 5.969h.445l-.254.254h.127l.127.063" class="st0"/><g stroke-width=".48"><path stroke-width=".12699839999999998" d="m2.73 6.286.063.127v.064l-.063.127-.064.063h-.381v-.063l-.063-.064M3.11 6.667V5.97h.318l.127.063h.064l.063.064v.063l-.063.064-.064.063h-.444" class="st0"/><path stroke-width=".12699839999999998" d="m3.428 6.286.127.064h.064l.063.127v.063l-.063.064-.064.063h-.444M16.446.19h-4.318v2.477" class="st0"/></g><path stroke-width=".127" d="M12.129 3.302v.635" class="st0"/><path stroke-width=".12699839999999998" d="M12.128 4.572v2.476h4.318V4.572" class="st0"/><path stroke-width=".127" d="M16.447 3.937v-.635M16.447 2.667V.19" class="st0"/><g stroke-width=".48"><path stroke-width=".12699839999999998" d="M15.367 7.048v.572h-.699v-.572M16.446.571h.825v6.16h-.825M12.128.444h-.825v1.588h.825" class="st0"/></g><path stroke-width=".127" d="M13.145 2.857v1.016M12.764 2.857h.825" class="st0"/><path stroke-width=".12699839999999998" d="M13.906 3.873V2.857h.762" class="st0"/><path stroke-width=".127" d="M13.907 3.365h.508" class="st0"/><path stroke-width=".12699839999999998" d="m15.875 3.111-.064-.127-.127-.063-.127-.064h-.254l-.127.064-.127.063-.063.127-.064.127v.254l.064.127.063.127.127.127h.381M15.557 3.873h.127l.127-.127.064-.127" class="st0"/><g stroke-width=".127"><path d="M.699 3.492V.698M29.182 1.502V.804M29.69 1.502l-.508-.444" class="st0"/></g><path stroke-width=".12699839999999998" d="M30.475 8.255v-.699h.254l.127.064.063.063.064.064V8l-.064.128-.063.063-.127.064h-.254" class="st0"/><path stroke-width=".127" d="M35.693 3.45v-.698M35.693 3.069h.571" class="st0"/><path stroke-width=".12699839999999998" d="M35.464 3.862h.063l.127-.127v.699M36.893 5.584l-.635-.635-.635.635" class="st0"/><path stroke-width=".107" d="M36.284 3.045v3.774" class="st0"/><g stroke-width=".48"><path stroke-width=".12699839999999998" d="M28.927 1.965v.127l-.064.127-.063.063-.127.127h-.127l-.127.064-.127-.064h-.127l-.127-.127-.064-.063-.063-.127v-.127M27.91 1.965v-.19l.064-.128.064-.063.127-.127h.127l.127-.064.127.064h.127l.127.127.063.063.064.127v.19" class="st0"/><path stroke-width=".12699839999999998" d="M28.8 1.965v.063l-.064.127-.063.127-.127.064h-.254l-.127-.064-.064-.127-.063-.127v-.253l.063-.064.064-.127.127-.064h.254l.127.064.063.127.064.063v.19" class="st0"/><path stroke-width=".12699839999999998" d="M28.673 1.965v.063l-.064.064-.063.063-.127.064-.064-.064-.127-.063-.063-.064v-.19l.063-.064.127-.063.064-.064.127.064.063.063.064.064v.127" class="st0"/><path stroke-width=".12699839999999998" d="M28.546 1.965v.063h-.064l-.063.064-.064-.064h-.063v-.19h.063l.064-.064.063.064h.064v.127" class="st0"/></g><path stroke-width=".12699839999999998" d="m28.482 1.965-.063.063-.064-.063M28.355 1.965V1.9l.064-.063.063.063v.064M27.34 2.219l-.382-.508h.635" class="st0"/><path stroke-width=".127" d="M27.34 2.222v-.698M28.42 1.968V.063" class="st0"/><path stroke-width=".12699839999999998" d="M26.157 2.75v3.938h1.714M29.776 6.688h1.715V2.75h-1.715" class="st0"/><path stroke-width=".127" d="M29.142 2.752h-.635M27.872 2.752h-1.714" class="st0"/><g stroke-width=".48"><path stroke-width=".12699839999999998" d="m27.617 3.513.19.698.191-.698.19.698.191-.698M29.141 3.703l-.063-.063-.064-.064-.063-.063h-.19l-.064.063-.064.064v.063l-.063.064v.19l.063.064v.063l.064.064.063.063h.19l.064-.063.064-.064.063-.063M29.395 4.211v-.698h.318l.127.063" class="st0"/></g><path stroke-width=".12699839999999998" d="m29.84 3.576.063.064v.063l-.063.064v.063h-.445" class="st0"/><path stroke-width=".127" d="m29.65 3.831.254.381" class="st0"/><path stroke-width=".12699839999999998" d="M26.157 4.973h1.714l.127-.508.318.953.254-1.016.317 1.016.318-1.016.38 1.016.128-.445h1.778" class="st0"/></g><path d="M43.135 3.198" class="st0"/><path stroke="#000" stroke-width=".09" d="M11.303 1.238H6.147V-.001" opacity=".98"/><path stroke="#000" stroke-linecap="round" stroke-linejoin="round" stroke-miterlimit="10" stroke-width=".12699839999999998" d="m36.893 5.054-.635-.635-.635.635" class="st0"/></g></svg>