<svg width="43.134mm" height="8.3189mm" version="1.1" viewBox="0 0 43.134 8.3189" xmlns="http://www.w3.org/2000/svg"><g transform="translate(-50.951 -77.342)" fill="none"><g stroke="#000" stroke-linecap="round" stroke-linejoin="round" stroke-miterlimit="10"><g stroke-width=".48"><polyline class="st0" transform="matrix(.26458 0 0 .26458 25.339 29.802)" points="97.04 183.04 99.44 180.88 101.6 183.04"/><polyline class="st0" transform="matrix(.26458 0 0 .26458 25.339 29.802)" points="97.04 184.72 99.44 182.32 101.6 184.72"/><polyline class="st0" transform="matrix(.26458 0 0 .26458 25.339 29.802)" points="97.04 195.28 99.44 192.88 101.6 195.28"/><polyline class="st0" transform="matrix(.26458 0 0 .26458 25.339 29.802)" points="97.04 196.72 99.44 194.56 101.6 196.72"/></g><line class="st0" x1="51.65" x2="51.65" y1="81.279" y2="82.168" stroke-width=".127"/><polyline class="st0" transform="matrix(.26458 0 0 .26458 25.339 29.802)" points="97.04 197.92 101.6 197.92 101.6 208.48 97.04 208.48 97.04 197.92" stroke-width=".48"/><polyline class="st0" transform="matrix(.26458 0 0 .26458 25.339 29.802)" points="102.56 204.88 102.56 202.24 104.48 202.24" stroke-width=".48"/><line class="st0" x1="52.475" x2="52.793" y1="83.628" y2="83.628" stroke-width=".127"/><polyline class="st0" transform="matrix(.26458 0 0 .26458 25.339 29.802)" points="105.44 202.24 107.12 202.24 106.16 203.2 106.64 203.2 107.12 203.44" stroke-width=".48"/><path class="st0" d="m53.682 83.628" stroke-width=".127"/><g stroke-width=".48"><polyline class="st0" transform="matrix(.26458 0 0 .26458 25.339 29.802)" points="107.12 203.44 107.36 203.92 107.36 204.16 107.12 204.64 106.88 204.88 106.4 204.88 105.92 204.88 105.44 204.88 105.44 204.64 105.2 204.4"/><polyline class="st0" transform="matrix(.26458 0 0 .26458 25.339 29.802)" points="108.56 204.88 108.56 202.24 109.76 202.24 110.24 202.48 110.48 202.48 110.72 202.72 110.72 202.96 110.48 203.2 110.24 203.44 109.76 203.44 108.56 203.44"/><polyline class="st0" transform="matrix(.26458 0 0 .26458 25.339 29.802)" points="109.76 203.44 110.24 203.68 110.48 203.68 110.72 204.16 110.72 204.4 110.48 204.64 110.24 204.88 109.76 204.88 108.56 204.88"/><polyline class="st0" transform="matrix(.26458 0 0 .26458 14.227 29.802)" points="200.96 180.4 184.64 180.4 184.64 189.76"/></g><line class="st0" x1="63.08" x2="63.08" y1="80.644" y2="81.279" stroke-width=".127"/><polyline class="st0" transform="matrix(.26458 0 0 .26458 14.227 29.802)" points="184.64 196.96 184.64 206.32 200.96 206.32 200.96 196.96" stroke-width=".48"/><line class="st0" x1="67.398" x2="67.398" y1="81.279" y2="80.644" stroke-width=".127"/><line class="st0" x1="67.398" x2="67.398" y1="80.009" y2="77.532" stroke-width=".127"/><g stroke-width=".48"><polyline class="st0" transform="matrix(.26458 0 0 .26458 14.227 29.802)" points="196.88 206.32 196.88 208.48 194.24 208.48 194.24 206.32"/><polyline class="st0" transform="matrix(.26458 0 0 .26458 14.227 29.802)" points="200.96 181.84 204.08 181.84 204.08 205.12 200.96 205.12"/><polyline class="st0" transform="matrix(.26458 0 0 .26458 14.227 29.802)" points="184.64 181.36 181.52 181.36 181.52 187.36 184.64 187.36"/></g><line class="st0" x1="64.096" x2="64.096" y1="80.199" y2="81.215" stroke-width=".127"/><line class="st0" x1="63.715" x2="64.54" y1="80.199" y2="80.199" stroke-width=".127"/><polyline class="st0" transform="matrix(.26458 0 0 .26458 14.227 29.802)" points="191.36 194.32 191.36 190.48 194.24 190.48" stroke-width=".48"/><line class="st0" x1="64.858" x2="65.366" y1="80.707" y2="80.707" stroke-width=".127"/><polyline class="st0" transform="matrix(.26458 0 0 .26458 14.227 29.802)" points="198.8 191.44 198.56 190.96 198.08 190.72 197.6 190.48 196.64 190.48 196.16 190.72 195.68 190.96 195.44 191.44 195.2 191.92 195.2 192.88 195.44 193.36 195.68 193.84 196.16 194.32 196.64 194.32 197.6 194.32" stroke-width=".48"/><polyline class="st0" transform="matrix(.26458 0 0 .26458 14.227 29.802)" points="197.6 194.32 198.08 194.32 198.56 193.84 198.8 193.36" stroke-width=".48"/><g stroke-width=".127"><line class="st0" x1="51.65" x2="51.65" y1="80.834" y2="78.04"/><line class="st0" x1="80.133" x2="80.133" y1="78.844" y2="78.146"/><line class="st0" x1="80.641" x2="80.133" y1="78.844" y2="78.4"/></g><polyline class="st0" transform="matrix(.26458 0 0 .26458 13.397 20.277)" points="257.12 246.88 257.12 244.24 258.08 244.24 258.56 244.48 258.8 244.72 259.04 244.96 259.04 245.2 259.04 245.92 258.8 246.4 258.56 246.64 258.08 246.88 257.12 246.88" stroke-width=".48"/><line class="st0" x1="86.644" x2="86.644" y1="80.792" y2="80.094" stroke-width=".127"/><line class="st0" x1="86.644" x2="87.215" y1="80.411" y2="80.411" stroke-width=".127"/><polyline class="st0" transform="matrix(.26458 0 0 .26458 31.34 1.2162)" points="208.16 302.32 208.4 302.32 208.88 301.84 208.88 304.48" stroke-width=".48"/><polyline class="st0" transform="matrix(0 -.26458 .26458 0 8.3003 136.35)" points="201.92 300.64 204.32 298.24 201.92 295.84" stroke-width=".48"/><line class="st0" x1="87.235" x2="87.235" y1="80.387" y2="84.161" stroke-width=".10682"/><g stroke-width=".48"><polyline class="st0" transform="matrix(.26458 0 0 -.26458 8.8644 161.39)" points="268.4 310.24 268.4 309.76 268.16 309.28 267.92 309.04 267.44 308.56 266.96 308.56 266.48 308.32 266 308.56 265.52 308.56 265.04 309.04 264.8 309.28 264.56 309.76 264.56 310.24"/><polyline class="st0" transform="matrix(.26458 0 0 -.26458 8.8644 161.39)" points="264.56 310.24 264.56 310.96 264.8 311.44 265.04 311.68 265.52 312.16 266 312.16 266.48 312.4 266.96 312.16 267.44 312.16 267.92 311.68 268.16 311.44 268.4 310.96 268.4 310.24"/><polyline class="st0" transform="matrix(.26458 0 0 -.26458 8.8644 161.39)" points="267.92 310.24 267.92 310 267.68 309.52 267.44 309.04 266.96 308.8 266.48 308.8 266 308.8 265.52 309.04 265.28 309.52 265.04 310 265.04 310.24 265.04 310.96 265.28 311.2 265.52 311.68 266 311.92 266.48 311.92 266.96 311.92 267.44 311.68 267.68 311.2 267.92 310.96 267.92 310.24"/><polyline class="st0" transform="matrix(.26458 0 0 -.26458 8.8644 161.39)" points="267.44 310.24 267.44 310 267.2 309.76 266.96 309.52 266.48 309.28 266.24 309.52 265.76 309.76 265.52 310 265.52 310.24 265.52 310.72 265.76 310.96 266.24 311.2 266.48 311.44 266.96 311.2 267.2 310.96 267.44 310.72 267.44 310.24"/><polyline class="st0" transform="matrix(.26458 0 0 -.26458 8.8644 161.39)" points="266.96 310.24 266.96 310 266.72 310 266.48 309.76 266.24 310 266 310 266 310.24 266 310.72 266.24 310.72 266.48 310.96 266.72 310.72 266.96 310.72 266.96 310.24"/></g><path class="st0" d="m79.434 79.31" stroke-width=".127"/><polyline class="st0" transform="matrix(.26458 0 0 -.26458 8.8644 161.39)" points="266.72 310.24 266.48 310 266.24 310.24" stroke-width=".48"/><path class="st0" d="m79.307 79.31" stroke-width=".127"/><polyline class="st0" transform="matrix(.26458 0 0 -.26458 8.8644 161.39)" points="266.24 310.24 266.24 310.48 266.48 310.72 266.72 310.48 266.72 310.24" stroke-width=".48"/><polyline class="st0" transform="matrix(.26458 0 0 -.26458 8.8644 161.39)" points="262.4 309.28 260.96 311.2 263.36 311.2" stroke-width=".48"/><line class="st0" x1="78.291" x2="78.291" y1="79.564" y2="78.866" stroke-width=".127"/><line class="st0" x1="79.371" x2="79.371" y1="79.31" y2="77.405" stroke-width=".127"/><polyline class="st0" transform="matrix(.26458 0 0 .26458 17.334 3.4068)" points="225.92 289.84 225.92 304.72 232.4 304.72" stroke-width=".48"/><polyline class="st0" transform="matrix(.26458 0 0 .26458 17.334 3.4068)" points="239.6 304.72 246.08 304.72 246.08 289.84 239.6 289.84" stroke-width=".48"/><line class="st0" x1="80.093" x2="79.458" y1="80.094" y2="80.094" stroke-width=".127"/><line class="st0" x1="78.823" x2="77.109" y1="80.094" y2="80.094" stroke-width=".127"/><g stroke-width=".48"><polyline class="st0" transform="matrix(.26458 0 0 .26458 17.334 3.4068)" points="231.44 292.72 232.16 295.36 232.88 292.72 233.6 295.36 234.32 292.72"/><polyline class="st0" transform="matrix(.26458 0 0 .26458 17.334 3.4068)" points="237.2 293.44 236.96 293.2 236.72 292.96 236.48 292.72 235.76 292.72 235.52 292.96 235.28 293.2 235.28 293.44 235.04 293.68 235.04 294.4 235.28 294.64 235.28 294.88 235.52 295.12 235.76 295.36 236.48 295.36 236.72 295.12 236.96 294.88 237.2 294.64"/><polyline class="st0" transform="matrix(.26458 0 0 .26458 17.334 3.4068)" points="238.16 295.36 238.16 292.72 239.36 292.72 239.84 292.96"/></g><path class="st0" d="m80.792 80.919" stroke-width=".127"/><polyline class="st0" transform="matrix(.26458 0 0 .26458 17.334 3.4068)" points="239.84 292.96 240.08 293.2 240.08 293.44 239.84 293.68 239.84 293.92 239.36 293.92 238.16 293.92" stroke-width=".48"/><line class="st0" x1="80.601" x2="80.855" y1="81.173" y2="81.554" stroke-width=".127"/><polyline class="st0" transform="matrix(.26458 0 0 .26458 17.334 3.4068)" points="225.92 298.24 232.4 298.24 232.88 296.32 234.08 299.92 235.04 296.08 236.24 299.92 237.44 296.08 238.88 299.92 239.36 298.24 246.08 298.24" stroke-width=".48"/></g><line class="st0" x1="94.086" x2="94.086" y1="80.54" y2="80.54" stroke-miterlimit="10" stroke-width="0"/><path d="m62.254 78.58h-5.1559v-1.2386" opacity=".98" stroke="#000" stroke-width=".09"/><polyline class="st0" transform="matrix(0 -.26458 .26458 0 8.3003 135.82)" points="201.92 300.64 204.32 298.24 201.92 295.84" stroke="#000" stroke-linecap="round" stroke-linejoin="round" stroke-miterlimit="10" stroke-width=".48"/></g></svg>
