<svg version="1.1" viewBox="0 0 646.36 981.07" xmlns="http://www.w3.org/2000/svg"><defs><clipPath id="c"><path d="m868.2 288.63h484.77v735.8h-484.77z"/></clipPath><clipPath id="b"><path d="m868.2 1024.4v-735.8h484.77v735.8z" clip-rule="evenodd"/></clipPath><clipPath id="a"><path d="m7235 2405.3h4039.8v6131.7h-4039.8z" clip-rule="evenodd"/></clipPath><clipPath id="d"><path d="m7235 2405.3h4039.8v6131.7h-4039.8z" clip-rule="evenodd"/></clipPath></defs><g transform="matrix(1.3333 0 0 -1.3333 -87.289 1021)"><g transform="translate(65.467 29.985)"><g transform="translate(-868.2 -288.63)"><g clip-path="url(#c)"><g clip-path="url(#b)"><g transform="scale(.12)"><g clip-path="url(#a)"><g fill="none" stroke="#000" stroke-miterlimit="10"><g stroke-width="4"><path d="m11230 2885h-236"/><path d="m10994 2916h236"/><path d="m10982 2885h-238"/><path d="m10744 2916h238"/><path d="m10732 2885h-236"/><path d="m10496 2916h236"/><path d="m11244 2875h-748v48h747"/></g><g stroke-width="7"><path d="m9411 6613h461v-331h-29v301h-420v-576h420v25h29v-75h-29v20h-432v-339h432v69h29v-69h821v-30h-1282"/><path d="m9407 6613v-4h461v-324h-21v302h-428v-584h428v25h21v-68h-21v21h-440v-347h440v69h21v-69h821v-22h-1282"/><path d="m11275 2875h-30.77"/><path d="m10186 4388h445"/><path d="m10881 4388h63v587h146v30h-892"/><path d="m10914 4975h-478v-558h195"/><path d="m10881 4417h33v558"/></g></g><path d="m10917 4975-1 2-2 1-2-1-1-2 1-2 2-1 2 1z" stroke="#000" stroke-miterlimit="10" stroke-width="6.25"/><g fill="none" stroke="#000" stroke-miterlimit="10" stroke-width="7"><path d="m10198 5005h-4v-30"/><path d="m10375 4417h19v558"/><path d="m10394 4417h-469v558h19v30h-533"/><path d="m9411 4975h483v-558h-14"/><path d="m9630 4417h-219"/><path d="m9411 5005v166h-30v-754"/><path d="m10182 4392h445"/><path d="m10885 4392h55v587h146v22h-888"/><path d="m10918 4979h-486v-566h195"/><path d="m10885 4413h33v566"/></g><path d="m10201 5001-1 2-2 1-2-1-1-2 1-2 2-1 2 1z" stroke="#000" stroke-miterlimit="10" stroke-width="6.25"/><g fill="none" stroke="#000" stroke-miterlimit="10" stroke-width="7"><path d="m10198 5001v-22"/><path d="m10379 4413h19v566"/><path d="m10398 4413h-477v566h19v22h-533"/><path d="m9407 4979h491v-566h-18"/><path d="m9630 4413h-223"/><path d="m9407 5001v166h-22v-754"/></g><path d="m9384 4266-1 2-2 1-2-1-1-2 1-2 2-1 2 1z" stroke="#000" stroke-miterlimit="10" stroke-width="6.25"/><g fill="none" stroke="#000" stroke-miterlimit="10" stroke-width="7"><path d="m9408 4392h222"/><path d="m9880 4392h280"/><path d="m10160 2923h-3"/><path d="m9381 6871v-42"/><path d="m9381 6800v-1129"/><path d="m9381 5646v-58"/></g><path d="m9384 5588-1 2-2 1-2-1-1-2 1-2 2-1 2 1z" stroke="#000" stroke-miterlimit="10" stroke-width="6.25"/><g fill="none" stroke="#000" stroke-miterlimit="10" stroke-width="7"><path d="m9381 5588h30v20"/><path d="m9411 5638v339"/><path d="m9385 6871v-46"/><path d="m9385 6804v-1133"/><path d="m9385 5649v-57h22v20"/><path d="m9407 5634v347"/><path d="m11162 8537v-2899h23v-30h-75v30h23v2899"/><path d="m11158 8537v-2903h23v-22h-67v22h22v2903"/></g><path d="m9380 4262-1 2-2 1-2-1-1-2 1-2 2-1 2 1z" stroke="#000" stroke-miterlimit="10" stroke-width="6.25"/><g fill="none" stroke-miterlimit="10"><g stroke="#000" stroke-width="7"><path d="m9381 4388h249"/><path d="m9880 4388h276"/><path d="m10631 4388v29"/><path d="m10627 4392v21"/><path d="m10881 4388v29"/><path d="m10885 4392v21"/><path d="m7644 5432h38"/><path d="m7646 5182h-225v-12h225v12"/></g><path d="m7421 5182.5c0-124.54 100.96-225.5 225.5-225.5" stroke="#c0c0c0" stroke-width="4"/><path d="m7646 4732h-225v13h225v-13" stroke="#000" stroke-width="7"/><path d="m7646.5 4958c-124.54 0-225.5-100.96-225.5-225.5" stroke="#c0c0c0" stroke-width="4"/><g stroke="#000"><path d="m7660 5195v225" stroke-width="5"/><path d="m7644 4432v-109" stroke-width="7"/><g stroke-width="4"><path d="m7896 2916h221v-31h-221v31"/><path d="m7882 2923h250"/><path d="m7882 2872h250"/></g><path d="m9057 2923v-38" stroke-width="7"/><path d="m9294 2888h-11v-225h11v225" stroke-width="7"/></g></g><g transform="rotate(90,3203,6091.5)"><path d="m0 225.5c-124.54 0-225.5-100.96-225.5-225.5" fill="none" stroke="#c0c0c0" stroke-miterlimit="10" stroke-width="4"/></g><g fill="none" stroke="#000" stroke-miterlimit="10" stroke-width="7"><path d="m9307 2888h-13v32h13v-32"/><path d="m9069 2888h-12v32h12v-32"/><path d="m9657 2923v-38"/><path d="m9419 2888h11v-225h-11v225"/></g><g transform="rotate(90,3265.5,6154)"><path d="m-225.5 0c0-124.54 100.96-225.5 225.5-225.5" fill="none" stroke="#c0c0c0" stroke-miterlimit="10" stroke-width="4"/></g><g fill="none" stroke="#000" stroke-miterlimit="10" stroke-width="7"><path d="m9407 2888h12v32h-12v-32"/><path d="m9644 2888h13v32h-13v-32"/><path d="m10156 3418h-795v-495"/><path d="m10160 3422h-803v-499"/><path d="m8877 2923v645h-20v29h20"/><path d="m8907 3447h1249"/><path d="m8881 2923v649h-21v21h21"/><path d="m8903 3443h1257"/><path d="m7882 2872h-252v1401h-152v209h166"/><path d="m8943 2875v-3h-811"/><path d="m9307 2875h100"/><path d="m9057 2885v-10"/><path d="m9307 2885v-10"/><path d="m9407 2885v-10"/><path d="m9657 2885v-10"/><path d="m9410.1 8537 0.895-1924"/><path d="m9407 8537v-1924"/><path d="m9385 6871v383"/><path d="m9385 7276v530"/><path d="m9385 8537v-791.96"/><path d="m9332 2923v495h-425v-495"/><path d="m9336 2923v499h-433v-499"/><path d="m8507 2923v645h100v29h-100"/></g><g stroke="#000" stroke-miterlimit="10"><path d="m8510 3597-1 2-2 1-2-1-1-2 1-2 2-1 2 1z" stroke-width="6.25"/><path d="m8507 3597h-30v-674" fill="none" stroke-width="7"/><path d="m8503 2923v649h100v21h-100" fill="none" stroke-width="7"/><path d="m8506 3593-1 2-2 1-2-1-1-2 1-2 2-1 2 1z" stroke-width="6.25"/></g><g fill="none" stroke="#000" stroke-miterlimit="10" stroke-width="7"><path d="m8503 3593h-22v-670"/><path d="m7682 3874h795v-27h30"/><path d="m9381 4417h-636"/><path d="m8877 4388v-23h30v23h474"/><path d="m7682 3877 799 1v-27h22"/><path d="m9385 4413h-504"/><path d="m8881 4392v-23h22v23h505"/><path d="m8907 3447v668h-30v-518"/><path d="m8903 3443v668h-22v-518"/><path d="m9381 6871v379"/><path d="m9381 7279v523"/><path d="m9381 8537v-787.96"/><path d="m8943 2885v-13"/><path d="m10186 4388v-1465"/><path d="m10182 4392v-1469"/><path d="m10160 4392v-1099"/><path d="m10160 3422v-499"/><path d="m10156 4388v-1091"/><path d="m10156 3422v-499"/><path d="m8269 3905v25"/><path d="m8269 4180v237h-587"/><path d="m7682 4375h557v-195"/><path d="m8239 3930v-25h-557"/></g><path d="m7817 3903-1 2-2 1-2-1-1-2 1-2 2-1 2 1z" stroke="#000" stroke-miterlimit="10" stroke-width="6.25"/><g fill="none" stroke="#000" stroke-miterlimit="10"><g stroke-width="7"><path d="m8265 4184v229h-583"/><path d="m7682 4379h561v-195"/><path d="m8243 3926v-25h-561"/><path d="m8269 4180h-30"/><path d="m8265 4184h-22"/><path d="m8269 3930h-30"/><path d="m8265 3926h-22"/><path d="m8507 3847v58"/><path d="m8503 3851v50"/><path d="m8507 3905h-238"/><path d="m8503 3901h-238v25"/><path d="m8602 6829h-196v-29h196"/><path d="m8606 6825h-196v-21h196"/><path d="m8606 7305h21"/><path d="m9385 7276h-275v-22h275"/><path d="m8344 5646v53"/><path d="m8348 5649v50"/><path d="m8344 5699h30v-24"/><path d="m8370 5699v-28"/><path d="m8794 5675v620h-420v-346h-30v375h463"/><path d="m8836 6771h-29"/><path d="m8836 6295v-620"/><path d="m8798 5671v627h-428v-345h-22v367h463"/><path d="m8832 6775h-21"/><path d="m8832 6298v-627"/><path d="m9381 6829h-750"/><path d="m8631 7250h225v29h-225v30"/><path d="m8631 8537v-977.96h-28.999"/><path d="m8836 6521h-29"/><path d="m8602 6800h205"/><path d="m8836 6800h545"/><path d="m9385 6825h-757"/><path d="m8628 7254h225v22h-225v33"/><path d="m8627.2 8537 0.814-977.96"/><path d="m8606 8537v-973.96h21.001"/><path d="m8606 7309v-484"/><path d="m8832 6517h-21"/><path d="m8606 6804h205"/><path d="m8832 6804h553"/><path d="m8602 7309h29"/><path d="m9381 7279h-275v-29h275"/><path d="m8631 7250v-421"/><path d="m8628 7254v-429"/><path d="m8344 5646h1037"/><path d="m8348 5649h1037"/><path d="m8794 5675h-420"/><path d="m8798 5671h-428"/><path d="m8836 6771v29"/><path d="m8832 6775v29"/><path d="m8836 6800h545"/><path d="m9381 5675h-545"/><path d="m9385 5671h-549"/><path d="m8836 5675v846"/><path d="m8832 5675v842"/><path d="m8807 6771v29"/><path d="m8811 6775v29"/><path d="m8807 6521v-197"/><path d="m8811 6517v-197"/><path d="m8602 8537v-977.96"/><path d="m8602 7309v-480"/><path d="m10398 4979h-200"/><path d="m10194 4975h200"/><path d="m9411 4417v558"/><path d="m9407 4413v566"/><path d="m8749 4413h636"/><path d="m9408 4392h-505"/><path d="m8881 4392h-132"/><path d="m8877 4388h-132v29"/><path d="m8749 4392v21-2"/><path d="m10244 2923h-587"/><path d="m10244 2885h-587"/><path d="m10244 2875h-587"/><path d="m9880 4388v29"/><path d="m9630 4388v29"/><path d="m9307 2923h-430"/><path d="m9057 2885h-114"/><path d="m9885 2825h27v12h-27v-12"/><path d="m9886 2841v25h25v-25h-25"/><path d="m9876 2837v32h45v-32h-45"/></g><g stroke-width="5"><path d="m7235 5629h241.01v28h-241.01"/><path d="m7235 5640h231.01"/><path d="m7235 5642h231.01"/><path d="m7235 5645h231.01"/><path d="m7235 5646h231.01"/><path d="m7235 5637h229.01"/><path d="m7235 5650h229.01"/><path d="m7466 5640v6"/><path d="m7464 5642v3"/><path d="m7464 5649v1h-1"/></g></g><g transform="rotate(90,909,6557.5)"><path d="m1.5838 3.1211c-0.5232 0.2655-1.1048 0.39521-1.6912 0.37721" fill="none" stroke="#000" stroke-miterlimit="10" stroke-width="5"/></g><g transform="rotate(90,907,6555.5)"><path d="m-1.031-1.0895c0.32845-0.31079 0.77958-0.45683 1.2278-0.39748" fill="none" stroke="#000" stroke-miterlimit="10" stroke-width="5"/></g><g fill="none" stroke="#000" stroke-miterlimit="10" stroke-width="5"><path d="m7463 5647h-1"/><path d="m7462 5646h1"/><path d="m7463 5647v0" stroke-linecap="round"/><path d="m7463 5647h1"/></g><g transform="rotate(90,910.5,6555)"><path d="m2.4129 0.6543c-0.0256 0.09441-0.05672 0.18723-0.0932 0.278" fill="none" stroke="#000" stroke-miterlimit="10" stroke-width="5"/></g><path d="m7464 5647h1-1" fill="none" stroke="#000" stroke-miterlimit="10" stroke-width="5"/><path d="m7464 5646v0" fill="none" stroke="#000" stroke-linecap="round" stroke-miterlimit="10" stroke-width="5"/><g transform="rotate(90,906.5,6558)"><path d="m-4.4805-0.41832c0.0358-0.38355 0.12072-0.76092 0.25265-1.1228" fill="none" stroke="#000" stroke-miterlimit="10" stroke-width="5"/></g><path d="m7468 5647-2 2-2-2 2-2 1 1z" stroke="#000" stroke-miterlimit="10" stroke-width="6.25"/><g transform="rotate(90,910.5,6554)"><path d="m4.2183-1.5671c0.14697 0.39565 0.23756 0.81 0.26909 1.2309" fill="none" stroke="#000" stroke-miterlimit="10" stroke-width="5"/></g><path d="m7464 5648h1v1h-1" fill="none" stroke="#000" stroke-miterlimit="10" stroke-width="5"/><path d="m7464 5638v-1h-1" fill="none" stroke="#000" stroke-miterlimit="10" stroke-width="5"/><g transform="rotate(90,914,6552.5)"><path d="m0.10736 3.4984c-0.58643 0.018-1.168-0.11171-1.6912-0.37721" fill="none" stroke="#000" stroke-miterlimit="10" stroke-width="5"/></g><g transform="rotate(90,911.5,6551)"><path d="m-0.19688-1.487c0.44827-0.05935 0.8994 0.08669 1.2278 0.39748" fill="none" stroke="#000" stroke-miterlimit="10" stroke-width="5"/></g><g fill="none" stroke="#000" stroke-miterlimit="10" stroke-width="5"><path d="m7463 5639-1 1h1"/><path d="m7463 5640v0" stroke-linecap="round"/><path d="m7463 5640h1"/></g><g transform="rotate(90,911,6554.5)"><path d="m-2.3197 0.9323c-0.03648-0.09077-0.0676-0.18359-0.0932-0.278" fill="none" stroke="#000" stroke-miterlimit="10" stroke-width="5"/></g><path d="m7464 5640h1-1" fill="none" stroke="#000" stroke-miterlimit="10" stroke-width="5"/><g transform="rotate(90,914.5,6550)"><path d="m4.2279-1.5412c0.13193 0.36192 0.21685 0.73929 0.25265 1.1228" fill="none" stroke="#000" stroke-miterlimit="10" stroke-width="5"/></g><path d="m7468 5640-2 2-2-2 2-2 1 1z" stroke="#000" stroke-miterlimit="10" stroke-width="6.25"/><g transform="rotate(90,910.5,6554)"><path d="m-4.4874-0.3362c0.03153-0.42088 0.12212-0.83523 0.26909-1.2309" fill="none" stroke="#000" stroke-miterlimit="10" stroke-width="5"/></g><g fill="none" stroke="#000" stroke-miterlimit="10" stroke-width="5"><g><path d="m7464 5639v-1 1-1l1 1v-1h-1"/><path d="m7674 5220v-25"/><path d="m7646 5220v-25"/><path d="m7663 5192v28"/><path d="m7661 5192v28"/><path d="m7658 5192v28"/><path d="m7657 5192v28"/><path d="m7666 5195v25"/><path d="m7653 5195v25"/><path d="m7663 5192h-6"/><path d="m7661 5194h-3"/><path d="m7654 5194v1h-1"/><path d="m7655.6 5196c-0.5864 0.018-1.168-0.1118-1.6914-0.3774"/><path d="m7655.3 5195c0.4483-0.06 0.8994 0.086 1.2276 0.3974"/></g><path d="m7656 5196v0" stroke-linecap="round"/><path d="m7657 5196-1-1"/><path d="m7656 5195v0" stroke-linecap="round"/></g><path d="m7658 5195-2 2-2-2 2-2 1 1z" stroke="#000" stroke-linecap="round" stroke-miterlimit="10" stroke-width="6.25"/><g fill="none" stroke="#000" stroke-miterlimit="10" stroke-width="5"><path d="m7657.2 5195.4c-0.036-0.091-0.067-0.1836-0.093-0.2778"/><path d="m7656 5194v1-1"/><path d="m7656.7 5193c0.1319 0.3618 0.2168 0.7392 0.2525 1.1225"/></g><path d="m7658 5193-2 2-2-2 2-2 1 1z" stroke="#000" stroke-miterlimit="10" stroke-width="6.25"/><g fill="none" stroke="#000" stroke-miterlimit="10" stroke-width="5"><g><path d="m7656 5194.2c0.031-0.4209 0.1221-0.835 0.269-1.2305"/><path d="m7655 5194v-1l-1 1"/><path d="m7665 5194v1h1"/><path d="m7667.1 5195.6c-0.5235 0.2656-1.105 0.395-1.6914 0.3774"/><path d="m7663.5 5195.4c0.3282-0.311 0.7793-0.457 1.2276-0.3974"/><path d="m7664 5196h-1v-1"/></g><path d="m7663 5195v0" stroke-linecap="round"/></g><path d="m7665 5195-2 2-2-2 2-2 1 1z" stroke="#000" stroke-linecap="round" stroke-miterlimit="10" stroke-width="6.25"/><g fill="none" stroke="#000" stroke-miterlimit="10" stroke-width="5"><path d="m7662.9 5195.2c-0.026 0.094-0.057 0.187-0.093 0.2778"/><path d="m7663 5194v1-1"/><path d="m7663 5194.1c0.036-0.3833 0.1206-0.7607 0.2525-1.1225"/></g><path d="m7665 5193-2 2-2-2 2-2 1 1z" stroke="#000" stroke-miterlimit="10" stroke-width="6.25"/><g fill="none" stroke="#000" stroke-miterlimit="10" stroke-width="5"><path d="m7664.7 5192.9c0.1469 0.3955 0.2377 0.8096 0.269 1.2305"/><path d="m7664 5194h1-1l1-1v1"/><path d="m7674 5220v210h-28v-210"/><path d="m7663 5420v-200"/><path d="m7661 5420v-200"/><path d="m7658 5420v-200"/><path d="m7657 5420v-200"/><path d="m7666 5417v-197"/><path d="m7653 5417v-197"/><path d="m7663 5420h-6"/><path d="m7661 5418h-3"/><path d="m7654 5418v-1h-1"/></g><g transform="rotate(180 3827.8 2710.2)"><path d="m1.5838 3.1211c-0.5232 0.2655-1.1048 0.39521-1.6912 0.37721" fill="none" stroke="#000" stroke-miterlimit="10" stroke-width="5"/></g><g transform="rotate(180 3827.8 2708.2)"><path d="m-1.031-1.0895c0.32845-0.31079 0.77958-0.45683 1.2278-0.39748" fill="none" stroke="#000" stroke-miterlimit="10" stroke-width="5"/></g><g stroke="#000" stroke-miterlimit="10"><path d="m7657 5416-1 1v-1" fill="none" stroke-width="5"/><path d="m7656 5417v0" fill="none" stroke-linecap="round" stroke-width="5"/><path d="m7658 5417-2 2-2-2 2-2 1 1z" stroke-linecap="round" stroke-width="6.25"/></g><g transform="rotate(180 3829.8 2709.8)"><path d="m2.4129 0.6543c-0.0256 0.09441-0.05672 0.18723-0.0932 0.278" fill="none" stroke="#000" stroke-miterlimit="10" stroke-width="5"/></g><path d="m7656 5418v1-1" fill="none" stroke="#000" stroke-miterlimit="10" stroke-width="5"/><g transform="rotate(180 3826.2 2709.2)"><path d="m-4.4805-0.41832c0.0358-0.38355 0.12072-0.76092 0.25265-1.1228" fill="none" stroke="#000" stroke-miterlimit="10" stroke-width="5"/></g><path d="m7658 5419-2 2-2-2 2-2 1 1z" stroke="#000" stroke-miterlimit="10" stroke-width="6.25"/><g transform="rotate(180 3830.2 2709.2)"><path d="m4.2183-1.5671c0.14697 0.39565 0.23756 0.81 0.26909 1.2309" fill="none" stroke="#000" stroke-miterlimit="10" stroke-width="5"/></g><path d="m7655 5418v1l-1-1" fill="none" stroke="#000" stroke-miterlimit="10" stroke-width="5"/><path d="m7665 5418v-1h1" fill="none" stroke="#000" stroke-miterlimit="10" stroke-width="5"/><g transform="rotate(180 3832.8 2710.2)"><path d="m0.10736 3.4984c-0.58643 0.018-1.168-0.11171-1.6912-0.37721" fill="none" stroke="#000" stroke-miterlimit="10" stroke-width="5"/></g><g transform="rotate(180 3832.2 2708.2)"><path d="m-0.19688-1.487c0.44827-0.05935 0.8994 0.08669 1.2278 0.39748" fill="none" stroke="#000" stroke-miterlimit="10" stroke-width="5"/></g><g stroke="#000" stroke-miterlimit="10"><path d="m7664 5417-1-1v1" fill="none" stroke-width="5"/><path d="m7663 5417v0" fill="none" stroke-linecap="round" stroke-width="5"/><path d="m7665 5417-2 2-2-2 2-2 1 1z" stroke-linecap="round" stroke-width="6.25"/></g><g transform="rotate(180 3830.2 2709.8)"><path d="m-2.3197 0.9323c-0.03648-0.09077-0.0676-0.18359-0.0932-0.278" fill="none" stroke="#000" stroke-miterlimit="10" stroke-width="5"/></g><path d="m7663 5418v1-1" fill="none" stroke="#000" stroke-miterlimit="10" stroke-width="5"/><g transform="rotate(180 3833.8 2709.2)"><path d="m4.2279-1.5412c0.13193 0.36192 0.21685 0.73929 0.25265 1.1228" fill="none" stroke="#000" stroke-miterlimit="10" stroke-width="5"/></g><path d="m7665 5419-2 2-2-2 2-2 1 1z" stroke="#000" stroke-miterlimit="10" stroke-width="6.25"/><g transform="rotate(180 3830.2 2709.2)"><path d="m-4.4874-0.3362c0.03153-0.42088 0.12212-0.83523 0.26909-1.2309" fill="none" stroke="#000" stroke-miterlimit="10" stroke-width="5"/></g><g fill="none" stroke="#000" stroke-miterlimit="10" stroke-width="5"><path d="m7664 5418h1-1v1h1v-1"/><path d="m7660 4720v-225"/><path d="m7674 4695v25"/><path d="m7646 4695v25"/><path d="m7663 4722v-27"/><path d="m7661 4722v-27"/><path d="m7658 4722v-27"/><path d="m7657 4722v-27"/><path d="m7666 4720v-25"/><path d="m7653 4720v-25"/><path d="m7663 4722h-6"/><path d="m7661 4721h-3"/><path d="m7654 4720h-1"/></g><g transform="rotate(180 3827.8 2361.2)"><path d="m1.5838 3.1211c-0.5232 0.2655-1.1048 0.39521-1.6912 0.37721" fill="none" stroke="#000" stroke-miterlimit="10" stroke-width="5"/></g><g transform="rotate(180 3827.8 2359.2)"><path d="m-1.031-1.0895c0.32845-0.31079 0.77958-0.45683 1.2278-0.39748" fill="none" stroke="#000" stroke-miterlimit="10" stroke-width="5"/></g><g fill="none" stroke="#000" stroke-miterlimit="10" stroke-width="5"><path d="m7657 4718-1 1v-1"/><path d="m7656 4719v0" stroke-linecap="round"/><path d="m7656 4719v1"/></g><g transform="rotate(180 3829.8 2360.8)"><path d="m2.4129 0.6543c-0.0256 0.09441-0.05672 0.18723-0.0932 0.278" fill="none" stroke="#000" stroke-miterlimit="10" stroke-width="5"/></g><path d="m7656 4720v1-1 1" fill="none" stroke="#000" stroke-miterlimit="10" stroke-width="5"/><g transform="rotate(180 3826.2 2360.2)"><path d="m-4.4805-0.41832c0.0358-0.38355 0.12072-0.76092 0.25265-1.1228" fill="none" stroke="#000" stroke-miterlimit="10" stroke-width="5"/></g><path d="m7658 4722-2 2-2-2 2-2 1 1z" stroke="#000" stroke-miterlimit="10" stroke-width="6.25"/><g transform="rotate(180 3830.2 2360.2)"><path d="m4.2183-1.5671c0.14697 0.39565 0.23756 0.81 0.26909 1.2309" fill="none" stroke="#000" stroke-miterlimit="10" stroke-width="5"/></g><path d="m7655 4721v-1 1h-1v-1" fill="none" stroke="#000" stroke-miterlimit="10" stroke-width="5"/><path d="m7665 4720h1" fill="none" stroke="#000" stroke-miterlimit="10" stroke-width="5"/><g transform="rotate(180 3832.8 2361.2)"><path d="m0.10736 3.4984c-0.58643 0.018-1.168-0.11171-1.6912-0.37721" fill="none" stroke="#000" stroke-miterlimit="10" stroke-width="5"/></g><g transform="rotate(180 3832.2 2359.2)"><path d="m-0.19688-1.487c0.44827-0.05935 0.8994 0.08669 1.2278 0.39748" fill="none" stroke="#000" stroke-miterlimit="10" stroke-width="5"/></g><g fill="none" stroke="#000" stroke-miterlimit="10" stroke-width="5"><path d="m7664 4719-1-1v1"/><path d="m7663 4719v0" stroke-linecap="round"/><path d="m7663 4719v1"/></g><g transform="rotate(180 3830.2 2360.8)"><path d="m-2.3197 0.9323c-0.03648-0.09077-0.0676-0.18359-0.0932-0.278" fill="none" stroke="#000" stroke-miterlimit="10" stroke-width="5"/></g><path d="m7663 4720v1-1 1" fill="none" stroke="#000" stroke-miterlimit="10" stroke-width="5"/><g transform="rotate(180 3833.8 2360.2)"><path d="m4.2279-1.5412c0.13193 0.36192 0.21685 0.73929 0.25265 1.1228" fill="none" stroke="#000" stroke-miterlimit="10" stroke-width="5"/></g><path d="m7665 4722-2 2-2-2 2-2 1 1z" stroke="#000" stroke-miterlimit="10" stroke-width="6.25"/><g transform="rotate(180 3830.2 2360.2)"><path d="m-4.4874-0.3362c0.03153-0.42088 0.12212-0.83523 0.26909-1.2309" fill="none" stroke="#000" stroke-miterlimit="10" stroke-width="5"/></g><g fill="none" stroke="#000" stroke-miterlimit="10" stroke-width="5"><g><path d="m7664 4721v-1h1-1v1h1v-1"/><path d="m7674 4695v-210h-28v210"/><path d="m7663 4495v200"/><path d="m7661 4495v200"/><path d="m7658 4495v200"/><path d="m7657 4495v200"/><path d="m7666 4497v198"/><path d="m7653 4497v198"/><path d="m7663 4495h-6"/><path d="m7661 4496h-3"/><path d="m7654 4496v1h-1"/><path d="m7655.6 4499c-0.5864 0.018-1.168-0.1118-1.6914-0.3774"/><path d="m7655.3 4498c0.4483-0.06 0.8994 0.086 1.2276 0.3974"/><path d="m7657 4499-1-1v1"/></g><path d="m7656 4498v0" stroke-linecap="round"/></g><path d="m7658 4497-2 2-2-2 2-2 1 1z" stroke="#000" stroke-linecap="round" stroke-miterlimit="10" stroke-width="6.25"/><g fill="none" stroke="#000" stroke-miterlimit="10" stroke-width="5"><path d="m7657.2 4497.4c-0.036-0.091-0.067-0.1836-0.093-0.2778"/><path d="m7656 4497v-1 1-1"/><path d="m7656.7 4496c0.1319 0.3618 0.2168 0.7392 0.2525 1.1225"/></g><path d="m7658 4495-2 2-2-2 2-2 1 1z" stroke="#000" stroke-miterlimit="10" stroke-width="6.25"/><g fill="none" stroke="#000" stroke-miterlimit="10" stroke-width="5"><g><path d="m7656 4496.2c0.031-0.4209 0.1221-0.835 0.269-1.2305"/><path d="m7655 4496v1-1h-1"/><path d="m7665 4496v1h1"/><path d="m7667.1 4498.6c-0.5235 0.2656-1.105 0.395-1.6914 0.3774"/><path d="m7663.5 4498.4c0.3282-0.311 0.7793-0.457 1.2276-0.3974"/><path d="m7664 4498-1 1v-1"/></g><path d="m7663 4498v0" stroke-linecap="round"/></g><path d="m7665 4497-2 2-2-2 2-2 1 1z" stroke="#000" stroke-linecap="round" stroke-miterlimit="10" stroke-width="6.25"/><g fill="none" stroke="#000" stroke-miterlimit="10" stroke-width="5"><path d="m7662.9 4497.2c-0.026 0.094-0.057 0.187-0.093 0.2778"/><path d="m7663 4497v-1 1-1"/><path d="m7663 4497.1c0.036-0.3833 0.1206-0.7607 0.2525-1.1225"/></g><path d="m7665 4495-2 2-2-2 2-2 1 1z" stroke="#000" stroke-miterlimit="10" stroke-width="6.25"/><g fill="none" stroke="#000" stroke-miterlimit="10"><g><g stroke-width="5"><path d="m7664.7 4494.9c0.1469 0.3955 0.2377 0.8096 0.269 1.2305"/><path d="m7664 4496v1l1-1h-1 1"/><path d="m10830 2894h-336"/></g><path d="m11244 2885v-10" stroke-width="7"/></g><path d="m10363 2871v0" stroke-linecap="round" stroke-width="7"/><g><path d="m10259 2886h11v-225h-11v225" stroke-width="7"/><path d="m10260 2661c124.54 0 225.5 100.96 225.5 225.5" stroke-width="7"/><g stroke-width="5"><path d="m10982 2886h-225"/><path d="m10982 2914h-225"/><path d="m10984 2904h-227"/><path d="m10984 2902h-227"/><path d="m10984 2899h-227"/><path d="m10984 2897h-227"/><path d="m10982 2907h-225"/><path d="m10982 2894h-225"/><path d="m10744 2886h13"/><path d="m10744 2914h13"/><path d="m10719 2886h13"/><path d="m10719 2914h13"/><path d="m10742 2897h15"/><path d="m10742 2899h15"/><path d="m10742 2902h15"/><path d="m10742 2904h15"/><path d="m10744 2894h13"/><path d="m10744 2907h13"/><path d="m10742 2897v7"/><path d="m10743 2899v3"/><path d="m10743 2906h1v1"/></g></g></g><g transform="rotate(-90,6824,-3918.5)"><path d="m0.10736 3.4984c-0.58643 0.018-1.168-0.11171-1.6912-0.37721" fill="none" stroke="#000" stroke-miterlimit="10" stroke-width="5"/></g><g transform="rotate(-90,6826,-3920.5)"><path d="m-0.19688-1.487c0.44827-0.05935 0.8994 0.08669 1.2278 0.39748" fill="none" stroke="#000" stroke-miterlimit="10" stroke-width="5"/></g><g fill="none" stroke="#000" stroke-miterlimit="10" stroke-width="5"><path d="m10745 2904h1-1"/><path d="m10745 2904v0" stroke-linecap="round"/><path d="m10745 2904h-1"/></g><g transform="rotate(-90,6822.5,-3921)"><path d="m-2.3197 0.9323c-0.03648-0.09077-0.0676-0.18359-0.0932-0.278" fill="none" stroke="#000" stroke-miterlimit="10" stroke-width="5"/></g><path d="m10744 2904h-1 1-1" fill="none" stroke="#000" stroke-miterlimit="10" stroke-width="5"/><g transform="rotate(-90,6826.5,-3918)"><path d="m4.2279-1.5412c0.13193 0.36192 0.21685 0.73929 0.25265 1.1228" fill="none" stroke="#000" stroke-miterlimit="10" stroke-width="5"/></g><path d="m10744 2904-2 2-2-2 2-2 1 1z" stroke="#000" stroke-miterlimit="10" stroke-width="6.25"/><g transform="rotate(-90,6822.5,-3922)"><path d="m-4.4874-0.3362c0.03153-0.42088 0.12212-0.83523 0.26909-1.2309" fill="none" stroke="#000" stroke-miterlimit="10" stroke-width="5"/></g><path d="m10743 2905h1-1v1" fill="none" stroke="#000" stroke-miterlimit="10" stroke-width="5"/><path d="m10743 2895h1v-1" fill="none" stroke="#000" stroke-miterlimit="10" stroke-width="5"/><g transform="rotate(-90,6819,-3923.5)"><path d="m1.5838 3.1211c-0.5232 0.2655-1.1048 0.39521-1.6912 0.37721" fill="none" stroke="#000" stroke-miterlimit="10" stroke-width="5"/></g><g transform="rotate(-90,6821.5,-3925)"><path d="m-1.031-1.0895c0.32845-0.31079 0.77958-0.45683 1.2278-0.39748" fill="none" stroke="#000" stroke-miterlimit="10" stroke-width="5"/></g><g fill="none" stroke="#000" stroke-miterlimit="10" stroke-width="5"><path d="m10745 2897h1-1"/><path d="m10745 2897v0" stroke-linecap="round"/><path d="m10745 2897h-1"/></g><g transform="rotate(-90,6822,-3921.5)"><path d="m2.4129 0.6543c-0.0256 0.09441-0.05672 0.18723-0.0932 0.278" fill="none" stroke="#000" stroke-miterlimit="10" stroke-width="5"/></g><path d="m10744 2897h-1 1-1" fill="none" stroke="#000" stroke-miterlimit="10" stroke-width="5"/><g transform="rotate(-90,6819,-3925.5)"><path d="m-4.4805-0.41832c0.0358-0.38355 0.12072-0.76092 0.25265-1.1228" fill="none" stroke="#000" stroke-miterlimit="10" stroke-width="5"/></g><path d="m10744 2897-2 2-2-2 2-2 1 1z" stroke="#000" stroke-miterlimit="10" stroke-width="6.25"/><g transform="rotate(-90,6822.5,-3922)"><path d="m4.2183-1.5671c0.14697 0.39565 0.23756 0.81 0.26909 1.2309" fill="none" stroke="#000" stroke-miterlimit="10" stroke-width="5"/></g><g fill="none" stroke="#000" stroke-miterlimit="10" stroke-width="5"><path d="m10743 2896h1-1v-1"/><path d="m10734 2897h-15"/><path d="m10734 2899h-15"/><path d="m10734 2902h-15"/><path d="m10734 2904h-15"/><path d="m10732 2894h-13"/><path d="m10732 2907h-13"/><path d="m10734 2897v7"/><path d="m10732 2899v3"/><path d="m10732 2906v1h-1"/></g><g transform="rotate(90,3914.5,6820)"><path d="m1.5838 3.1211c-0.5232 0.2655-1.1048 0.39521-1.6912 0.37721" fill="none" stroke="#000" stroke-miterlimit="10" stroke-width="5"/></g><g transform="rotate(90,3912.5,6818)"><path d="m-1.031-1.0895c0.32845-0.31079 0.77958-0.45683 1.2278-0.39748" fill="none" stroke="#000" stroke-miterlimit="10" stroke-width="5"/></g><g fill="none" stroke="#000" stroke-miterlimit="10" stroke-width="5"><path d="m10731 2904h-1 1"/><path d="m10731 2904v0" stroke-linecap="round"/><path d="m10731 2904h1"/></g><g transform="rotate(90,3916,6817.5)"><path d="m2.4129 0.6543c-0.0256 0.09441-0.05672 0.18723-0.0932 0.278" fill="none" stroke="#000" stroke-miterlimit="10" stroke-width="5"/></g><path d="m10732 2904h1-1 1" fill="none" stroke="#000" stroke-miterlimit="10" stroke-width="5"/><g transform="rotate(90,3912,6820.5)"><path d="m-4.4805-0.41832c0.0358-0.38355 0.12072-0.76092 0.25265-1.1228" fill="none" stroke="#000" stroke-miterlimit="10" stroke-width="5"/></g><path d="m10736 2904-2 2-2-2 2-2 1 1z" stroke="#000" stroke-miterlimit="10" stroke-width="6.25"/><g transform="rotate(90,3916,6816.5)"><path d="m4.2183-1.5671c0.14697 0.39565 0.23756 0.81 0.26909 1.2309" fill="none" stroke="#000" stroke-miterlimit="10" stroke-width="5"/></g><path d="m10733 2905h-1 1v1h-1" fill="none" stroke="#000" stroke-miterlimit="10" stroke-width="5"/><path d="m10732 2895v-1h-1" fill="none" stroke="#000" stroke-miterlimit="10" stroke-width="5"/><g transform="rotate(90,3919.5,6815)"><path d="m0.10736 3.4984c-0.58643 0.018-1.168-0.11171-1.6912-0.37721" fill="none" stroke="#000" stroke-miterlimit="10" stroke-width="5"/></g><g transform="rotate(90,3917,6813.5)"><path d="m-0.19688-1.487c0.44827-0.05935 0.8994 0.08669 1.2278 0.39748" fill="none" stroke="#000" stroke-miterlimit="10" stroke-width="5"/></g><g fill="none" stroke="#000" stroke-miterlimit="10" stroke-width="5"><path d="m10731 2897h-1 1"/><path d="m10731 2897v0" stroke-linecap="round"/><path d="m10731 2897h1"/></g><g transform="rotate(90,3916.5,6817)"><path d="m-2.3197 0.9323c-0.03648-0.09077-0.0676-0.18359-0.0932-0.278" fill="none" stroke="#000" stroke-miterlimit="10" stroke-width="5"/></g><path d="m10732 2897h1-1 1" fill="none" stroke="#000" stroke-miterlimit="10" stroke-width="5"/><g transform="rotate(90,3919.5,6813)"><path d="m4.2279-1.5412c0.13193 0.36192 0.21685 0.73929 0.25265 1.1228" fill="none" stroke="#000" stroke-miterlimit="10" stroke-width="5"/></g><path d="m10736 2897-2 2-2-2 2-2 1 1z" stroke="#000" stroke-miterlimit="10" stroke-width="6.25"/><g transform="rotate(90,3916,6816.5)"><path d="m-4.4874-0.3362c0.03153-0.42088 0.12212-0.83523 0.26909-1.2309" fill="none" stroke="#000" stroke-miterlimit="10" stroke-width="5"/></g><g fill="none" stroke="#000" stroke-miterlimit="10" stroke-width="5"><path d="m10733 2896h-1 1v-1h-1"/><path d="m10583 2886h136"/><path d="m10583 2914h136"/><path d="m10581 2897h138"/><path d="m10581 2899h138"/><path d="m10581 2902h138"/><path d="m10581 2904h138"/><path d="m10583 2894h136"/><path d="m10583 2907h136"/><path d="m10583 2886h-100v28h100"/><path d="m10493 2897h90"/><path d="m10493 2899h90"/><path d="m10493 2902h90"/><path d="m10493 2904h90"/><path d="m10496 2894h87"/><path d="m10496 2907h87"/><path d="m10493 2897v7"/><path d="m10495 2899v3"/><path d="m10495 2906h1v1"/></g><g transform="rotate(-90,6699.5,-3794)"><path d="m0.10736 3.4984c-0.58643 0.018-1.168-0.11171-1.6912-0.37721" fill="none" stroke="#000" stroke-miterlimit="10" stroke-width="5"/></g><g transform="rotate(-90,6701.5,-3796)"><path d="m-0.19688-1.487c0.44827-0.05935 0.8994 0.08669 1.2278 0.39748" fill="none" stroke="#000" stroke-miterlimit="10" stroke-width="5"/></g><g stroke="#000" stroke-miterlimit="10"><path d="m10497 2904h-1" fill="none" stroke-width="5"/><path d="m10496 2904v0" fill="none" stroke-linecap="round" stroke-width="5"/><path d="m10498 2904-2 2-2-2 2-2 1 1z" stroke-linecap="round" stroke-width="6.25"/></g><g transform="rotate(-90,6698.5,-3797)"><path d="m-2.3197 0.9323c-0.03648-0.09077-0.0676-0.18359-0.0932-0.278" fill="none" stroke="#000" stroke-miterlimit="10" stroke-width="5"/></g><path d="m10495 2904h1-1" fill="none" stroke="#000" stroke-miterlimit="10" stroke-width="5"/><g transform="rotate(-90,6702,-3793.5)"><path d="m4.2279-1.5412c0.13193 0.36192 0.21685 0.73929 0.25265 1.1228" fill="none" stroke="#000" stroke-miterlimit="10" stroke-width="5"/></g><path d="m10496 2904-2 2-2-2 2-2 1 1z" stroke="#000" stroke-miterlimit="10" stroke-width="6.25"/><g transform="rotate(-90,6698,-3797.5)"><path d="m-4.4874-0.3362c0.03153-0.42088 0.12212-0.83523 0.26909-1.2309" fill="none" stroke="#000" stroke-miterlimit="10" stroke-width="5"/></g><path d="m10495 2905h-1l1 1" fill="none" stroke="#000" stroke-miterlimit="10" stroke-width="5"/><path d="m10495 2895h1v-1" fill="none" stroke="#000" stroke-miterlimit="10" stroke-width="5"/><g transform="rotate(-90,6694.5,-3799)"><path d="m1.5838 3.1211c-0.5232 0.2655-1.1048 0.39521-1.6912 0.37721" fill="none" stroke="#000" stroke-miterlimit="10" stroke-width="5"/></g><g transform="rotate(-90,6697,-3800.5)"><path d="m-1.031-1.0895c0.32845-0.31079 0.77958-0.45683 1.2278-0.39748" fill="none" stroke="#000" stroke-miterlimit="10" stroke-width="5"/></g><g stroke="#000" stroke-miterlimit="10"><path d="m10497 2897h-1" fill="none" stroke-width="5"/><path d="m10496 2897v0" fill="none" stroke-linecap="round" stroke-width="5"/><path d="m10498 2897-2 2-2-2 2-2 1 1z" stroke-linecap="round" stroke-width="6.25"/></g><g transform="rotate(-90,6698,-3797.5)"><path d="m2.4129 0.6543c-0.0256 0.09441-0.05672 0.18723-0.0932 0.278" fill="none" stroke="#000" stroke-miterlimit="10" stroke-width="5"/></g><path d="m10495 2897h1-1" fill="none" stroke="#000" stroke-miterlimit="10" stroke-width="5"/><g transform="rotate(-90,6694.5,-3801)"><path d="m-4.4805-0.41832c0.0358-0.38355 0.12072-0.76092 0.25265-1.1228" fill="none" stroke="#000" stroke-miterlimit="10" stroke-width="5"/></g><path d="m10496 2897-2 2-2-2 2-2 1 1z" stroke="#000" stroke-miterlimit="10" stroke-width="6.25"/><g transform="rotate(-90,6698,-3797.5)"><path d="m4.2183-1.5671c0.14697 0.39565 0.23756 0.81 0.26909 1.2309" fill="none" stroke="#000" stroke-miterlimit="10" stroke-width="5"/></g><g fill="none" stroke="#000" stroke-miterlimit="10" stroke-width="5"><path d="m10495 2896-1-1h1"/><path d="m11007 2914h235v-28h-235"/><path d="m11232 2904h-225"/><path d="m11232 2902h-225"/><path d="m11232 2899h-225"/><path d="m11232 2897h-225"/><path d="m11229 2907h-222"/><path d="m11229 2894h-222"/><path d="m11232 2904v-7"/><path d="m11230 2902v-3"/><path d="m11230 2895h-1v-1"/></g><g transform="rotate(90,4168.5,7064)"><path d="m0.10736 3.4984c-0.58643 0.018-1.168-0.11171-1.6912-0.37721" fill="none" stroke="#000" stroke-miterlimit="10" stroke-width="5"/></g><g transform="rotate(90,4166,7062.5)"><path d="m-0.19688-1.487c0.44827-0.05935 0.8994 0.08669 1.2278 0.39748" fill="none" stroke="#000" stroke-miterlimit="10" stroke-width="5"/></g><g stroke="#000" stroke-miterlimit="10"><path d="m11229 2897h-1 1" fill="none" stroke-width="5"/><path d="m11229 2897v0" fill="none" stroke-linecap="round" stroke-width="5"/><path d="m11231 2897-2 2-2-2 2-2 1 1z" stroke-linecap="round" stroke-width="6.25"/></g><g transform="rotate(90,4165,7065.5)"><path d="m-2.3197 0.9323c-0.03648-0.09077-0.0676-0.18359-0.0932-0.278" fill="none" stroke="#000" stroke-miterlimit="10" stroke-width="5"/></g><path d="m11230 2897h-1 1" fill="none" stroke="#000" stroke-miterlimit="10" stroke-width="5"/><g transform="rotate(90,4168.5,7062)"><path d="m4.2279-1.5412c0.13193 0.36192 0.21685 0.73929 0.25265 1.1228" fill="none" stroke="#000" stroke-miterlimit="10" stroke-width="5"/></g><path d="m11233 2897-2 2-2-2 2-2 1 1z" stroke="#000" stroke-miterlimit="10" stroke-width="6.25"/><g transform="rotate(90,4165,7065.5)"><path d="m-4.4874-0.3362c0.03153-0.42088 0.12212-0.83523 0.26909-1.2309" fill="none" stroke="#000" stroke-miterlimit="10" stroke-width="5"/></g><path d="m11230 2896 1-1h-1" fill="none" stroke="#000" stroke-miterlimit="10" stroke-width="5"/><path d="m11230 2906h-1v1" fill="none" stroke="#000" stroke-miterlimit="10" stroke-width="5"/><g transform="rotate(90,4163.5,7069)"><path d="m1.5838 3.1211c-0.5232 0.2655-1.1048 0.39521-1.6912 0.37721" fill="none" stroke="#000" stroke-miterlimit="10" stroke-width="5"/></g><g transform="rotate(90,4161.5,7067)"><path d="m-1.031-1.0895c0.32845-0.31079 0.77958-0.45683 1.2278-0.39748" fill="none" stroke="#000" stroke-miterlimit="10" stroke-width="5"/></g><g stroke="#000" stroke-miterlimit="10"><path d="m11229 2904h-1 1" fill="none" stroke-width="5"/><path d="m11229 2904v0" fill="none" stroke-linecap="round" stroke-width="5"/><path d="m11231 2904-2 2-2-2 2-2 1 1z" stroke-linecap="round" stroke-width="6.25"/></g><g transform="rotate(90,4164.5,7066)"><path d="m2.4129 0.6543c-0.0256 0.09441-0.05672 0.18723-0.0932 0.278" fill="none" stroke="#000" stroke-miterlimit="10" stroke-width="5"/></g><path d="m11230 2904h-1 1" fill="none" stroke="#000" stroke-miterlimit="10" stroke-width="5"/><g transform="rotate(90,4161,7069.5)"><path d="m-4.4805-0.41832c0.0358-0.38355 0.12072-0.76092 0.25265-1.1228" fill="none" stroke="#000" stroke-miterlimit="10" stroke-width="5"/></g><path d="m11233 2904-2 2-2-2 2-2 1 1z" stroke="#000" stroke-miterlimit="10" stroke-width="6.25"/><g transform="rotate(90,4165,7065.5)"><path d="m4.2183-1.5671c0.14697 0.39565 0.23756 0.81 0.26909 1.2309" fill="none" stroke="#000" stroke-miterlimit="10" stroke-width="5"/></g><g fill="none" stroke="#000" stroke-miterlimit="10" stroke-width="5"><path d="m11230 2905h1l-1 1"/><path d="m10994 2886h13"/><path d="m10994 2914h13"/><path d="m10992 2897h15"/><path d="m10992 2899h15"/><path d="m10992 2902h15"/><path d="m10992 2904h15"/><path d="m10994 2894h13"/><path d="m10994 2907h13"/><path d="m10992 2897v7"/><path d="m10993 2899v3"/><path d="m10994 2906v1"/></g><g transform="rotate(-90,6949,-4043.5)"><path d="m0.10736 3.4984c-0.58643 0.018-1.168-0.11171-1.6912-0.37721" fill="none" stroke="#000" stroke-miterlimit="10" stroke-width="5"/></g><g transform="rotate(-90,6951,-4045.5)"><path d="m-0.19688-1.487c0.44827-0.05935 0.8994 0.08669 1.2278 0.39748" fill="none" stroke="#000" stroke-miterlimit="10" stroke-width="5"/></g><g fill="none" stroke="#000" stroke-miterlimit="10" stroke-width="5"><path d="m10995 2904h1-1"/><path d="m10995 2904v0" stroke-linecap="round"/><path d="m10995 2904h-1"/></g><g transform="rotate(-90,6947.5,-4046)"><path d="m-2.3197 0.9323c-0.03648-0.09077-0.0676-0.18359-0.0932-0.278" fill="none" stroke="#000" stroke-miterlimit="10" stroke-width="5"/></g><path d="m10994 2904h-1 1-1" fill="none" stroke="#000" stroke-miterlimit="10" stroke-width="5"/><g transform="rotate(-90,6951.5,-4043)"><path d="m4.2279-1.5412c0.13193 0.36192 0.21685 0.73929 0.25265 1.1228" fill="none" stroke="#000" stroke-miterlimit="10" stroke-width="5"/></g><path d="m10994 2904-2 2-2-2 2-2 1 1z" stroke="#000" stroke-miterlimit="10" stroke-width="6.25"/><g transform="rotate(-90,6947.5,-4047)"><path d="m-4.4874-0.3362c0.03153-0.42088 0.12212-0.83523 0.26909-1.2309" fill="none" stroke="#000" stroke-miterlimit="10" stroke-width="5"/></g><path d="m10993 2905h1-1v1h1" fill="none" stroke="#000" stroke-miterlimit="10" stroke-width="5"/><path d="m10994 2895v-1" fill="none" stroke="#000" stroke-miterlimit="10" stroke-width="5"/><g transform="rotate(-90,6944,-4048.5)"><path d="m1.5838 3.1211c-0.5232 0.2655-1.1048 0.39521-1.6912 0.37721" fill="none" stroke="#000" stroke-miterlimit="10" stroke-width="5"/></g><g transform="rotate(-90,6946.5,-4050)"><path d="m-1.031-1.0895c0.32845-0.31079 0.77958-0.45683 1.2278-0.39748" fill="none" stroke="#000" stroke-miterlimit="10" stroke-width="5"/></g><g fill="none" stroke="#000" stroke-miterlimit="10" stroke-width="5"><path d="m10995 2897h1-1"/><path d="m10995 2897v0" stroke-linecap="round"/><path d="m10995 2897h-1"/></g><g transform="rotate(-90,6947,-4046.5)"><path d="m2.4129 0.6543c-0.0256 0.09441-0.05672 0.18723-0.0932 0.278" fill="none" stroke="#000" stroke-miterlimit="10" stroke-width="5"/></g><path d="m10994 2897h-1 1-1" fill="none" stroke="#000" stroke-miterlimit="10" stroke-width="5"/><g transform="rotate(-90,6944,-4050.5)"><path d="m-4.4805-0.41832c0.0358-0.38355 0.12072-0.76092 0.25265-1.1228" fill="none" stroke="#000" stroke-miterlimit="10" stroke-width="5"/></g><path d="m10994 2897-2 2-2-2 2-2 1 1z" stroke="#000" stroke-miterlimit="10" stroke-width="6.25"/><g transform="rotate(-90,6947.5,-4047)"><path d="m4.2183-1.5671c0.14697 0.39565 0.23756 0.81 0.26909 1.2309" fill="none" stroke="#000" stroke-miterlimit="10" stroke-width="5"/></g><g fill="none" stroke="#000" stroke-miterlimit="10" stroke-width="5"><path d="m10993 2896h1-1v-1h1"/><path d="m10984 2897v7"/><path d="m10982 2899v3"/><path d="m10982 2906v1h-1"/></g><g transform="rotate(90,4039.5,6945)"><path d="m1.5838 3.1211c-0.5232 0.2655-1.1048 0.39521-1.6912 0.37721" fill="none" stroke="#000" stroke-miterlimit="10" stroke-width="5"/></g><g transform="rotate(90,4037.5,6943)"><path d="m-1.031-1.0895c0.32845-0.31079 0.77958-0.45683 1.2278-0.39748" fill="none" stroke="#000" stroke-miterlimit="10" stroke-width="5"/></g><g fill="none" stroke="#000" stroke-miterlimit="10" stroke-width="5"><path d="m10981 2904h-1 1"/><path d="m10981 2904v0" stroke-linecap="round"/><path d="m10981 2904h1"/></g><g transform="rotate(90,4041,6942.5)"><path d="m2.4129 0.6543c-0.0256 0.09441-0.05672 0.18723-0.0932 0.278" fill="none" stroke="#000" stroke-miterlimit="10" stroke-width="5"/></g><path d="m10982 2904h1-1 1" fill="none" stroke="#000" stroke-miterlimit="10" stroke-width="5"/><g transform="rotate(90,4037,6945.5)"><path d="m-4.4805-0.41832c0.0358-0.38355 0.12072-0.76092 0.25265-1.1228" fill="none" stroke="#000" stroke-miterlimit="10" stroke-width="5"/></g><path d="m10986 2904-2 2-2-2 2-2 1 1z" stroke="#000" stroke-miterlimit="10" stroke-width="6.25"/><g transform="rotate(90,4041,6941.5)"><path d="m4.2183-1.5671c0.14697 0.39565 0.23756 0.81 0.26909 1.2309" fill="none" stroke="#000" stroke-miterlimit="10" stroke-width="5"/></g><path d="m10983 2905h-1 1v1h-1" fill="none" stroke="#000" stroke-miterlimit="10" stroke-width="5"/><path d="m10982 2895v-1h-1" fill="none" stroke="#000" stroke-miterlimit="10" stroke-width="5"/><g transform="rotate(90,4044.5,6940)"><path d="m0.10736 3.4984c-0.58643 0.018-1.168-0.11171-1.6912-0.37721" fill="none" stroke="#000" stroke-miterlimit="10" stroke-width="5"/></g><g transform="rotate(90,4042,6938.5)"><path d="m-0.19688-1.487c0.44827-0.05935 0.8994 0.08669 1.2278 0.39748" fill="none" stroke="#000" stroke-miterlimit="10" stroke-width="5"/></g><g fill="none" stroke="#000" stroke-miterlimit="10" stroke-width="5"><path d="m10981 2897h-1 1"/><path d="m10981 2897v0" stroke-linecap="round"/><path d="m10981 2897h1"/></g><g transform="rotate(90,4041.5,6942)"><path d="m-2.3197 0.9323c-0.03648-0.09077-0.0676-0.18359-0.0932-0.278" fill="none" stroke="#000" stroke-miterlimit="10" stroke-width="5"/></g><path d="m10982 2897h1-1 1" fill="none" stroke="#000" stroke-miterlimit="10" stroke-width="5"/><g transform="rotate(90,4044.5,6938)"><path d="m4.2279-1.5412c0.13193 0.36192 0.21685 0.73929 0.25265 1.1228" fill="none" stroke="#000" stroke-miterlimit="10" stroke-width="5"/></g><path d="m10986 2897-2 2-2-2 2-2 1 1z" stroke="#000" stroke-miterlimit="10" stroke-width="6.25"/><g transform="rotate(90,4041,6941.5)"><path d="m-4.4874-0.3362c0.03153-0.42088 0.12212-0.83523 0.26909-1.2309" fill="none" stroke="#000" stroke-miterlimit="10" stroke-width="5"/></g><g fill="none" stroke="#000" stroke-miterlimit="10" stroke-width="5"><path d="m10983 2896h-1 1v-1h-1"/><path d="m8119 2913h-235v-28h235"/><path d="m7894 2902h225"/><path d="m7894 2900h225"/><path d="m7894 2897h225"/><path d="m7894 2896h225"/><path d="m7896 2905h223"/><path d="m7896 2892h223"/><path d="m7894 2902v-6"/><path d="m7896 2900v-3"/><path d="m7896 2894v-2l1 1"/></g><g transform="rotate(-90,5394.5,-2500)"><path d="m1.5838 3.1211c-0.5232 0.2655-1.1048 0.39521-1.6912 0.37721" fill="none" stroke="#000" stroke-miterlimit="10" stroke-width="5"/></g><g transform="rotate(-90,5396.5,-2502)"><path d="m-1.031-1.0895c0.32845-0.31079 0.77958-0.45683 1.2278-0.39748" fill="none" stroke="#000" stroke-miterlimit="10" stroke-width="5"/></g><g fill="none" stroke="#000" stroke-miterlimit="10" stroke-width="5"><path d="m7897 2895 1 1h-1"/><path d="m7897 2895v0" stroke-linecap="round"/><path d="m7897 2896-1-1"/></g><g transform="rotate(-90,5397,-2498.5)"><path d="m2.4129 0.6543c-0.0256 0.09441-0.05672 0.18723-0.0932 0.278" fill="none" stroke="#000" stroke-miterlimit="10" stroke-width="5"/></g><path d="m7896 2895h-1l1 1h-1" fill="none" stroke="#000" stroke-miterlimit="10" stroke-width="5"/><g transform="rotate(-90,5394,-2502.5)"><path d="m-4.4805-0.41832c0.0358-0.38355 0.12072-0.76092 0.25265-1.1228" fill="none" stroke="#000" stroke-miterlimit="10" stroke-width="5"/></g><path d="m7896 2895-2 2-2-2 2-2 1 1z" stroke="#000" stroke-miterlimit="10" stroke-width="6.25"/><g transform="rotate(-90,5398,-2498.5)"><path d="m4.2183-1.5671c0.14697 0.39565 0.23756 0.81 0.26909 1.2309" fill="none" stroke="#000" stroke-miterlimit="10" stroke-width="5"/></g><path d="m7895 2895h1v-1h-1v-1 1l1-1v1" fill="none" stroke="#000" stroke-miterlimit="10" stroke-width="5"/><path d="m7896 2904v1h1" fill="none" stroke="#000" stroke-miterlimit="10" stroke-width="5"/><g transform="rotate(-90,5399.5,-2495)"><path d="m0.10736 3.4984c-0.58643 0.018-1.168-0.11171-1.6912-0.37721" fill="none" stroke="#000" stroke-miterlimit="10" stroke-width="5"/></g><g transform="rotate(-90,5401.5,-2497)"><path d="m-0.19688-1.487c0.44827-0.05935 0.8994 0.08669 1.2278 0.39748" fill="none" stroke="#000" stroke-miterlimit="10" stroke-width="5"/></g><g fill="none" stroke="#000" stroke-miterlimit="10" stroke-width="5"><path d="m7897 2903 1-1h-1"/><path d="m7897 2902v0" stroke-linecap="round"/><path d="m7897 2902h-1"/></g><g transform="rotate(-90,5398,-2497.5)"><path d="m-2.3197 0.9323c-0.03648-0.09077-0.0676-0.18359-0.0932-0.278" fill="none" stroke="#000" stroke-miterlimit="10" stroke-width="5"/></g><path d="m7896 2902-1 1" fill="none" stroke="#000" stroke-miterlimit="10" stroke-width="5"/><path d="m7895 2902h1-1" fill="none" stroke="#000" stroke-miterlimit="10" stroke-width="5"/><g transform="rotate(-90,5402,-2494.5)"><path d="m4.2279-1.5412c0.13193 0.36192 0.21685 0.73929 0.25265 1.1228" fill="none" stroke="#000" stroke-miterlimit="10" stroke-width="5"/></g><path d="m7896 2903-2 2-2-2 2-2 1 1z" stroke="#000" stroke-miterlimit="10" stroke-width="6.25"/><g transform="rotate(-90,5398,-2498.5)"><path d="m-4.4874-0.3362c0.03153-0.42088 0.12212-0.83523 0.26909-1.2309" fill="none" stroke="#000" stroke-miterlimit="10" stroke-width="5"/></g><g fill="none" stroke="#000" stroke-miterlimit="10" stroke-width="5"><path d="m7895 2903h1v1h-1 1"/><path d="m8119 2902v-6"/><path d="m8117 2900v-3"/><path d="m8117 2894v-2l-1 1"/></g><g transform="rotate(90,2612.5,5507)"><path d="m0.10736 3.4984c-0.58643 0.018-1.168-0.11171-1.6912-0.37721" fill="none" stroke="#000" stroke-miterlimit="10" stroke-width="5"/></g><g transform="rotate(90,2610.5,5505)"><path d="m-0.19688-1.487c0.44827-0.05935 0.8994 0.08669 1.2278 0.39748" fill="none" stroke="#000" stroke-miterlimit="10" stroke-width="5"/></g><g fill="none" stroke="#000" stroke-miterlimit="10" stroke-width="5"><path d="m8116 2895-1 1h1"/><path d="m8116 2895v0" stroke-linecap="round"/><path d="m8116 2896 1-1"/></g><g transform="rotate(90,2610,5508.5)"><path d="m-2.3197 0.9323c-0.03648-0.09077-0.0676-0.18359-0.0932-0.278" fill="none" stroke="#000" stroke-miterlimit="10" stroke-width="5"/></g><path d="m8117 2895h1l-1 1h1" fill="none" stroke="#000" stroke-miterlimit="10" stroke-width="5"/><g transform="rotate(90,2613,5504.5)"><path d="m4.2279-1.5412c0.13193 0.36192 0.21685 0.73929 0.25265 1.1228" fill="none" stroke="#000" stroke-miterlimit="10" stroke-width="5"/></g><path d="m8121 2895-2 2-2-2 2-2 1 1z" stroke="#000" stroke-miterlimit="10" stroke-width="6.25"/><g transform="rotate(90,2609,5508.5)"><path d="m-4.4874-0.3362c0.03153-0.42088 0.12212-0.83523 0.26909-1.2309" fill="none" stroke="#000" stroke-miterlimit="10" stroke-width="5"/></g><path d="m8118 2895h-1v-1h1v-1 1l-1-1v1" fill="none" stroke="#000" stroke-miterlimit="10" stroke-width="5"/><path d="m8117 2904v1h-1" fill="none" stroke="#000" stroke-miterlimit="10" stroke-width="5"/><g transform="rotate(90,2607.5,5512)"><path d="m1.5838 3.1211c-0.5232 0.2655-1.1048 0.39521-1.6912 0.37721" fill="none" stroke="#000" stroke-miterlimit="10" stroke-width="5"/></g><g transform="rotate(90,2605.5,5510)"><path d="m-1.031-1.0895c0.32845-0.31079 0.77958-0.45683 1.2278-0.39748" fill="none" stroke="#000" stroke-miterlimit="10" stroke-width="5"/></g><g fill="none" stroke="#000" stroke-miterlimit="10" stroke-width="5"><path d="m8116 2903-1-1h1"/><path d="m8116 2902v0" stroke-linecap="round"/><path d="m8116 2902h1"/></g><g transform="rotate(90,2609,5509.5)"><path d="m2.4129 0.6543c-0.0256 0.09441-0.05672 0.18723-0.0932 0.278" fill="none" stroke="#000" stroke-miterlimit="10" stroke-width="5"/></g><path d="m8117 2902 1 1" fill="none" stroke="#000" stroke-miterlimit="10" stroke-width="5"/><path d="m8118 2902h-1 1" fill="none" stroke="#000" stroke-miterlimit="10" stroke-width="5"/><g transform="rotate(90,2605,5512.5)"><path d="m-4.4805-0.41832c0.0358-0.38355 0.12072-0.76092 0.25265-1.1228" fill="none" stroke="#000" stroke-miterlimit="10" stroke-width="5"/></g><path d="m8121 2903-2 2-2-2 2-2 1 1z" stroke="#000" stroke-miterlimit="10" stroke-width="6.25"/><g transform="rotate(90,2609,5508.5)"><path d="m4.2183-1.5671c0.14697 0.39565 0.23756 0.81 0.26909 1.2309" fill="none" stroke="#000" stroke-miterlimit="10" stroke-width="5"/></g><g fill="none" stroke="#000" stroke-miterlimit="10"><g stroke-width="5"><path d="m8118 2903h-1v1h1-1"/><path d="m7692 5660h82"/><path d="m7692 5658h86"/><path d="m7695 5655h81"/><path d="m7692 5658v2"/></g><path d="m7776 5672h-81" stroke-width="4"/><path d="m7695 5647h81" stroke-width="4"/><path d="m7695 5663h81" stroke-width="5"/><path d="m7694 5656h1v-1" stroke-width="5"/></g><g transform="rotate(-90,6675,-1017.5)"><path d="m1.5838 3.1211c-0.5232 0.2655-1.1048 0.39521-1.6912 0.37721" fill="none" stroke="#000" stroke-miterlimit="10" stroke-width="5"/></g><g transform="rotate(-90,6677.5,-1020)"><path d="m-1.031-1.0895c0.32845-0.31079 0.77958-0.45683 1.2278-0.39748" fill="none" stroke="#000" stroke-miterlimit="10" stroke-width="5"/></g><path d="m7696 5658v0" fill="none" stroke="#000" stroke-linecap="round" stroke-miterlimit="10" stroke-width="5"/><path d="m7697 5658-2 2-2-2 2-2 1 1z" stroke="#000" stroke-linecap="round" stroke-miterlimit="10" stroke-width="6.25"/><g transform="rotate(-90,6678,-1016.5)"><path d="m2.4129 0.6543c-0.0256 0.09441-0.05672 0.18723-0.0932 0.278" fill="none" stroke="#000" stroke-miterlimit="10" stroke-width="5"/></g><path d="m7695 5658h-1 1-1" fill="none" stroke="#000" stroke-miterlimit="10" stroke-width="5"/><g transform="rotate(-90,6674.5,-1020)"><path d="m-4.4805-0.41832c0.0358-0.38355 0.12072-0.76092 0.25265-1.1228" fill="none" stroke="#000" stroke-miterlimit="10" stroke-width="5"/></g><path d="m7695 5658-2 2-2-2 2-2 1 1z" stroke="#000" stroke-miterlimit="10" stroke-width="6.25"/><g transform="rotate(-90,6678.5,-1016)"><path d="m4.2183-1.5671c0.14697 0.39565 0.23756 0.81 0.26909 1.2309" fill="none" stroke="#000" stroke-miterlimit="10" stroke-width="5"/></g><path d="m7694 5657h1-2l1-1" fill="none" stroke="#000" stroke-miterlimit="10" stroke-width="5"/><path d="m7694 5662h1v1" fill="none" stroke="#000" stroke-miterlimit="10" stroke-width="5"/><g transform="rotate(-90,6677.5,-1015)"><path d="m0.10736 3.4984c-0.58643 0.018-1.168-0.11171-1.6912-0.37721" fill="none" stroke="#000" stroke-miterlimit="10" stroke-width="5"/></g><g transform="rotate(-90,6680,-1017.5)"><path d="m-0.19688-1.487c0.44827-0.05935 0.8994 0.08669 1.2278 0.39748" fill="none" stroke="#000" stroke-miterlimit="10" stroke-width="5"/></g><g stroke="#000" stroke-miterlimit="10"><path d="m7696 5661v-1" fill="none" stroke-width="5"/><path d="m7696 5661v0" fill="none" stroke-linecap="round" stroke-width="5"/><path d="m7697 5660-2 2-2-2 2-2 1 1z" stroke-linecap="round" stroke-width="6.25"/></g><g transform="rotate(-90,6676.5,-1018)"><path d="m-2.3197 0.9323c-0.03648-0.09077-0.0676-0.18359-0.0932-0.278" fill="none" stroke="#000" stroke-miterlimit="10" stroke-width="5"/></g><path d="m7695 5660-1 1" fill="none" stroke="#000" stroke-miterlimit="10" stroke-width="5"/><path d="m7694 5660h1-1" fill="none" stroke="#000" stroke-miterlimit="10" stroke-width="5"/><g transform="rotate(-90,6680,-1014.5)"><path d="m4.2279-1.5412c0.13193 0.36192 0.21685 0.73929 0.25265 1.1228" fill="none" stroke="#000" stroke-miterlimit="10" stroke-width="5"/></g><path d="m7695 5661-2 2-2-2 2-2 1 1z" stroke="#000" stroke-miterlimit="10" stroke-width="6.25"/><g transform="rotate(-90,6676,-1018.5)"><path d="m-4.4874-0.3362c0.03153-0.42088 0.12212-0.83523 0.26909-1.2309" fill="none" stroke="#000" stroke-miterlimit="10" stroke-width="5"/></g><g fill="none" stroke="#000" stroke-miterlimit="10"><g stroke-width="5"><path d="m7694 5661h1v1h-2 1"/><path d="m8333 5660h-82"/><path d="m8333 5658h-86"/><path d="m8331 5655h-81"/><path d="m8333 5658v2"/></g><path d="m8250 5672h81" stroke-width="4"/><path d="m8331 5647h-81" stroke-width="4"/><path d="m8331 5663h-81" stroke-width="5"/><path d="m8331 5656v-1" stroke-width="5"/></g><g transform="rotate(90,1338,6995.5)"><path d="m0.10736 3.4984c-0.58643 0.018-1.168-0.11171-1.6912-0.37721" fill="none" stroke="#000" stroke-miterlimit="10" stroke-width="5"/></g><g transform="rotate(90,1336,6993.5)"><path d="m-0.19688-1.487c0.44827-0.05935 0.8994 0.08669 1.2278 0.39748" fill="none" stroke="#000" stroke-miterlimit="10" stroke-width="5"/></g><g fill="none" stroke="#000" stroke-miterlimit="10" stroke-width="5"><path d="m8330 5658h-1 1"/><path d="m8330 5658v0" stroke-linecap="round"/><path d="m8330 5658h1"/></g><g transform="rotate(90,1335.5,6997)"><path d="m-2.3197 0.9323c-0.03648-0.09077-0.0676-0.18359-0.0932-0.278" fill="none" stroke="#000" stroke-miterlimit="10" stroke-width="5"/></g><path d="m8331 5658h1-1 1" fill="none" stroke="#000" stroke-miterlimit="10" stroke-width="5"/><g transform="rotate(90,1338.5,6993)"><path d="m4.2279-1.5412c0.13193 0.36192 0.21685 0.73929 0.25265 1.1228" fill="none" stroke="#000" stroke-miterlimit="10" stroke-width="5"/></g><path d="m8335 5658-2 2-2-2 2-2 1 1z" stroke="#000" stroke-miterlimit="10" stroke-width="6.25"/><g transform="rotate(90,1334.5,6997)"><path d="m-4.4874-0.3362c0.03153-0.42088 0.12212-0.83523 0.26909-1.2309" fill="none" stroke="#000" stroke-miterlimit="10" stroke-width="5"/></g><path d="m8332 5657h-1 1v-1h-1" fill="none" stroke="#000" stroke-miterlimit="10" stroke-width="5"/><path d="m8331 5662v1" fill="none" stroke="#000" stroke-miterlimit="10" stroke-width="5"/><g transform="rotate(90,1335.5,6998)"><path d="m1.5838 3.1211c-0.5232 0.2655-1.1048 0.39521-1.6912 0.37721" fill="none" stroke="#000" stroke-miterlimit="10" stroke-width="5"/></g><g transform="rotate(90,1333.5,6996)"><path d="m-1.031-1.0895c0.32845-0.31079 0.77958-0.45683 1.2278-0.39748" fill="none" stroke="#000" stroke-miterlimit="10" stroke-width="5"/></g><g fill="none" stroke="#000" stroke-miterlimit="10" stroke-width="5"><path d="m8330 5661-1-1h1"/><path d="m8330 5661v0" stroke-linecap="round"/><path d="m8330 5660h1"/></g><g transform="rotate(90,1337,6995.5)"><path d="m2.4129 0.6543c-0.0256 0.09441-0.05672 0.18723-0.0932 0.278" fill="none" stroke="#000" stroke-miterlimit="10" stroke-width="5"/></g><path d="m8331 5660 1 1" fill="none" stroke="#000" stroke-miterlimit="10" stroke-width="5"/><path d="m8332 5660h-1 1" fill="none" stroke="#000" stroke-miterlimit="10" stroke-width="5"/><g transform="rotate(90,1333,6998.5)"><path d="m-4.4805-0.41832c0.0358-0.38355 0.12072-0.76092 0.25265-1.1228" fill="none" stroke="#000" stroke-miterlimit="10" stroke-width="5"/></g><path d="m8335 5661-2 2-2-2 2-2 1 1z" stroke="#000" stroke-miterlimit="10" stroke-width="6.25"/><g transform="rotate(90,1337,6994.5)"><path d="m4.2183-1.5671c0.14697 0.39565 0.23756 0.81 0.26909 1.2309" fill="none" stroke="#000" stroke-miterlimit="10" stroke-width="5"/></g><path d="m8332 5661h-1v1h1-1" fill="none" stroke="#000" stroke-miterlimit="10" stroke-width="5"/><path d="m8249 5662h1v1" fill="none" stroke="#000" stroke-miterlimit="10" stroke-width="5"/><g transform="rotate(-90,6955,-1292.5)"><path d="m0.10736 3.4984c-0.58643 0.018-1.168-0.11171-1.6912-0.37721" fill="none" stroke="#000" stroke-miterlimit="10" stroke-width="5"/></g><g transform="rotate(-90,6957,-1294.5)"><path d="m-0.19688-1.487c0.44827-0.05935 0.8994 0.08669 1.2278 0.39748" fill="none" stroke="#000" stroke-miterlimit="10" stroke-width="5"/></g><g stroke="#000" stroke-miterlimit="10"><path d="m8251 5661v-1h-1" fill="none" stroke-width="5"/><path d="m8250 5661v0" fill="none" stroke-linecap="round" stroke-width="5"/><path d="m8252 5660-2 2-2-2 2-2 1 1z" stroke-linecap="round" stroke-width="6.25"/></g><g transform="rotate(-90,6954,-1295.5)"><path d="m-2.3197 0.9323c-0.03648-0.09077-0.0676-0.18359-0.0932-0.278" fill="none" stroke="#000" stroke-miterlimit="10" stroke-width="5"/></g><path d="m8249 5661v0" fill="none" stroke="#000" stroke-linecap="round" stroke-miterlimit="10" stroke-width="5"/><path d="m8249 5660h1-1" fill="none" stroke="#000" stroke-miterlimit="10" stroke-width="5"/><g transform="rotate(-90,6957.5,-1292)"><path d="m4.2279-1.5412c0.13193 0.36192 0.21685 0.73929 0.25265 1.1228" fill="none" stroke="#000" stroke-miterlimit="10" stroke-width="5"/></g><path d="m8250 5661-2 2-2-2 2-2 1 1z" stroke="#000" stroke-miterlimit="10" stroke-width="6.25"/><g transform="rotate(-90,6953.5,-1296)"><path d="m-4.4874-0.3362c0.03153-0.42088 0.12212-0.83523 0.26909-1.2309" fill="none" stroke="#000" stroke-miterlimit="10" stroke-width="5"/></g><path d="m8249 5661v1h-1 1" fill="none" stroke="#000" stroke-miterlimit="10" stroke-width="5"/><path d="m8249 5656h1v-1" fill="none" stroke="#000" stroke-miterlimit="10" stroke-width="5"/><g transform="rotate(-90,6952.5,-1295)"><path d="m1.5838 3.1211c-0.5232 0.2655-1.1048 0.39521-1.6912 0.37721" fill="none" stroke="#000" stroke-miterlimit="10" stroke-width="5"/></g><g transform="rotate(-90,6954.5,-1297)"><path d="m-1.031-1.0895c0.32845-0.31079 0.77958-0.45683 1.2278-0.39748" fill="none" stroke="#000" stroke-miterlimit="10" stroke-width="5"/></g><g stroke="#000" stroke-miterlimit="10"><path d="m8251 5658h-1" fill="none" stroke-width="5"/><path d="m8250 5658v0" fill="none" stroke-linecap="round" stroke-width="5"/><path d="m8252 5658-2 2-2-2 2-2 1 1z" stroke-linecap="round" stroke-width="6.25"/></g><g transform="rotate(-90,6955.5,-1294)"><path d="m2.4129 0.6543c-0.0256 0.09441-0.05672 0.18723-0.0932 0.278" fill="none" stroke="#000" stroke-miterlimit="10" stroke-width="5"/></g><path d="m8249 5658h1-1" fill="none" stroke="#000" stroke-miterlimit="10" stroke-width="5"/><g transform="rotate(-90,6952,-1297.5)"><path d="m-4.4805-0.41832c0.0358-0.38355 0.12072-0.76092 0.25265-1.1228" fill="none" stroke="#000" stroke-miterlimit="10" stroke-width="5"/></g><path d="m8250 5658-2 2-2-2 2-2 1 1z" stroke="#000" stroke-miterlimit="10" stroke-width="6.25"/><g transform="rotate(-90,6956,-1293.5)"><path d="m4.2183-1.5671c0.14697 0.39565 0.23756 0.81 0.26909 1.2309" fill="none" stroke="#000" stroke-miterlimit="10" stroke-width="5"/></g><g fill="none" stroke="#000" stroke-miterlimit="10" stroke-width="5"><path d="m8249 5657h-1l1-1"/><path d="m8247 5658v2"/><path d="m7777 5662h-1v1"/></g><g transform="rotate(90,1058,6720.5)"><path d="m1.5838 3.1211c-0.5232 0.2655-1.1048 0.39521-1.6912 0.37721" fill="none" stroke="#000" stroke-miterlimit="10" stroke-width="5"/></g><g transform="rotate(90,1056,6718.5)"><path d="m-1.031-1.0895c0.32845-0.31079 0.77958-0.45683 1.2278-0.39748" fill="none" stroke="#000" stroke-miterlimit="10" stroke-width="5"/></g><g stroke="#000" stroke-miterlimit="10"><path d="m7775 5661-1-1h1" fill="none" stroke-width="5"/><path d="m7775 5661v0" fill="none" stroke-linecap="round" stroke-width="5"/><path d="m7778 5660-2 2-2-2 2-2 1 1z" stroke-linecap="round" stroke-width="6.25"/></g><g transform="rotate(90,1059.5,6718)"><path d="m2.4129 0.6543c-0.0256 0.09441-0.05672 0.18723-0.0932 0.278" fill="none" stroke="#000" stroke-miterlimit="10" stroke-width="5"/></g><path d="m7776 5661h1" fill="none" stroke="#000" stroke-miterlimit="10" stroke-width="5"/><path d="m7777 5660h-1 1" fill="none" stroke="#000" stroke-miterlimit="10" stroke-width="5"/><g transform="rotate(90,1055.5,6721)"><path d="m-4.4805-0.41832c0.0358-0.38355 0.12072-0.76092 0.25265-1.1228" fill="none" stroke="#000" stroke-miterlimit="10" stroke-width="5"/></g><path d="m7780 5661-2 2-2-2 2-2 1 1z" stroke="#000" stroke-miterlimit="10" stroke-width="6.25"/><g transform="rotate(90,1060,6717.5)"><path d="m4.2183-1.5671c0.14697 0.39565 0.23756 0.81 0.26909 1.2309" fill="none" stroke="#000" stroke-miterlimit="10" stroke-width="5"/></g><path d="m7777 5661h-1v1h1" fill="none" stroke="#000" stroke-miterlimit="10" stroke-width="5"/><path d="m7777 5656h-1v-1" fill="none" stroke="#000" stroke-miterlimit="10" stroke-width="5"/><g transform="rotate(90,1060.5,6718)"><path d="m0.10736 3.4984c-0.58643 0.018-1.168-0.11171-1.6912-0.37721" fill="none" stroke="#000" stroke-miterlimit="10" stroke-width="5"/></g><g transform="rotate(90,1058.5,6716)"><path d="m-0.19688-1.487c0.44827-0.05935 0.8994 0.08669 1.2278 0.39748" fill="none" stroke="#000" stroke-miterlimit="10" stroke-width="5"/></g><g stroke="#000" stroke-miterlimit="10"><path d="m7775 5658h-1 1" fill="none" stroke-width="5"/><path d="m7775 5658v0" fill="none" stroke-linecap="round" stroke-width="5"/><path d="m7778 5658-2 2-2-2 2-2 1 1z" stroke-linecap="round" stroke-width="6.25"/></g><g transform="rotate(90,1058,6719.5)"><path d="m-2.3197 0.9323c-0.03648-0.09077-0.0676-0.18359-0.0932-0.278" fill="none" stroke="#000" stroke-miterlimit="10" stroke-width="5"/></g><path d="m7776 5658h1-1 1" fill="none" stroke="#000" stroke-miterlimit="10" stroke-width="5"/><g transform="rotate(90,1061,6715.5)"><path d="m4.2279-1.5412c0.13193 0.36192 0.21685 0.73929 0.25265 1.1228" fill="none" stroke="#000" stroke-miterlimit="10" stroke-width="5"/></g><path d="m7780 5658-2 2-2-2 2-2 1 1z" stroke="#000" stroke-miterlimit="10" stroke-width="6.25"/><g transform="rotate(90,1057.5,6720)"><path d="m-4.4874-0.3362c0.03153-0.42088 0.12212-0.83523 0.26909-1.2309" fill="none" stroke="#000" stroke-miterlimit="10" stroke-width="5"/></g><g fill="none" stroke="#000" stroke-miterlimit="10"><path d="m7777 5657h-1 1v-1" stroke-width="5"/><path d="m7778 5658v2" stroke-width="5"/><g stroke-width="7"><path d="m8489 8537v-618.96h113"/><path d="m8493 8537v-614.96h109"/><path d="m8515 8537v-593.96h87"/><path d="m11275 2885h-30.77v38h30.77"/><path d="m10182 2885h62v38"/><path d="m7682 5432v241h-188v-225h150v-16"/><path d="m7644 5482h-116v157h116v-157"/><path d="m7682 4228v254h-38v-15"/><path d="m7682 2923v1494"/><path d="m7644 3025v1263h-150v179h150"/><path d="m7644 4323h-116v109h116"/><path d="m7644 3563v-678h238v38h-200"/><path d="m8943 2885h-811v38h745"/><path d="m9407 2923h-100v-38h100v38"/><path d="m10244 2885v-10h-34"/><path d="m7882 2885v-13 13"/><path d="m8132 2885v-13 13"/><path d="m7644 5432h-166v196"/><path d="m9057 2885v-10h-114v5"/><path d="m7630 4273h14"/></g></g></g><g clip-path="url(#d)"><g fill="none" stroke="#000" stroke-miterlimit="10" stroke-width="2"><path d="m11275 3485h-116.77"/><path d="m11158 3486c-31.204 0-56.5-25.296-56.5-56.5s25.296-56.5 56.5-56.5"/><path d="m11275 3373h-116.77"/></g><g fill="#000000" font-family="Candara" font-size="88.485px"><text transform="matrix(1,0,0,-1,11026,3615)"><tspan x="0 48.578266 91.935913 146.44267 191.65851 236.87434" y="0">CLASSR</tspan></text><text transform="matrix(1,0,0,-1,11126,3522)"><tspan x="0 48.578266 70.876488 101.84624 132.81598" y="0">0-11 </tspan></text><text transform="matrix(1,0,0,-1,11207,3400)"><tspan x="0 48.578266" y="0">00</tspan></text><text transform="matrix(1,0,0,-1,11158,3279)"><tspan x="0 43.446136 74.415886" y="0">513</tspan></text></g><g fill="none" stroke="#000" stroke-miterlimit="10" stroke-width="2"><path d="m10638 7940c31.204 0 56.5 25.296 56.5 56.5s-25.296 56.5-56.5 56.5"/><path d="m10637 8052h-225"/><path d="m10412 8053c-31.204 0-56.5-25.296-56.5-56.5s25.296-56.5 56.5-56.5"/><path d="m10412 7940h225"/></g><g fill="#000000" font-family="Candara" font-size="88.485px"><text transform="matrix(1,0,0,-1,10281,8183)"><tspan x="0 48.578266 91.935913 146.44267 191.65851 236.87434 290.40778 351.81635 413.22495" y="0">CLASSROOM</tspan></text><text transform="matrix(1,0,0,-1,10300,8089)"><tspan x="0 47.162506 66.363747 115.0305 161.13118 215.63794 269.17136 288.37262 349.78122 393.13885" y="0">4 YEAR OLD</tspan></text><text transform="matrix(1,0,0,-1,10461,7968)"><tspan x="0 48.578266 79.548012" y="0">010</tspan></text><text transform="matrix(1,0,0,-1,10401,7846)"><tspan x="0 48.666752 90.520157 139.36388 158.56512 203.78096" y="0">876 SF</tspan></text></g><g fill="none" stroke="#000" stroke-miterlimit="10" stroke-width="2"><path d="m10446 6663c31.204 0 56.5 25.296 56.5 56.5s-25.296 56.5-56.5 56.5"/><path d="m10446 6775h-225"/><path d="m10222 6776c-31.204 0-56.5-25.296-56.5-56.5s25.296-56.5 56.5-56.5"/><path d="m10221 6662h225"/></g><text transform="matrix(1,0,0,-1,10112,6812)" fill="#000000" font-family="Candara" font-size="88.485px"><tspan x="0 53.533424 99.634109 144.84995 189.88881 243.42224 304.83081 366.23941" y="0">RESTROOM</tspan></text><text transform="matrix(1,0,0,-1,10242,6690)" fill="#000000" font-family="Candara" font-size="88.485px"><tspan x="0 48.578266 79.548012 128.12628" y="0">010A</tspan></text><g fill="none" stroke="#000" stroke-miterlimit="10" stroke-width="2"><path d="m10442 6053c31.204 0 56.5 25.296 56.5 56.5s-25.296 56.5-56.5 56.5"/><path d="m10442 6165h-225"/><path d="m10218 6166c-31.204 0-56.5-25.296-56.5-56.5s25.296-56.5 56.5-56.5"/><path d="m10217 6053h225"/></g><text transform="matrix(1,0,0,-1,10149,6202)" fill="#000000" font-family="Candara" font-size="88.485px"><tspan x="0 45.215836 90.2547 151.66328 205.19672 259.70346 314.65265" y="0">STORAGE</tspan></text><text transform="matrix(1,0,0,-1,10239,6080)" fill="#000000" font-family="Candara" font-size="88.485px"><tspan x="0 48.578266 79.548012 128.12628" y="0">010B</tspan></text><g fill="none" stroke="#000" stroke-miterlimit="10" stroke-width="2"><path d="m11082 4354c-31.204 0-56.5-25.296-56.5-56.5s25.296-56.5 56.5-56.5"/><path d="m11275 4353h-192.77"/><path d="m11275 4241h-192.77"/></g><text transform="matrix(1,0,0,-1,10975,4390)" fill="#000000" font-family="Candara" font-size="88.485px"><tspan x="0 53.533424 99.634109 144.84995 189.88881 243.42224" y="0">RESTRO</tspan></text><text transform="matrix(1,0,0,-1,11106,4268)" fill="#000000" font-family="Candara" font-size="88.485px"><tspan x="0 48.578266 97.156532 128.12628" y="0">001A</tspan></text><g fill="none" stroke="#000" stroke-miterlimit="10" stroke-width="2"><path d="m9561.5 4654c-31.204 0-56.5-25.296-56.5-56.5s25.296-56.5 56.5-56.5"/><path d="m9561 4654h225"/><path d="m9786.5 4541c31.204 0 56.5 25.296 56.5 56.5s-25.296 56.5-56.5 56.5"/><path d="m9786 4541h-225"/></g><text transform="matrix(1,0,0,-1,9412,4691)" fill="#000000" font-family="Candara" font-size="88.485px"><tspan x="0 75.566193 121.66688 170.24513 227.93736 282.44412 342.08301 366.50488 415.08313 469.5899" y="0">MECHANICAL</tspan></text><text transform="matrix(1,0,0,-1,9587,4569)" fill="#000000" font-family="Candara" font-size="88.485px"><tspan x="0 30.969749 79.548012 120.42809" y="0">102A</tspan></text><g fill="none" stroke="#000" stroke-miterlimit="10" stroke-width="2"><path d="m7908.5 7407c31.204 0 56.5 25.296 56.5 56.5s-25.296 56.5-56.5 56.5"/><path d="m7908 7519h-225"/><path d="m7683.5 7520c-31.204 0-56.5-25.296-56.5-56.5s25.296-56.5 56.5-56.5"/><path d="m7683 7407h225"/></g><g fill="#000000" font-family="Candara" font-size="88.485px"><text transform="matrix(1,0,0,-1,7479,7650)"><tspan x="0 75.566193 136.00145 179.3591 224.39796 248.81982 297.75201 358.18729 411.7207 460.65292 522.06152 567.27734 613.37799" y="0">MULTIPURPOSE </tspan></text><text transform="matrix(1,0,0,-1,7669,7556)"><tspan x="0 53.533424 114.94202 176.3506" y="0">ROOM</tspan></text><text transform="matrix(1,0,0,-1,7735,7435)"><tspan x="0 30.969749 79.548012" y="0">107</tspan></text><text transform="matrix(1,0,0,-1,7658,7314)"><tspan x="0 30.969749 53.267971 94.148041 125.11779 166.97119 186.17244 231.38828" y="0">1,217 SF</tspan></text></g><g fill="none" stroke="#000" stroke-miterlimit="10" stroke-width="2"><path d="m8100.5 5013c31.204 0 56.5 25.296 56.5 56.5s-25.296 56.5-56.5 56.5"/><path d="m8100 5125h-225"/><path d="m7875.5 5126c-31.204 0-56.5-25.296-56.5-56.5s25.296-56.5 56.5-56.5"/><path d="m7875 5013h225"/></g><text transform="matrix(1,0,0,-1,7771,5162)" fill="#000000" font-family="Candara" font-size="88.485px"><tspan x="0 53.533424 99.634109 148.21237 194.31306 243.24527 288.28412 312.70599 374.11459" y="0">RECEPTION</tspan></text><text transform="matrix(1,0,0,-1,7924,5040)" fill="#000000" font-family="Candara" font-size="88.485px"><tspan x="0 30.969749 79.548012" y="0">100</tspan></text><g fill="none" stroke="#000" stroke-miterlimit="10" stroke-width="2"><path d="m9764.5 3715c31.204 0 56.5 25.296 56.5 56.5s-25.296 56.5-56.5 56.5"/><path d="m9764 3828h-225"/><path d="m9539.5 3828c-31.204 0-56.5-25.296-56.5-56.5s25.296-56.5 56.5-56.5"/><path d="m9539 3715h225"/></g><text transform="matrix(1,0,0,-1,9457,3865)" fill="#000000" font-family="Candara" font-size="88.485px"><tspan x="0 56.895855 81.317719 134.85114 180.95183 229.53009 274.56897 335.97754" y="0">DIRECTOR</tspan></text><text transform="matrix(1,0,0,-1,9591,3743)" fill="#000000" font-family="Candara" font-size="88.485px"><tspan x="0 30.969749 79.548012" y="0">102</tspan></text><g fill="none" stroke="#000" stroke-miterlimit="10" stroke-width="2"><path d="m8132.5 3617c31.204 0 56.5 25.296 56.5 56.5s-25.296 56.5-56.5 56.5"/><path d="m8132 3729h-225"/><path d="m7907.5 3730c-31.204 0-56.5-25.296-56.5-56.5s25.296-56.5 56.5-56.5"/><path d="m7907 3616h225"/></g><text transform="matrix(1,0,0,-1,7765,3766)" fill="#000000" font-family="Candara" font-size="88.485px"><tspan x="0 51.852211 105.38564 151.48631 205.99307 258.37619 311.90964 373.31821 434.72681" y="0">BREAKROOM</tspan></text><text transform="matrix(1,0,0,-1,7959,3644)" fill="#000000" font-family="Candara" font-size="88.485px"><tspan x="0 30.969749 79.548012" y="0">103</tspan></text><g fill="none" stroke="#000" stroke-miterlimit="10" stroke-width="2"><path d="m8236.1 2405.3 4.468 8.234 3.293 10.605 1.147 11.387-1.147 11.386-3.293 10.606-5.208 9.597-6.9 8.362-8.361 6.9-9.599 5.209-10.605 3.292-11.386 1.148"/><path d="m8188 2491h-225"/><path d="m7915.9 2405.3-4.469 8.234-3.293 10.605-1.147 11.387 1.147 11.386 3.293 10.606 5.209 9.597 6.899 8.362 8.362 6.9 9.598 5.209 10.604 3.292 11.388 1.148"/></g><text transform="matrix(1,0,0,-1,7908,2528)" fill="#000000" font-family="Candara" font-size="88.485px"><tspan x="0 36.809761 91.316521 150.95541 175.37727 220.41614 281.82474" y="0">JANITOR</tspan></text><text transform="matrix(1,0,0,-1,8013,2406)" fill="#000000" font-family="Candara" font-size="88.485px"><tspan x="0 30.969749 79.548012" y="0">104</tspan></text><g fill="none" stroke="#000" stroke-miterlimit="10" stroke-width="2"><path d="m8906.1 2405.3 4.468 8.234 3.292 10.605 1.148 11.387-1.148 11.386-3.292 10.606-5.208 9.597-6.9 8.362-8.361 6.9-9.598 5.209-10.605 3.292-11.387 1.148"/><path d="m8858 2491h-225"/><path d="m8585.9 2405.3-4.47 8.234-3.291 10.605-1.147 11.387 1.147 11.386 3.291 10.606 5.211 9.597 6.899 8.362 8.362 6.9 9.598 5.209 10.604 3.292 11.388 1.148"/></g><text transform="matrix(1,0,0,-1,8540,2528)" fill="#000000" font-family="Candara" font-size="88.485px"><tspan x="0 43.269165 67.691025 121.22445 167.32513 186.52638 240.0598 264.48166 309.69751 355.79819" y="0">FIRE RISER</tspan></text><text transform="matrix(1,0,0,-1,8684,2406)" fill="#000000" font-family="Candara" font-size="88.485px"><tspan x="0 30.969749 79.548012" y="0">105</tspan></text><g fill="none" stroke="#000" stroke-miterlimit="10" stroke-width="2"><path d="m9655.7 2405.3 4.375 2.375 8.361 6.899 6.9 8.362 5.21 9.598 3.292 10.605 1.147 11.387-1.147 11.386-3.292 10.606-5.21 9.598-6.9 8.361-8.361 6.9-9.598 5.209-10.605 3.292-11.387 1.148"/><path d="m9628 2511h-225"/><path d="m9376.3 2405.3-4.375 2.375-8.36 6.899-6.9 8.362-5.209 9.598-3.292 10.605-1.148 11.387 1.148 11.386 3.292 10.606 5.209 9.598 6.9 8.361 8.36 6.9 9.598 5.209 10.606 3.292 11.386 1.148"/></g><text transform="matrix(1,0,0,-1,9288,2548)" fill="#000000" font-family="Candara" font-size="88.485px"><tspan x="0 46.100685 89.458336 135.55902 184.13728 229.17615 282.70956 307.13144 355.70969 410.21646" y="0">ELECTRICAL</tspan></text><text transform="matrix(1,0,0,-1,9451,2426)" fill="#000000" font-family="Candara" font-size="88.485px"><tspan x="0 30.969749 79.548012" y="0">106</tspan></text><path d="m7235 3758.9 2.865 9.229 1.148 11.387-1.148 11.386-2.865 9.23" fill="none" stroke="#000" stroke-miterlimit="10" stroke-width="2"/><text transform="matrix(1 0 0 -1 7215.2 3872)" fill="#000000" font-family="Candara" font-size="88.485px"><tspan x="0" y="0">M</tspan></text><g fill="none" stroke="#000" stroke-miterlimit="10" stroke-width="2"><path d="m7987.5 6384c31.204 0 56.5 25.296 56.5 56.5s-25.296 56.5-56.5 56.5"/><path d="m7987 6496h-225"/><path d="m7762.5 6497c-31.204 0-56.5-25.296-56.5-56.5s25.296-56.5 56.5-56.5"/><path d="m7762 6384h225"/></g><text transform="matrix(1,0,0,-1,7654,6533)" fill="#000000" font-family="Candara" font-size="88.485px"><tspan x="0 53.533424 99.634109 144.84995 189.88881 243.42224 304.83081 366.23941" y="0">RESTROOM</tspan></text><text transform="matrix(1,0,0,-1,7787,6411)" fill="#000000" font-family="Candara" font-size="88.485px"><tspan x="0 30.969749 79.548012 121.40142" y="0">107A</tspan></text><g fill="none" stroke="#000" stroke-miterlimit="10" stroke-width="2"><path d="m9211.5 6516c31.204 0 56.5 25.296 56.5 56.5s-25.296 56.5-56.5 56.5"/><path d="m9211 6628h-225"/><path d="m8986.5 6629c-31.204 0-56.5-25.296-56.5-56.5s25.296-56.5 56.5-56.5"/><path d="m8986 6516h225"/></g><text transform="matrix(1,0,0,-1,8918,6665)" fill="#000000" font-family="Candara" font-size="88.485px"><tspan x="0 45.215836 90.2547 151.66328 205.19672 259.70346 314.65265" y="0">STORAGE</tspan></text><text transform="matrix(1,0,0,-1,9034,6543)" fill="#000000" font-family="Candara" font-size="88.485px"><tspan x="0 30.969749 79.548012" y="0">108</tspan></text><g fill="none" stroke="#000" stroke-miterlimit="10" stroke-width="2"><path d="m9119.5 7899c31.204 0 56.5 25.296 56.5 56.5s-25.296 56.5-56.5 56.5"/><path d="m9119 8011h-225"/><path d="m8894.5 8012c-31.204 0-56.5-25.296-56.5-56.5s25.296-56.5 56.5-56.5"/><path d="m8894 7898h225"/></g><text transform="matrix(1,0,0,-1,8839,8048)" fill="#000000" font-family="Candara" font-size="88.485px"><tspan x="0 52.383121 76.804977 121.84384 170.4221 228.11433 274.21503" y="0">KITCHEN</tspan></text><text transform="matrix(1,0,0,-1,8942,7926)" fill="#000000" font-family="Candara" font-size="88.485px"><tspan x="0 30.969749 79.548012" y="0">109</tspan></text><g fill="none" stroke="#000" stroke-miterlimit="10" stroke-width="2"><path d="m10960 5101c31.204 0 56.5 25.296 56.5 56.5s-25.296 56.5-56.5 56.5"/><path d="m10960 5213h-225"/><path d="m10736 5214c-31.204 0-56.5-25.296-56.5-56.5s25.296-56.5 56.5-56.5"/><path d="m10735 5101h225"/></g><text transform="matrix(1,0,0,-1,10626,5250)" fill="#000000" font-family="Candara" font-size="88.485px"><tspan x="0 53.533424 99.634109 144.84995 189.88881 243.42224 304.83081 366.23941" y="0">RESTROOM</tspan></text><text transform="matrix(1,0,0,-1,10747,5128)" fill="#000000" font-family="Candara" font-size="88.485px"><tspan x="0 48.578266 97.156532 145.7348" y="0">000A</tspan></text><g fill="none" stroke="#000" stroke-miterlimit="10" stroke-width="2"><path d="m9110.5 6943c31.204 0 56.5 25.296 56.5 56.5s-25.296 56.5-56.5 56.5"/><path d="m9110 7055h-225"/><path d="m8885.5 7056c-31.204 0-56.5-25.296-56.5-56.5s25.296-56.5 56.5-56.5"/><path d="m8885 6943h225"/></g><text transform="matrix(1,0,0,-1,8817,7092)" fill="#000000" font-family="Candara" font-size="88.485px"><tspan x="0 45.215836 90.2547 151.66328 205.19672 259.70346 314.65265" y="0">STORAGE</tspan></text><text transform="matrix(1,0,0,-1,8942,6971)" fill="#000000" font-family="Candara" font-size="88.485px"><tspan x="0 30.969749 61.939499" y="0">110</tspan></text><path d="m11275 3128h-891.77" fill="none" stroke="#000" stroke-miterlimit="10" stroke-width="2"/><path d="m10216 2946-30-23 21 31z" stroke="#000" stroke-miterlimit="10" stroke-width="6.25"/><path d="m11275 3128h-891.77l-171-178" fill="none" stroke="#000" stroke-miterlimit="10" stroke-width="2"/><path d="m10810 3184-33-56" fill="none" stroke="#fff" stroke-linecap="round" stroke-linejoin="round" stroke-miterlimit="10" stroke-width="6.25"/><path d="m10989 3128-32-56v112zm-32-56v112l-147-112zm0 112-147-112v112zm-147-112v112l-33-56z" fill="#fff" stroke="#fff" stroke-linecap="round" stroke-miterlimit="10" stroke-width="6.25"/><path d="m10810 3072h147l32 56-32 56h-147l-33-56 33-56" fill="none" stroke="#000" stroke-miterlimit="10" stroke-width="2"/><text transform="matrix(1,0,0,-1,10805,3100)" fill="#000000" font-family="Candara" font-size="88.485px"><tspan x="0 48.932205 93.971069 116.26929" y="0">PT-2</tspan></text><path d="m10345 8501v35.96h-100.22l-46.78-35.96v35.96h-20.55l20.55-35.96v35.96h46.78l-46.78-35.96h147v35.96h21.19z" fill="#fff" fill-rule="evenodd"/><path d="m10366 8537-21.19-35.96v35.96m0 0.833v-36.793h-147l46.78 35.96m0 0.833-46.78-36.793v35.96m0 0.833v-36.793l-20.55 35.96" fill="none" stroke="#fff" stroke-linecap="round" stroke-miterlimit="10" stroke-width="6.25"/><path d="m10366 8537-21.19-35.96h-147m-20.55 35.96 20.55-35.96" fill="none" stroke="#000" stroke-miterlimit="10" stroke-width="2"/><text transform="matrix(1,0,0,-1,10193,8529)" fill="#000000" font-family="Candara" font-size="88.485px"><tspan x="0 48.932205 93.971069 116.26929" y="0">PT-7</tspan></text><path d="m9176 8537v-1053h-340v1053" fill="none" stroke="#000" stroke-miterlimit="10" stroke-width="2"/><path d="m9080 8501v35.96h-100.9l-47.098-35.96v35.96h-20.548l20.548-35.96v35.96h47.098l-47.098-35.96h148v35.96h20.549z" fill="#fff" fill-rule="evenodd"/><path d="m9100.5 8537-20.549-35.96v35.96m0 0.833v-36.793h-148l47.098 35.96m0 0.833-47.098-36.793v35.96m0 0.833v-36.793l-20.548 35.96" fill="none" stroke="#fff" stroke-linecap="round" stroke-miterlimit="10" stroke-width="6.25"/><path d="m9100.5 8537-20.549-35.96h-148m-20.548 35.96 20.548-35.96" fill="none" stroke="#000" stroke-miterlimit="10" stroke-width="2"/><text transform="matrix(1,0,0,-1,8933,8529)" fill="#000000" font-family="Candara" font-size="88.485px"><tspan x="0 43.269165 96.802589" y="0">FRP</tspan></text><path d="m9359 7310 22-31-31 23z" stroke="#000" stroke-miterlimit="10" stroke-width="6.25"/><path d="m9354 7306-178 178 205-205" fill="none" stroke="#000" stroke-miterlimit="10" stroke-width="2"/><path d="m7892 7215 31 22-22-31z" stroke="#000" stroke-miterlimit="10" stroke-width="6.25"/><g fill="none" stroke-miterlimit="10"><path d="m7897 7210-172-178h-397" stroke="#000" stroke-width="2"/><path d="m7235 6935.7 93.013 96.277h397" stroke="#000" stroke-width="2"/><path d="m7453 7089-32-57" stroke="#fff" stroke-linecap="round" stroke-linejoin="round" stroke-width="6.25"/></g><path d="m7633 7032-33-56v113zm-33-56v113l-147-113zm0 113-147-113v113zm-147-113v113l-32-57z" fill="#fff" stroke="#fff" stroke-linecap="round" stroke-miterlimit="10" stroke-width="6.25"/><path d="m7453 6976h147l33 56-33 57h-147l-32-57 32-56" fill="none" stroke="#000" stroke-miterlimit="10" stroke-width="2"/><text transform="matrix(1,0,0,-1,7454,7004)" fill="#000000" font-family="Candara" font-size="88.485px"><tspan x="0 48.932205 92.289856 114.58807" y="0">PL-1</tspan></text><path d="m10610 7544 31 23-22-32z" stroke="#000" stroke-miterlimit="10" stroke-width="6.25"/><path d="m10615 7540-172-178h-397" fill="none" stroke="#000" stroke-miterlimit="10" stroke-width="2"/><path d="m9879 7180-30-23 21 32z" stroke="#000" stroke-miterlimit="10" stroke-width="6.25"/><path d="m9875 7184 171 178h397" fill="none" stroke="#000" stroke-miterlimit="10" stroke-width="2"/><path d="m10171 7418-32-56" fill="none" stroke="#fff" stroke-linecap="round" stroke-linejoin="round" stroke-miterlimit="10" stroke-width="6.25"/><path d="m10351 7362-32-56v112zm-32-56v112l-148-112zm0 112-148-112v112zm-148-112v112l-32-56z" fill="#fff" stroke="#fff" stroke-linecap="round" stroke-miterlimit="10" stroke-width="6.25"/><path d="m10171 7306h148l32 56-32 56h-148l-32-56 32-56" fill="none" stroke="#000" stroke-miterlimit="10" stroke-width="2"/><text transform="matrix(1,0,0,-1,10172,7334)" fill="#000000" font-family="Candara" font-size="88.485px"><tspan x="0 48.932205 92.289856 114.58807" y="0">PL-1</tspan></text><path d="m11155 4130 31 23-22-31z" stroke="#000" stroke-miterlimit="10" stroke-width="6.25"/><path d="m11160 4126-172-178h-397" fill="none" stroke="#000" stroke-miterlimit="10" stroke-width="2"/><path d="m10424 3766-30-23 21 32z" stroke="#000" stroke-miterlimit="10" stroke-width="6.25"/><path d="m10420 3770 171 178h397" fill="none" stroke="#000" stroke-miterlimit="10" stroke-width="2"/><path d="m10716 4004-32-56" fill="none" stroke="#fff" stroke-linecap="round" stroke-linejoin="round" stroke-miterlimit="10" stroke-width="6.25"/><path d="m10896 3948-33-56v112zm-33-56v112l-147-112zm0 112-147-112v112zm-147-112v112l-32-56z" fill="#fff" stroke="#fff" stroke-linecap="round" stroke-miterlimit="10" stroke-width="6.25"/><path d="m10716 3892h147l33 56-33 56h-147l-32-56 32-56" fill="none" stroke="#000" stroke-miterlimit="10" stroke-width="2"/><text transform="matrix(1,0,0,-1,10717,3920)" fill="#000000" font-family="Candara" font-size="88.485px"><tspan x="0 48.932205 92.289856 114.58807" y="0">PL-1</tspan></text><path d="m9100 4934 31 23-22-31z" stroke="#000" stroke-miterlimit="10" stroke-width="6.25"/><path d="m9105 4930-172-178h-397" fill="none" stroke="#000" stroke-miterlimit="10" stroke-width="2"/><path d="m8369 4570-30-22 21 31z" stroke="#000" stroke-miterlimit="10" stroke-width="6.25"/><path d="m8365 4575 171 177h397" fill="none" stroke="#000" stroke-miterlimit="10" stroke-width="2"/><path d="m8661 4809-32-57" fill="none" stroke="#fff" stroke-linecap="round" stroke-linejoin="round" stroke-miterlimit="10" stroke-width="6.25"/><path d="m8841 4752-33-56v113zm-33-56v113l-147-113zm0 113-147-113v113zm-147-113v113l-32-57z" fill="#fff" stroke="#fff" stroke-linecap="round" stroke-miterlimit="10" stroke-width="6.25"/><path d="m8661 4696h147l33 56-33 57h-147l-32-57 32-56" fill="none" stroke="#000" stroke-miterlimit="10" stroke-width="2"/><text transform="matrix(1,0,0,-1,8662,4724)" fill="#000000" font-family="Candara" font-size="88.485px"><tspan x="0 48.932205 92.289856 114.58807" y="0">PL-1</tspan></text><path d="m9764 6497 6-4 7 18zm6-4 7 18v-19zm7 18v-19l7 1z" stroke="#000" stroke-miterlimit="10" stroke-width="6.25"/><path d="m9784 6493 6 5-13 13zm6 5-13 13 17-7zm-13 13 17-7 1 7z" stroke="#000" stroke-miterlimit="10" stroke-width="6.25"/><path d="m9795 6511-1 7-17-7zm-1 7-17-7 13 13zm-17-7 13 13-6 4z" stroke="#000" stroke-miterlimit="10" stroke-width="6.25"/><path d="m9784 6528-8 1 1-18zm-8 1 1-18-8 17zm1-18-8 17-6-4z" stroke="#000" stroke-miterlimit="10" stroke-width="6.25"/><path d="m9763 6524-4-7 18-6zm-4-7 18-6-19-1zm18-6-19-1 1-7z" stroke="#000" stroke-miterlimit="10" stroke-width="6.25"/><path d="m9759 6503 5-6 13 14z" stroke="#000" stroke-miterlimit="10" stroke-width="6.25"/><path d="m9790 6524 13 14 171 177h190" fill="none" stroke="#000" stroke-miterlimit="10" stroke-width="2"/><path d="m9760 5891 6-4 7 17zm6-4 7 17v-18zm7 17v-18l7 1z" stroke="#000" stroke-miterlimit="10" stroke-width="6.25"/><path d="m9780 5887 6 4-13 13zm6 4-13 13 17-7zm-13 13 17-7 1 8z" stroke="#000" stroke-miterlimit="10" stroke-width="6.25"/><path d="m9791 5905-1 7-17-8zm-1 7-17-8 13 14zm-17-8 13 14-6 4z" stroke="#000" stroke-miterlimit="10" stroke-width="6.25"/><path d="m9780 5922-8 1 1-19zm-8 1 1-19-8 18zm1-19-8 18-6-5z" stroke="#000" stroke-miterlimit="10" stroke-width="6.25"/><path d="m9759 5917-4-6 18-7zm-4-6 18-7h-19zm18-7h-19l1-7z" stroke="#000" stroke-miterlimit="10" stroke-width="6.25"/><path d="m9755 5897 5-6 13 13z" stroke="#000" stroke-miterlimit="10" stroke-width="6.25"/><path d="m9786 5918 13 13 171 178h190" fill="none" stroke="#000" stroke-miterlimit="10" stroke-width="2"/><path d="m10625 4515-4-6 17-7zm-4-6 17-7h-18zm17-7h-18l1-7z" stroke="#000" stroke-miterlimit="10" stroke-width="6.25"/><path d="m10621 4495 4-6 13 13zm4-6 13 13-7-17zm13 13-7-17 7-2z" stroke="#000" stroke-miterlimit="10" stroke-width="6.25"/><path d="m10638 4483 7 1-7 18zm7 1-7 18 14-14zm-7 18 14-14 4 6z" stroke="#000" stroke-miterlimit="10" stroke-width="6.25"/><path d="m10656 4494 1 7-19 1zm1 7-19 1 18 7zm-19 1 18 7-4 6z" stroke="#000" stroke-miterlimit="10" stroke-width="6.25"/><path d="m10652 4515-6 4-8-17zm-6 4-8-17 1 19zm-8-17 1 19-7-2z" stroke="#000" stroke-miterlimit="10" stroke-width="6.25"/><path d="m10632 4519-7-4 13-13z" stroke="#000" stroke-miterlimit="10" stroke-width="6.25"/><path d="m10652 4488 13-13 171-178h190" fill="none" stroke="#000" stroke-miterlimit="10" stroke-width="2"/><path d="m10278 4939 6-4 7 17zm6-4 7 17v-19zm7 17v-19l7 2z" stroke="#000" stroke-miterlimit="10" stroke-width="6.25"/><path d="m10298 4935 6 4-13 13zm6 4-13 13 17-7zm-13 13 17-7 2 8z" stroke="#000" stroke-miterlimit="10" stroke-width="6.25"/><path d="m10310 4953-2 7-17-8zm-2 7-17-8 13 14zm-17-8 13 14-6 4z" stroke="#000" stroke-miterlimit="10" stroke-width="6.25"/><path d="m10298 4970-8 1 1-19zm-8 1 1-19-8 17zm1-19-8 17-6-4z" stroke="#000" stroke-miterlimit="10" stroke-width="6.25"/><path d="m10277 4965-4-6 18-7zm-4-6 18-7h-19zm18-7h-19l2-7z" stroke="#000" stroke-miterlimit="10" stroke-width="6.25"/><path d="m10274 4945 4-6 13 13z" stroke="#000" stroke-miterlimit="10" stroke-width="6.25"/><path d="m10304 4966 13 13 171 178h191" fill="none" stroke="#000" stroke-miterlimit="10" stroke-width="2"/><path d="m8609 2991-7 1 2-19zm-7 1 2-19-9 17zm2-19-9 17-6-5z" stroke="#000" stroke-miterlimit="10" stroke-width="6.25"/><path d="m8589 2985-3-6 18-6zm-3-6 18-6-19-1zm18-6-19-1 2-7z" stroke="#000" stroke-miterlimit="10" stroke-width="6.25"/><path d="m8587 2965 5-6 12 14zm5-6 12 14-6-18zm12 14-6-18h7z" stroke="#000" stroke-miterlimit="10" stroke-width="6.25"/><path d="m8605 2955 8 2-9 16zm8 2-9 16 14-12zm-9 16 14-12 4 7z" stroke="#000" stroke-miterlimit="10" stroke-width="6.25"/><path d="m8622 2968 1 7-19-2zm1 7-19-2 16 9zm-19-2 16 9-4 6z" stroke="#000" stroke-miterlimit="10" stroke-width="6.25"/><path d="m8616 2988-7 3-5-18z" stroke="#000" stroke-miterlimit="10" stroke-width="6.25"/><path d="m8598 2955-5-17-158-503h-190" fill="none" stroke="#000" stroke-miterlimit="10" stroke-width="2"/><path d="m9226 2992h-7l3-19zm-7 0 3-19-10 16zm3-19-10 16-5-5z" stroke="#000" stroke-miterlimit="10" stroke-width="6.25"/><path d="m9207 2984-3-7 18-4zm-3-7 18-4-18-3zm18-4-18-3 2-7z" stroke="#000" stroke-miterlimit="10" stroke-width="6.25"/><path d="m9206 2963 5-5 11 15zm5-5 11 15-4-18zm11 15-4-18h7z" stroke="#000" stroke-miterlimit="10" stroke-width="6.25"/><path d="m9225 2955 7 3-10 15zm7 3-10 15 15-10zm-10 15 15-10 3 6z" stroke="#000" stroke-miterlimit="10" stroke-width="6.25"/><path d="m9240 2969 1 8-19-4zm1 8-19-4 16 10zm-19-4 16 10-5 6z" stroke="#000" stroke-miterlimit="10" stroke-width="6.25"/><path d="m9233 2989-7 3-4-19z" stroke="#000" stroke-miterlimit="10" stroke-width="6.25"/><path d="m9218 2955-4-18-110-500h-190" fill="none" stroke="#000" stroke-miterlimit="10" stroke-width="2"/><path d="m10002 3008h-7l3-18zm-7 0 3-18-10 16zm3-18-10 16-5-5z" stroke="#000" stroke-miterlimit="10" stroke-width="6.25"/><path d="m9983 3001-3-7 18-4zm-3-7 18-4-18-3zm18-4-18-3 2-7z" stroke="#000" stroke-miterlimit="10" stroke-width="6.25"/><path d="m9982 2980 5-6 11 16zm5-6 11 16-4-19zm11 16-4-19h7z" stroke="#000" stroke-miterlimit="10" stroke-width="6.25"/><path d="m10001 2971 7 3-10 16zm7 3-10 16 15-11zm-10 16 15-11 3 6z" stroke="#000" stroke-miterlimit="10" stroke-width="6.25"/><path d="m10016 2985 1 8-19-3zm1 8-19-3 16 10zm-19-3 16 10-5 5z" stroke="#000" stroke-miterlimit="10" stroke-width="6.25"/><path d="m10009 3005-7 3-4-18z" stroke="#000" stroke-miterlimit="10" stroke-width="6.25"/><path d="m9994 2971-4-18-116-499h-190" fill="none" stroke="#000" stroke-miterlimit="10" stroke-width="2"/><path d="m7759 4173-6 4-6-18zm-6 4-6-18-1 18zm-6-18-1 18-7-2z" stroke="#000" stroke-miterlimit="10" stroke-width="6.25"/><path d="m7739 4175-6-4 14-12zm-6-4 14-12-17 5zm14-12-17 5-1-7z" stroke="#000" stroke-miterlimit="10" stroke-width="6.25"/><path d="m7729 4157 2-7 16 9zm2-7 16 9-12-15zm16 9-12-15 7-3z" stroke="#000" stroke-miterlimit="10" stroke-width="6.25"/><path d="m7742 4141 7-1-2 19zm7-1-2 19 9-17zm-2 19 9-17 6 5z" stroke="#000" stroke-miterlimit="10" stroke-width="6.25"/><path d="m7762 4147 3 6-18 6zm3 6-18 6 19 1zm-18 6 19 1-2 7z" stroke="#000" stroke-miterlimit="10" stroke-width="6.25"/><path d="m7764 4167-5 6-12-14z" stroke="#000" stroke-miterlimit="10" stroke-width="6.25"/><path d="m7735 4144-12-14-294-351h-190" fill="none" stroke="#000" stroke-miterlimit="10" stroke-width="2"/><path d="m8444 6222 4 6-17 7zm4 6-17 7h19zm-17 7h19l-1 7z" stroke="#000" stroke-miterlimit="10" stroke-width="6.25"/><path d="m8449 6242-4 6-14-13zm-4 6-14-13 8 17zm-14-13 8 17-7 2z" stroke="#000" stroke-miterlimit="10" stroke-width="6.25"/><path d="m8432 6254-8-2 7-17zm-8-2 7-17-13 14zm7-17-13 14-4-6z" stroke="#000" stroke-miterlimit="10" stroke-width="6.25"/><path d="m8414 6243-1-8h18zm-1-8h18l-17-7zm18 0-17-7 4-6z" stroke="#000" stroke-miterlimit="10" stroke-width="6.25"/><path d="m8418 6222 6-4 7 17zm6-4 7 17v-19zm7 17v-19l7 2z" stroke="#000" stroke-miterlimit="10" stroke-width="6.25"/><path d="m8438 6218 6 4-13 13z" stroke="#000" stroke-miterlimit="10" stroke-width="6.25"/><path d="m8418 6249-13 13-171 178h-190" fill="none" stroke="#000" stroke-miterlimit="10" stroke-width="2"/><path d="m8445 6223h278v-476h-278v476" fill="none" stroke="#000" stroke-miterlimit="10" stroke-width="2"/><path d="m8772 5706 22-31-31 22z" stroke="#000" stroke-miterlimit="10" stroke-width="6.25"/><path d="m8768 5702-46 46 72-73" fill="none" stroke="#000" stroke-miterlimit="10" stroke-width="2"/><path d="m8667 5911 56-32" fill="none" stroke="#fff" stroke-linecap="round" stroke-linejoin="round" stroke-miterlimit="10" stroke-width="6.25"/><path d="m8723 6091 56-33h-112zm56-33h-112l112-147zm-112 0 112-147h-112zm112-147h-112l56-32z" fill="#fff" stroke="#fff" stroke-linecap="round" stroke-miterlimit="10" stroke-width="6.25"/><path d="m8779 5911v147l-56 33-56-33v-147l56-32 56 32" fill="none" stroke="#000" stroke-miterlimit="10" stroke-width="2"/><text transform="matrix(0,1,1,0,8751,5911)" fill="#000000" font-family="Candara" font-size="88.485px"><tspan x="0 48.578266 93.617126 115.91535" y="0">CT-1</tspan></text><path d="m9494 6555h277v-477h-277v477" fill="none" stroke="#000" stroke-miterlimit="10" stroke-width="2"/><path d="m9821 6037 22-30-31 22z" stroke="#000" stroke-miterlimit="10" stroke-width="6.25"/><path d="m9816 6033-46 46 73-72" fill="none" stroke="#000" stroke-miterlimit="10" stroke-width="2"/><path d="m9715 6243 56-33" fill="none" stroke="#fff" stroke-linecap="round" stroke-linejoin="round" stroke-miterlimit="10" stroke-width="6.25"/><path d="m9771 6422 57-32h-113zm57-32h-113l113-147zm-113 0 113-147h-113zm113-147h-113l56-33z" fill="#fff" stroke="#fff" stroke-linecap="round" stroke-miterlimit="10" stroke-width="6.25"/><path d="m9828 6243v147l-57 32-56-32v-147l56-33 57 33" fill="none" stroke="#000" stroke-miterlimit="10" stroke-width="2"/><text transform="matrix(0,1,1,0,9800,6243)" fill="#000000" font-family="Candara" font-size="88.485px"><tspan x="0 48.578266 93.617126 115.91535" y="0">CT-1</tspan></text><path d="m10045 4965h278v-476h-278v476" fill="none" stroke="#000" stroke-miterlimit="10" stroke-width="2"/><path d="m10372 4448 22-31-31 22z" stroke="#000" stroke-miterlimit="10" stroke-width="6.25"/><path d="m10367 4444-46 46 73-73" fill="none" stroke="#000" stroke-miterlimit="10" stroke-width="2"/><path d="m10266 4653 57-32" fill="none" stroke="#fff" stroke-linecap="round" stroke-linejoin="round" stroke-miterlimit="10" stroke-width="6.25"/><path d="m10323 4833 56-32h-113zm56-32h-113l113-148zm-113 0 113-148h-113zm113-148h-113l57-32z" fill="#fff" stroke="#fff" stroke-linecap="round" stroke-miterlimit="10" stroke-width="6.25"/><path d="m10379 4653v148l-56 32-57-32v-148l57-32 56 32" fill="none" stroke="#000" stroke-miterlimit="10" stroke-width="2"/><text transform="matrix(0,1,1,0,10351,4654)" fill="#000000" font-family="Candara" font-size="88.485px"><tspan x="0 48.578266 93.617126 115.91535" y="0">CT-1</tspan></text><path d="m10565 4965h278v-476h-278v476" fill="none" stroke="#000" stroke-miterlimit="10" stroke-width="2"/><path d="m10892 4448 22-31-30 22z" stroke="#000" stroke-miterlimit="10" stroke-width="6.25"/><path d="m10888 4444-46 46 72-73" fill="none" stroke="#000" stroke-miterlimit="10" stroke-width="2"/><path d="m10787 4653 56-32" fill="none" stroke="#fff" stroke-linecap="round" stroke-linejoin="round" stroke-miterlimit="10" stroke-width="6.25"/><path d="m10843 4833 56-32h-112zm56-32h-112l112-148zm-112 0 112-148h-112zm112-148h-112l56-32z" fill="#fff" stroke="#fff" stroke-linecap="round" stroke-miterlimit="10" stroke-width="6.25"/><path d="m10899 4653v148l-56 32-56-32v-148l56-32 56 32" fill="none" stroke="#000" stroke-miterlimit="10" stroke-width="2"/><text transform="matrix(0,1,1,0,10871,4654)" fill="#000000" font-family="Candara" font-size="88.485px"><tspan x="0 48.578266 93.617126 115.91535" y="0">CT-1</tspan></text><path d="m7742 4337h426v-361h-426v361" fill="none" stroke="#000" stroke-miterlimit="10" stroke-width="2"/><path d="m8217 3936 22-31-31 22z" stroke="#000" stroke-miterlimit="10" stroke-width="6.25"/><path d="m8213 3931-46 46 72-72" fill="none" stroke="#000" stroke-miterlimit="10" stroke-width="2"/><path d="m8112 4083 56-32" fill="none" stroke="#fff" stroke-linecap="round" stroke-linejoin="round" stroke-miterlimit="10" stroke-width="6.25"/><path d="m8168 4263 56-33h-112zm56-33h-112l112-147zm-112 0 112-147h-112zm112-147h-112l56-32z" fill="#fff" stroke="#fff" stroke-linecap="round" stroke-miterlimit="10" stroke-width="6.25"/><path d="m8224 4083v147l-56 33-56-33v-147l56-32 56 32" fill="none" stroke="#000" stroke-miterlimit="10" stroke-width="2"/><text transform="matrix(0,1,1,0,8196,4083)" fill="#000000" font-family="Candara" font-size="88.485px"><tspan x="0 48.578266 93.617126 115.91535" y="0">CT-1</tspan></text><path d="m8687 7209h623v-308h-623v308" fill="none" stroke="#000" stroke-miterlimit="10" stroke-width="2"/><path d="m9359 6860 22-31-31 22z" stroke="#000" stroke-miterlimit="10" stroke-width="6.25"/><path d="m9354 6856-46 46 73-73" fill="none" stroke="#000" stroke-miterlimit="10" stroke-width="2"/><path d="m9253 6959 57-32" fill="none" stroke="#fff" stroke-linecap="round" stroke-linejoin="round" stroke-miterlimit="10" stroke-width="6.25"/><path d="m9310 7139 56-32h-113zm56-32h-113l113-148zm-113 0 113-148h-113zm113-148h-113l57-32z" fill="#fff" stroke="#fff" stroke-linecap="round" stroke-miterlimit="10" stroke-width="6.25"/><path d="m9366 6959v148l-56 32-57-32v-148l57-32 56 32" fill="none" stroke="#000" stroke-miterlimit="10" stroke-width="2"/><text transform="matrix(0,1,1,0,9338,6960)" fill="#000000" font-family="Candara" font-size="88.485px"><tspan x="0 43.269165 96.802589" y="0">FRP</tspan></text></g></g></g></g></g></g></g></svg>
