<svg xmlns="http://www.w3.org/2000/svg" viewBox="0 0 646.36 981.07"><defs><clipPath id="a"><path d="M868.2 288.63h484.77v735.8H868.2z"/></clipPath><clipPath id="b"><path d="M868.2 1024.4V288.6h484.77v735.8z" clip-rule="evenodd"/></clipPath><clipPath id="c"><path d="M7235 2405.3h4039.8V8537H7235z" clip-rule="evenodd"/></clipPath><clipPath id="d"><path d="M7235 2405.3h4039.8V8537H7235z" clip-rule="evenodd"/></clipPath></defs><g clip-path="url(#a)" transform="matrix(1.3333 0 0 -1.3333 -1157.573 1365.851)"><g clip-path="url(#b)"><g clip-path="url(#c)" transform="scale(.12)"><g fill="none" stroke="#000" stroke-miterlimit="10"><g stroke-width="4"><path d="M11230 2885h-236M10994 2916h236M10982 2885h-238M10744 2916h238M10732 2885h-236M10496 2916h236M11244 2875h-748v48h747"/></g><g stroke-width="7"><path d="M9411 6613h461v-331h-29v301h-420v-576h420v25h29v-75h-29v20h-432v-339h432v69h29v-69h821v-30H9411"/><path d="M9407 6613v-4h461v-324h-21v302h-428v-584h428v25h21v-68h-21v21h-440v-347h440v69h21v-69h821v-22H9407M11275 2875h-30.77M10186 4388h445M10881 4388h63v587h146v30h-892"/><path d="M10914 4975h-478v-558h195M10881 4417h33v558"/></g></g><path stroke="#000" stroke-miterlimit="10" stroke-width="6.25" d="m10917 4975-1 2-2 1-2-1-1-2 1-2 2-1 2 1z"/><g fill="none" stroke="#000" stroke-miterlimit="10" stroke-width="7"><path d="M10198 5005h-4v-30M10375 4417h19v558"/><path d="M10394 4417h-469v558h19v30h-533"/><path d="M9411 4975h483v-558h-14M9630 4417h-219M9411 5005v166h-30v-754M10182 4392h445M10885 4392h55v587h146v22h-888"/><path d="M10918 4979h-486v-566h195M10885 4413h33v566"/></g><path stroke="#000" stroke-miterlimit="10" stroke-width="6.25" d="m10201 5001-1 2-2 1-2-1-1-2 1-2 2-1 2 1z"/><g fill="none" stroke="#000" stroke-miterlimit="10" stroke-width="7"><path d="M10198 5001v-22M10379 4413h19v566"/><path d="M10398 4413h-477v566h19v22h-533"/><path d="M9407 4979h491v-566h-18M9630 4413h-223M9407 5001v166h-22v-754"/></g><path stroke="#000" stroke-miterlimit="10" stroke-width="6.25" d="m9384 4266-1 2-2 1-2-1-1-2 1-2 2-1 2 1z"/><g fill="none" stroke="#000" stroke-miterlimit="10" stroke-width="7"><path d="M9408 4392h222M9880 4392h280M10160 2923h-3M9381 6871v-42M9381 6800V5671M9381 5646v-58"/></g><path stroke="#000" stroke-miterlimit="10" stroke-width="6.25" d="m9384 5588-1 2-2 1-2-1-1-2 1-2 2-1 2 1z"/><g fill="none" stroke="#000" stroke-miterlimit="10" stroke-width="7"><path d="M9381 5588h30v20M9411 5638v339M9385 6871v-46M9385 6804V5671"/><path d="M9385 5649v-57h22v20M9407 5634v347M11162 8537V5638h23v-30h-75v30h23v2899"/><path d="M11158 8537V5634h23v-22h-67v22h22v2903"/></g><path stroke="#000" stroke-miterlimit="10" stroke-width="6.25" d="m9380 4262-1 2-2 1-2-1-1-2 1-2 2-1 2 1z"/><g fill="none" stroke-miterlimit="10"><g stroke="#000" stroke-width="7"><path d="M9381 4388h249M9880 4388h276M10631 4388v29M10627 4392v21M10881 4388v29M10885 4392v21M7644 5432h38M7646 5182h-225v-12h225v12"/></g><path stroke="silver" stroke-width="4" d="M7421 5182.5c0-124.54 100.96-225.5 225.5-225.5"/><path stroke="#000" stroke-width="7" d="M7646 4732h-225v13h225v-13"/><path stroke="silver" stroke-width="4" d="M7646.5 4958c-124.54 0-225.5-100.96-225.5-225.5"/><g stroke="#000"><path stroke-width="5" d="M7660 5195v225"/><path stroke-width="7" d="M7644 4432v-109"/><g stroke-width="4"><path d="M7896 2916h221v-31h-221v31M7882 2923h250M7882 2872h250"/></g><path stroke-width="7" d="M9057 2923v-38M9294 2888h-11v-225h11v225"/></g></g><path fill="none" stroke="silver" stroke-miterlimit="10" stroke-width="4" d="M9069 2888.5c0-124.54 100.96-225.5 225.5-225.5"/><g fill="none" stroke="#000" stroke-miterlimit="10" stroke-width="7"><path d="M9307 2888h-13v32h13v-32M9069 2888h-12v32h12v-32M9657 2923v-38M9419 2888h11v-225h-11v225"/></g><path fill="none" stroke="silver" stroke-miterlimit="10" stroke-width="4" d="M9419.5 2663c124.54 0 225.5 100.96 225.5 225.5"/><g fill="none" stroke="#000" stroke-miterlimit="10" stroke-width="7"><path d="M9407 2888h12v32h-12v-32M9644 2888h13v32h-13v-32M10156 3418h-795v-495"/><path d="M10160 3422h-803v-499M8877 2923v645h-20v29h20M8907 3447h1249"/><path d="M8881 2923v649h-21v21h21M8903 3443h1257M7882 2872h-252v1401h-152v209h166M8943 2875v-3h-811M9307 2875h100M9057 2885v-10M9307 2885v-10M9407 2885v-10M9657 2885v-10M9410.1 8537l.895-1924M9407 8537V6613M9385 6871v383M9385 7276v530M9385 8537v-791.96M9332 2923v495h-425v-495"/><path d="M9336 2923v499h-433v-499M8507 2923v645h100v29h-100"/></g><g stroke="#000" stroke-miterlimit="10"><path stroke-width="6.25" d="m8510 3597-1 2-2 1-2-1-1-2 1-2 2-1 2 1z"/><path fill="none" stroke-width="7" d="M8507 3597h-30v-674"/><path fill="none" stroke-width="7" d="M8503 2923v649h100v21h-100"/><path stroke-width="6.25" d="m8506 3593-1 2-2 1-2-1-1-2 1-2 2-1 2 1z"/></g><g fill="none" stroke="#000" stroke-miterlimit="10" stroke-width="7"><path d="M8503 3593h-22v-670M7682 3874h795v-27h30M9381 4417h-636M8877 4388v-23h30v23h474"/><path d="m7682 3877 799 1v-27h22M9385 4413h-504M8881 4392v-23h22v23h505M8907 3447v668h-30v-518"/><path d="M8903 3443v668h-22v-518M9381 6871v379M9381 7279v523M9381 8537v-787.96M8943 2885v-13M10186 4388V2923M10182 4392V2923M10160 4392V3293M10160 3422v-499M10156 4388V3297M10156 3422v-499M8269 3905v25M8269 4180v237h-587"/><path d="M7682 4375h557v-195M8239 3930v-25h-557"/></g><path stroke="#000" stroke-miterlimit="10" stroke-width="6.25" d="m7817 3903-1 2-2 1-2-1-1-2 1-2 2-1 2 1z"/><g fill="none" stroke="#000" stroke-miterlimit="10"><g stroke-width="7"><path d="M8265 4184v229h-583"/><path d="M7682 4379h561v-195M8243 3926v-25h-561M8269 4180h-30M8265 4184h-22M8269 3930h-30M8265 3926h-22M8507 3847v58M8503 3851v50M8507 3905h-238M8503 3901h-238v25M8602 6829h-196v-29h196"/><path d="M8606 6825h-196v-21h196M8606 7305h21M9385 7276h-275v-22h275M8344 5646v53M8348 5649v50M8344 5699h30v-24M8370 5699v-28M8794 5675v620h-420v-346h-30v375h463M8836 6771h-29M8836 6295v-620"/><path d="M8798 5671v627h-428v-345h-22v367h463M8832 6775h-21M8832 6298v-627M9381 6829h-750M8631 7250h225v29h-225v30M8631 8537v-977.96h-28.999M8836 6521h-29M8602 6800h205M8836 6800h545M9385 6825h-757"/><path d="M8628 7254h225v22h-225v33M8627.2 8537l.814-977.96M8606 8537v-973.96h21.001M8606 7309v-484M8832 6517h-21M8606 6804h205M8832 6804h553M8602 7309h29M9381 7279h-275v-29h275M8631 7250v-421M8628 7254v-429M8344 5646h1037M8348 5649h1037M8794 5675h-420M8798 5671h-428M8836 6771v29M8832 6775v29M8836 6800h545M9381 5675h-545M9385 5671h-549M8836 5675v846M8832 5675v842M8807 6771v29M8811 6775v29M8807 6521v-197M8811 6517v-197M8602 8537v-977.96M8602 7309v-480M10398 4979h-200M10194 4975h200M9411 4417v558M9407 4413v566M8749 4413h636M9408 4392h-505M8881 4392h-132M8877 4388h-132v29M8749 4392v21-2M10244 2923h-587M10244 2885h-587M10244 2875h-587M9880 4388v29M9630 4388v29M9307 2923h-430M9057 2885h-114M9885 2825h27v12h-27v-12M9886 2841v25h25v-25h-25"/><path d="M9876 2837v32h45v-32h-45"/></g><g stroke-width="5"><path d="M7235 5629h241.01v28H7235M7235 5640h231.01M7235 5642h231.01M7235 5645h231.01M7235 5646h231.01M7235 5637h229.01M7235 5650h229.01M7466 5640v6M7464 5642v3"/><path d="M7464 5649v1h-1"/></g></g><path fill="none" stroke="#000" stroke-miterlimit="10" stroke-width="5" d="M7463.379 5650.084a3.5 3.5 0 0 1-.377-1.691M7463.59 5647.469c.31.328.456.78.397 1.228"/><g fill="none" stroke="#000" stroke-miterlimit="10" stroke-width="5"><path d="M7463 5647h-1M7462 5646h1"/><path stroke-linecap="round" d="M7463 5647v0"/><path d="M7463 5647h1"/></g><path fill="none" stroke="#000" stroke-miterlimit="10" stroke-width="5" d="M7464.846 5646.913a2.5 2.5 0 0 1-.278-.093M7464 5647h1-1"/><path fill="none" stroke="#000" stroke-linecap="round" stroke-miterlimit="10" stroke-width="5" d="M7464 5646v0"/><path fill="none" stroke="#000" stroke-miterlimit="10" stroke-width="5" d="M7464.918 5647.02c.384.035.761.12 1.123.252"/><path stroke="#000" stroke-miterlimit="10" stroke-width="6.25" d="m7468 5647-2 2-2-2 2-2 1 1z"/><path fill="none" stroke="#000" stroke-miterlimit="10" stroke-width="5" d="M7466.067 5647.718a4.5 4.5 0 0 1-1.23.27M7464 5648h1v1h-1M7464 5638v-1h-1"/><path fill="none" stroke="#000" stroke-miterlimit="10" stroke-width="5" d="M7463.002 5638.607a3.5 3.5 0 0 1 .377-1.69M7463.987 5639.303a1.5 1.5 0 0 1-.397 1.228"/><g fill="none" stroke="#000" stroke-miterlimit="10" stroke-width="5"><path d="m7463 5639-1 1h1"/><path stroke-linecap="round" d="M7463 5640v0"/><path d="M7463 5640h1"/></g><path fill="none" stroke="#000" stroke-miterlimit="10" stroke-width="5" d="M7464.568 5641.18a2.5 2.5 0 0 1 .278-.093M7464 5640h1-1M7466.041 5639.728a4.5 4.5 0 0 1-1.123.253"/><path stroke="#000" stroke-miterlimit="10" stroke-width="6.25" d="m7468 5640-2 2-2-2 2-2 1 1z"/><path fill="none" stroke="#000" stroke-miterlimit="10" stroke-width="5" d="M7464.836 5639.013a4.5 4.5 0 0 1 1.231.269"/><g fill="none" stroke="#000" stroke-miterlimit="10" stroke-width="5"><path d="M7464 5639v-1 1-1l1 1v-1h-1M7674 5220v-25M7646 5220v-25M7663 5192v28M7661 5192v28M7658 5192v28M7657 5192v28M7666 5195v25M7653 5195v25M7663 5192h-6M7661 5194h-3M7654 5194v1h-1M7655.6 5196a3.5 3.5 0 0 1-1.691-.377M7655.3 5195c.448-.06.9.086 1.228.397"/><path stroke-linecap="round" d="M7656 5196v0"/><path d="m7657 5196-1-1"/><path stroke-linecap="round" d="M7656 5195v0"/></g><path stroke="#000" stroke-linecap="round" stroke-miterlimit="10" stroke-width="6.25" d="m7658 5195-2 2-2-2 2-2 1 1z"/><g fill="none" stroke="#000" stroke-miterlimit="10" stroke-width="5"><path d="M7657.2 5195.4a2.727 2.727 0 0 1-.093-.278M7656 5194v1-1M7656.7 5193c.132.362.217.74.253 1.123"/></g><path stroke="#000" stroke-miterlimit="10" stroke-width="6.25" d="m7658 5193-2 2-2-2 2-2 1 1z"/><g fill="none" stroke="#000" stroke-miterlimit="10" stroke-width="5"><path d="M7656 5194.2a4.48 4.48 0 0 1 .269-1.23M7655 5194v-1l-1 1M7665 5194v1h1M7667.1 5195.6a3.505 3.505 0 0 1-1.691.377M7663.5 5195.4c.328-.311.78-.457 1.228-.397M7664 5196h-1v-1"/><path stroke-linecap="round" d="M7663 5195v0"/></g><path stroke="#000" stroke-linecap="round" stroke-miterlimit="10" stroke-width="6.25" d="m7665 5195-2 2-2-2 2-2 1 1z"/><g fill="none" stroke="#000" stroke-miterlimit="10" stroke-width="5"><path d="M7662.9 5195.2a2.727 2.727 0 0 1-.093.278M7663 5194v1-1M7663 5194.1c.036-.383.12-.76.253-1.123"/></g><path stroke="#000" stroke-miterlimit="10" stroke-width="6.25" d="m7665 5193-2 2-2-2 2-2 1 1z"/><g fill="none" stroke="#000" stroke-miterlimit="10" stroke-width="5"><path d="M7664.7 5192.9c.147.396.238.81.269 1.23"/><path d="M7664 5194h1-1l1-1v1M7674 5220v210h-28v-210M7663 5420v-200M7661 5420v-200M7658 5420v-200M7657 5420v-200M7666 5417v-197M7653 5417v-197M7663 5420h-6M7661 5418h-3"/><path d="M7654 5418v-1h-1"/></g><path fill="none" stroke="#000" stroke-miterlimit="10" stroke-width="5" d="M7654.016 5417.279a3.5 3.5 0 0 1 1.691-.377M7656.631 5417.49a1.5 1.5 0 0 1-1.228.397"/><g stroke="#000" stroke-miterlimit="10"><path fill="none" stroke-width="5" d="m7657 5416-1 1v-1"/><path fill="none" stroke-linecap="round" stroke-width="5" d="M7656 5417v0"/><path stroke-linecap="round" stroke-width="6.25" d="m7658 5417-2 2-2-2 2-2 1 1z"/></g><path fill="none" stroke="#000" stroke-miterlimit="10" stroke-width="5" d="M7657.187 5418.946a2.5 2.5 0 0 1 .093-.278M7656 5418v1-1M7656.88 5418.818c-.035.384-.12.761-.252 1.123"/><path stroke="#000" stroke-miterlimit="10" stroke-width="6.25" d="m7658 5419-2 2-2-2 2-2 1 1z"/><path fill="none" stroke="#000" stroke-miterlimit="10" stroke-width="5" d="M7656.182 5419.967a4.5 4.5 0 0 1-.27-1.23M7655 5418v1l-1-1M7665 5418v-1h1"/><path fill="none" stroke="#000" stroke-miterlimit="10" stroke-width="5" d="M7665.493 5416.902a3.5 3.5 0 0 1 1.69.377M7664.597 5417.887a1.5 1.5 0 0 1-1.228-.397"/><g stroke="#000" stroke-miterlimit="10"><path fill="none" stroke-width="5" d="m7664 5417-1-1v1"/><path fill="none" stroke-linecap="round" stroke-width="5" d="M7663 5417v0"/><path stroke-linecap="round" stroke-width="6.25" d="m7665 5417-2 2-2-2 2-2 1 1z"/></g><path fill="none" stroke="#000" stroke-miterlimit="10" stroke-width="5" d="M7662.72 5418.668a2.5 2.5 0 0 1 .093.278M7663 5418v1-1M7663.372 5419.941a4.5 4.5 0 0 1-.253-1.123"/><path stroke="#000" stroke-miterlimit="10" stroke-width="6.25" d="m7665 5419-2 2-2-2 2-2 1 1z"/><path fill="none" stroke="#000" stroke-miterlimit="10" stroke-width="5" d="M7664.887 5418.736a4.5 4.5 0 0 1-.269 1.231"/><g fill="none" stroke="#000" stroke-miterlimit="10" stroke-width="5"><path d="M7664 5418h1-1v1h1v-1M7660 4720v-225M7674 4695v25M7646 4695v25M7663 4722v-27M7661 4722v-27M7658 4722v-27M7657 4722v-27M7666 4720v-25M7653 4720v-25M7663 4722h-6M7661 4721h-3M7654 4720h-1"/></g><path fill="none" stroke="#000" stroke-miterlimit="10" stroke-width="5" d="M7654.016 4719.279a3.5 3.5 0 0 1 1.691-.377M7656.631 4719.49a1.5 1.5 0 0 1-1.228.397"/><g fill="none" stroke="#000" stroke-miterlimit="10" stroke-width="5"><path d="m7657 4718-1 1v-1"/><path stroke-linecap="round" d="M7656 4719v0"/><path d="M7656 4719v1"/></g><path fill="none" stroke="#000" stroke-miterlimit="10" stroke-width="5" d="M7657.187 4720.946a2.5 2.5 0 0 1 .093-.278M7656 4720v1-1 1M7656.88 4720.818c-.035.384-.12.761-.252 1.123"/><path stroke="#000" stroke-miterlimit="10" stroke-width="6.25" d="m7658 4722-2 2-2-2 2-2 1 1z"/><path fill="none" stroke="#000" stroke-miterlimit="10" stroke-width="5" d="M7656.182 4721.967a4.5 4.5 0 0 1-.27-1.23M7655 4721v-1 1h-1v-1M7665 4720h1M7665.493 4718.902a3.5 3.5 0 0 1 1.69.377M7664.597 4719.887a1.5 1.5 0 0 1-1.228-.397"/><g fill="none" stroke="#000" stroke-miterlimit="10" stroke-width="5"><path d="m7664 4719-1-1v1"/><path stroke-linecap="round" d="M7663 4719v0"/><path d="M7663 4719v1"/></g><path fill="none" stroke="#000" stroke-miterlimit="10" stroke-width="5" d="M7662.72 4720.668a2.5 2.5 0 0 1 .093.278M7663 4720v1-1 1M7663.372 4721.941a4.5 4.5 0 0 1-.253-1.123"/><path stroke="#000" stroke-miterlimit="10" stroke-width="6.25" d="m7665 4722-2 2-2-2 2-2 1 1z"/><path fill="none" stroke="#000" stroke-miterlimit="10" stroke-width="5" d="M7664.887 4720.736a4.5 4.5 0 0 1-.269 1.231"/><g fill="none" stroke="#000" stroke-miterlimit="10" stroke-width="5"><path d="M7664 4721v-1h1-1v1h1v-1M7674 4695v-210h-28v210M7663 4495v200M7661 4495v200M7658 4495v200M7657 4495v200M7666 4497v198M7653 4497v198M7663 4495h-6M7661 4496h-3"/><path d="M7654 4496v1h-1M7655.6 4499a3.5 3.5 0 0 1-1.691-.377M7655.3 4498c.448-.06.9.086 1.228.397"/><path d="m7657 4499-1-1v1"/><path stroke-linecap="round" d="M7656 4498v0"/></g><path stroke="#000" stroke-linecap="round" stroke-miterlimit="10" stroke-width="6.25" d="m7658 4497-2 2-2-2 2-2 1 1z"/><g fill="none" stroke="#000" stroke-miterlimit="10" stroke-width="5"><path d="M7657.2 4497.4a2.727 2.727 0 0 1-.093-.278M7656 4497v-1 1-1M7656.7 4496c.132.362.217.74.253 1.123"/></g><path stroke="#000" stroke-miterlimit="10" stroke-width="6.25" d="m7658 4495-2 2-2-2 2-2 1 1z"/><g fill="none" stroke="#000" stroke-miterlimit="10" stroke-width="5"><path d="M7656 4496.2a4.48 4.48 0 0 1 .269-1.23M7655 4496v1-1h-1M7665 4496v1h1M7667.1 4498.6a3.505 3.505 0 0 1-1.691.377M7663.5 4498.4c.328-.311.78-.457 1.228-.397"/><path d="m7664 4498-1 1v-1"/><path stroke-linecap="round" d="M7663 4498v0"/></g><path stroke="#000" stroke-linecap="round" stroke-miterlimit="10" stroke-width="6.25" d="m7665 4497-2 2-2-2 2-2 1 1z"/><g fill="none" stroke="#000" stroke-miterlimit="10" stroke-width="5"><path d="M7662.9 4497.2a2.727 2.727 0 0 1-.093.278M7663 4497v-1 1-1M7663 4497.1c.036-.383.12-.76.253-1.123"/></g><path stroke="#000" stroke-miterlimit="10" stroke-width="6.25" d="m7665 4495-2 2-2-2 2-2 1 1z"/><g fill="none" stroke="#000" stroke-miterlimit="10"><g stroke-width="5"><path d="M7664.7 4494.9c.147.396.238.81.269 1.23"/><path d="M7664 4496v1l1-1h-1 1M10830 2894h-336"/></g><path stroke-width="7" d="M11244 2885v-10"/><path stroke-linecap="round" stroke-width="7" d="M10363 2871v0"/><path stroke-width="7" d="M10259 2886h11v-225h-11v225"/><path stroke-width="7" d="M10260 2661c124.54 0 225.5 100.96 225.5 225.5"/><g stroke-width="5"><path d="M10982 2886h-225M10982 2914h-225M10984 2904h-227M10984 2902h-227M10984 2899h-227M10984 2897h-227M10982 2907h-225M10982 2894h-225M10744 2886h13M10744 2914h13M10719 2886h13M10719 2914h13M10742 2897h15M10742 2899h15M10742 2902h15M10742 2904h15M10744 2894h13M10744 2907h13M10742 2897v7M10743 2899v3M10743 2906h1v1"/></g></g><path fill="none" stroke="#000" stroke-miterlimit="10" stroke-width="5" d="M10745.998 2905.393a3.5 3.5 0 0 1-.377 1.69M10745.013 2905.697a1.5 1.5 0 0 1 .397-1.228"/><g fill="none" stroke="#000" stroke-miterlimit="10" stroke-width="5"><path d="M10745 2904h1-1"/><path stroke-linecap="round" d="M10745 2904v0"/><path d="M10745 2904h-1"/></g><path fill="none" stroke="#000" stroke-miterlimit="10" stroke-width="5" d="M10744.432 2903.82a2.5 2.5 0 0 1-.278.093M10744 2904h-1 1-1M10742.959 2904.272a4.5 4.5 0 0 1 1.123-.253"/><path stroke="#000" stroke-miterlimit="10" stroke-width="6.25" d="m10744 2904-2 2-2-2 2-2 1 1z"/><path fill="none" stroke="#000" stroke-miterlimit="10" stroke-width="5" d="M10744.164 2904.987a4.5 4.5 0 0 1-1.231-.269M10743 2905h1-1v1M10743 2895h1v-1M10745.621 2893.916a3.5 3.5 0 0 1 .377 1.691M10745.41 2897.531a1.5 1.5 0 0 1-.397-1.228"/><g fill="none" stroke="#000" stroke-miterlimit="10" stroke-width="5"><path d="M10745 2897h1-1"/><path stroke-linecap="round" d="M10745 2897v0"/><path d="M10745 2897h-1"/></g><path fill="none" stroke="#000" stroke-miterlimit="10" stroke-width="5" d="M10744.154 2898.087a2.5 2.5 0 0 1 .278.093M10744 2897h-1 1-1M10744.082 2897.98a4.499 4.499 0 0 1-1.123-.252"/><path stroke="#000" stroke-miterlimit="10" stroke-width="6.25" d="m10744 2897-2 2-2-2 2-2 1 1z"/><path fill="none" stroke="#000" stroke-miterlimit="10" stroke-width="5" d="M10742.933 2896.282a4.5 4.5 0 0 1 1.23-.27"/><g fill="none" stroke="#000" stroke-miterlimit="10" stroke-width="5"><path d="M10743 2896h1-1v-1M10734 2897h-15M10734 2899h-15M10734 2902h-15M10734 2904h-15M10732 2894h-13M10732 2907h-13M10734 2897v7M10732 2899v3M10732 2906v1h-1"/></g><path fill="none" stroke="#000" stroke-miterlimit="10" stroke-width="5" d="M10731.379 2907.084a3.5 3.5 0 0 1-.377-1.691M10731.59 2904.469c.31.328.456.78.397 1.228"/><g fill="none" stroke="#000" stroke-miterlimit="10" stroke-width="5"><path d="M10731 2904h-1 1"/><path stroke-linecap="round" d="M10731 2904v0"/><path d="M10731 2904h1"/></g><path fill="none" stroke="#000" stroke-miterlimit="10" stroke-width="5" d="M10732.846 2903.913a2.5 2.5 0 0 1-.278-.093M10732 2904h1-1 1M10732.918 2904.02c.384.035.761.12 1.123.252"/><path stroke="#000" stroke-miterlimit="10" stroke-width="6.25" d="m10736 2904-2 2-2-2 2-2 1 1z"/><path fill="none" stroke="#000" stroke-miterlimit="10" stroke-width="5" d="M10734.067 2904.718a4.5 4.5 0 0 1-1.23.27M10733 2905h-1 1v1h-1M10732 2895v-1h-1"/><path fill="none" stroke="#000" stroke-miterlimit="10" stroke-width="5" d="M10731.002 2895.607a3.5 3.5 0 0 1 .377-1.69M10731.987 2896.303a1.5 1.5 0 0 1-.397 1.228"/><g fill="none" stroke="#000" stroke-miterlimit="10" stroke-width="5"><path d="M10731 2897h-1 1"/><path stroke-linecap="round" d="M10731 2897v0"/><path d="M10731 2897h1"/></g><path fill="none" stroke="#000" stroke-miterlimit="10" stroke-width="5" d="M10732.568 2898.18a2.5 2.5 0 0 1 .278-.093M10732 2897h1-1 1M10734.041 2897.728a4.5 4.5 0 0 1-1.123.253"/><path stroke="#000" stroke-miterlimit="10" stroke-width="6.25" d="m10736 2897-2 2-2-2 2-2 1 1z"/><path fill="none" stroke="#000" stroke-miterlimit="10" stroke-width="5" d="M10732.836 2896.013a4.5 4.5 0 0 1 1.231.269"/><g fill="none" stroke="#000" stroke-miterlimit="10" stroke-width="5"><path d="M10733 2896h-1 1v-1h-1M10583 2886h136M10583 2914h136M10581 2897h138M10581 2899h138M10581 2902h138M10581 2904h138M10583 2894h136M10583 2907h136M10583 2886h-100v28h100M10493 2897h90M10493 2899h90M10493 2902h90M10493 2904h90M10496 2894h87M10496 2907h87M10493 2897v7M10495 2899v3"/><path d="M10495 2906h1v1"/></g><path fill="none" stroke="#000" stroke-miterlimit="10" stroke-width="5" d="M10496.998 2905.393a3.5 3.5 0 0 1-.377 1.69M10496.013 2905.697a1.5 1.5 0 0 1 .397-1.228"/><g stroke="#000" stroke-miterlimit="10"><path fill="none" stroke-width="5" d="M10497 2904h-1"/><path fill="none" stroke-linecap="round" stroke-width="5" d="M10496 2904v0"/><path stroke-linecap="round" stroke-width="6.25" d="m10498 2904-2 2-2-2 2-2 1 1z"/></g><path fill="none" stroke="#000" stroke-miterlimit="10" stroke-width="5" d="M10496.432 2903.82a2.5 2.5 0 0 1-.278.093M10495 2904h1-1M10493.959 2904.272a4.5 4.5 0 0 1 1.123-.253"/><path stroke="#000" stroke-miterlimit="10" stroke-width="6.25" d="m10496 2904-2 2-2-2 2-2 1 1z"/><path fill="none" stroke="#000" stroke-miterlimit="10" stroke-width="5" d="M10495.164 2904.987a4.5 4.5 0 0 1-1.231-.269M10495 2905h-1l1 1M10495 2895h1v-1M10496.621 2893.916a3.5 3.5 0 0 1 .377 1.691M10496.41 2897.531a1.5 1.5 0 0 1-.397-1.228"/><g stroke="#000" stroke-miterlimit="10"><path fill="none" stroke-width="5" d="M10497 2897h-1"/><path fill="none" stroke-linecap="round" stroke-width="5" d="M10496 2897v0"/><path stroke-linecap="round" stroke-width="6.25" d="m10498 2897-2 2-2-2 2-2 1 1z"/></g><path fill="none" stroke="#000" stroke-miterlimit="10" stroke-width="5" d="M10496.154 2898.087a2.5 2.5 0 0 1 .278.093M10495 2897h1-1M10495.082 2897.98a4.499 4.499 0 0 1-1.123-.252"/><path stroke="#000" stroke-miterlimit="10" stroke-width="6.25" d="m10496 2897-2 2-2-2 2-2 1 1z"/><path fill="none" stroke="#000" stroke-miterlimit="10" stroke-width="5" d="M10493.933 2896.282a4.5 4.5 0 0 1 1.23-.27"/><g fill="none" stroke="#000" stroke-miterlimit="10" stroke-width="5"><path d="m10495 2896-1-1h1M11007 2914h235v-28h-235M11232 2904h-225M11232 2902h-225M11232 2899h-225M11232 2897h-225M11229 2907h-222M11229 2894h-222M11232 2904v-7M11230 2902v-3"/><path d="M11230 2895h-1v-1"/></g><path fill="none" stroke="#000" stroke-miterlimit="10" stroke-width="5" d="M11229.002 2895.607a3.5 3.5 0 0 1 .377-1.69M11229.987 2896.303a1.5 1.5 0 0 1-.397 1.228"/><g stroke="#000" stroke-miterlimit="10"><path fill="none" stroke-width="5" d="M11229 2897h-1 1"/><path fill="none" stroke-linecap="round" stroke-width="5" d="M11229 2897v0"/><path stroke-linecap="round" stroke-width="6.25" d="m11231 2897-2 2-2-2 2-2 1 1z"/></g><path fill="none" stroke="#000" stroke-miterlimit="10" stroke-width="5" d="M11229.568 2898.18a2.5 2.5 0 0 1 .278-.093M11230 2897h-1 1M11232.041 2897.728a4.5 4.5 0 0 1-1.123.253"/><path stroke="#000" stroke-miterlimit="10" stroke-width="6.25" d="m11233 2897-2 2-2-2 2-2 1 1z"/><path fill="none" stroke="#000" stroke-miterlimit="10" stroke-width="5" d="M11230.836 2896.013a4.5 4.5 0 0 1 1.231.269M11230 2896l1-1h-1M11230 2906h-1v1"/><path fill="none" stroke="#000" stroke-miterlimit="10" stroke-width="5" d="M11229.379 2907.084a3.5 3.5 0 0 1-.377-1.691M11229.59 2904.469c.31.328.456.78.397 1.228"/><g stroke="#000" stroke-miterlimit="10"><path fill="none" stroke-width="5" d="M11229 2904h-1 1"/><path fill="none" stroke-linecap="round" stroke-width="5" d="M11229 2904v0"/><path stroke-linecap="round" stroke-width="6.25" d="m11231 2904-2 2-2-2 2-2 1 1z"/></g><path fill="none" stroke="#000" stroke-miterlimit="10" stroke-width="5" d="M11229.846 2903.913a2.5 2.5 0 0 1-.278-.093M11230 2904h-1 1M11230.918 2904.02c.384.035.761.12 1.123.252"/><path stroke="#000" stroke-miterlimit="10" stroke-width="6.25" d="m11233 2904-2 2-2-2 2-2 1 1z"/><path fill="none" stroke="#000" stroke-miterlimit="10" stroke-width="5" d="M11232.067 2904.718a4.5 4.5 0 0 1-1.23.27"/><g fill="none" stroke="#000" stroke-miterlimit="10" stroke-width="5"><path d="M11230 2905h1l-1 1M10994 2886h13M10994 2914h13M10992 2897h15M10992 2899h15M10992 2902h15M10992 2904h15M10994 2894h13M10994 2907h13M10992 2897v7M10993 2899v3M10994 2906v1"/></g><path fill="none" stroke="#000" stroke-miterlimit="10" stroke-width="5" d="M10995.998 2905.393a3.5 3.5 0 0 1-.377 1.69M10995.013 2905.697a1.5 1.5 0 0 1 .397-1.228"/><g fill="none" stroke="#000" stroke-miterlimit="10" stroke-width="5"><path d="M10995 2904h1-1"/><path stroke-linecap="round" d="M10995 2904v0"/><path d="M10995 2904h-1"/></g><path fill="none" stroke="#000" stroke-miterlimit="10" stroke-width="5" d="M10994.432 2903.82a2.5 2.5 0 0 1-.278.093M10994 2904h-1 1-1M10992.959 2904.272a4.5 4.5 0 0 1 1.123-.253"/><path stroke="#000" stroke-miterlimit="10" stroke-width="6.25" d="m10994 2904-2 2-2-2 2-2 1 1z"/><path fill="none" stroke="#000" stroke-miterlimit="10" stroke-width="5" d="M10994.164 2904.987a4.5 4.5 0 0 1-1.231-.269M10993 2905h1-1v1h1M10994 2895v-1M10995.621 2893.916a3.5 3.5 0 0 1 .377 1.691M10995.41 2897.531a1.5 1.5 0 0 1-.397-1.228"/><g fill="none" stroke="#000" stroke-miterlimit="10" stroke-width="5"><path d="M10995 2897h1-1"/><path stroke-linecap="round" d="M10995 2897v0"/><path d="M10995 2897h-1"/></g><path fill="none" stroke="#000" stroke-miterlimit="10" stroke-width="5" d="M10994.154 2898.087a2.5 2.5 0 0 1 .278.093M10994 2897h-1 1-1M10994.082 2897.98a4.499 4.499 0 0 1-1.123-.252"/><path stroke="#000" stroke-miterlimit="10" stroke-width="6.25" d="m10994 2897-2 2-2-2 2-2 1 1z"/><path fill="none" stroke="#000" stroke-miterlimit="10" stroke-width="5" d="M10992.933 2896.282a4.5 4.5 0 0 1 1.23-.27"/><g fill="none" stroke="#000" stroke-miterlimit="10" stroke-width="5"><path d="M10993 2896h1-1v-1h1M10984 2897v7M10982 2899v3M10982 2906v1h-1"/></g><path fill="none" stroke="#000" stroke-miterlimit="10" stroke-width="5" d="M10981.379 2907.084a3.5 3.5 0 0 1-.377-1.691M10981.59 2904.469c.31.328.456.78.397 1.228"/><g fill="none" stroke="#000" stroke-miterlimit="10" stroke-width="5"><path d="M10981 2904h-1 1"/><path stroke-linecap="round" d="M10981 2904v0"/><path d="M10981 2904h1"/></g><path fill="none" stroke="#000" stroke-miterlimit="10" stroke-width="5" d="M10982.846 2903.913a2.5 2.5 0 0 1-.278-.093M10982 2904h1-1 1M10982.918 2904.02c.384.035.761.12 1.123.252"/><path stroke="#000" stroke-miterlimit="10" stroke-width="6.25" d="m10986 2904-2 2-2-2 2-2 1 1z"/><path fill="none" stroke="#000" stroke-miterlimit="10" stroke-width="5" d="M10984.067 2904.718a4.5 4.5 0 0 1-1.23.27M10983 2905h-1 1v1h-1M10982 2895v-1h-1"/><path fill="none" stroke="#000" stroke-miterlimit="10" stroke-width="5" d="M10981.002 2895.607a3.5 3.5 0 0 1 .377-1.69M10981.987 2896.303a1.5 1.5 0 0 1-.397 1.228"/><g fill="none" stroke="#000" stroke-miterlimit="10" stroke-width="5"><path d="M10981 2897h-1 1"/><path stroke-linecap="round" d="M10981 2897v0"/><path d="M10981 2897h1"/></g><path fill="none" stroke="#000" stroke-miterlimit="10" stroke-width="5" d="M10982.568 2898.18a2.5 2.5 0 0 1 .278-.093M10982 2897h1-1 1M10984.041 2897.728a4.5 4.5 0 0 1-1.123.253"/><path stroke="#000" stroke-miterlimit="10" stroke-width="6.25" d="m10986 2897-2 2-2-2 2-2 1 1z"/><path fill="none" stroke="#000" stroke-miterlimit="10" stroke-width="5" d="M10982.836 2896.013a4.5 4.5 0 0 1 1.231.269"/><g fill="none" stroke="#000" stroke-miterlimit="10" stroke-width="5"><path d="M10983 2896h-1 1v-1h-1M8119 2913h-235v-28h235M7894 2902h225M7894 2900h225M7894 2897h225M7894 2896h225M7896 2905h223M7896 2892h223M7894 2902v-6M7896 2900v-3"/><path d="M7896 2894v-2l1 1"/></g><path fill="none" stroke="#000" stroke-miterlimit="10" stroke-width="5" d="M7897.621 2892.916a3.5 3.5 0 0 1 .377 1.691M7897.41 2895.531a1.5 1.5 0 0 1-.397-1.228"/><g fill="none" stroke="#000" stroke-miterlimit="10" stroke-width="5"><path d="m7897 2895 1 1h-1"/><path stroke-linecap="round" d="M7897 2895v0"/><path d="m7897 2896-1-1"/></g><path fill="none" stroke="#000" stroke-miterlimit="10" stroke-width="5" d="M7896.154 2896.087a2.5 2.5 0 0 1 .278.093M7896 2895h-1l1 1h-1"/><path fill="none" stroke="#000" stroke-miterlimit="10" stroke-width="5" d="M7896.082 2895.98a4.499 4.499 0 0 1-1.123-.252"/><path stroke="#000" stroke-miterlimit="10" stroke-width="6.25" d="m7896 2895-2 2-2-2 2-2 1 1z"/><path fill="none" stroke="#000" stroke-miterlimit="10" stroke-width="5" d="M7894.933 2895.282a4.5 4.5 0 0 1 1.23-.27M7895 2895h1v-1h-1v-1 1l1-1v1M7896 2904v1h1M7897.998 2904.393a3.5 3.5 0 0 1-.377 1.69M7897.013 2904.697a1.5 1.5 0 0 1 .397-1.228"/><g fill="none" stroke="#000" stroke-miterlimit="10" stroke-width="5"><path d="m7897 2903 1-1h-1"/><path stroke-linecap="round" d="M7897 2902v0"/><path d="M7897 2902h-1"/></g><path fill="none" stroke="#000" stroke-miterlimit="10" stroke-width="5" d="M7896.432 2902.82a2.5 2.5 0 0 1-.278.093M7896 2902l-1 1M7895 2902h1-1M7894.959 2903.272a4.5 4.5 0 0 1 1.123-.253"/><path stroke="#000" stroke-miterlimit="10" stroke-width="6.25" d="m7896 2903-2 2-2-2 2-2 1 1z"/><path fill="none" stroke="#000" stroke-miterlimit="10" stroke-width="5" d="M7896.164 2903.987a4.5 4.5 0 0 1-1.231-.269"/><g fill="none" stroke="#000" stroke-miterlimit="10" stroke-width="5"><path d="M7895 2903h1v1h-1 1M8119 2902v-6M8117 2900v-3M8117 2894v-2l-1 1"/></g><path fill="none" stroke="#000" stroke-miterlimit="10" stroke-width="5" d="M8116.002 2894.607a3.5 3.5 0 0 1 .377-1.69M8116.987 2894.303a1.5 1.5 0 0 1-.397 1.228"/><g fill="none" stroke="#000" stroke-miterlimit="10" stroke-width="5"><path d="m8116 2895-1 1h1"/><path stroke-linecap="round" d="M8116 2895v0"/><path d="m8116 2896 1-1"/></g><path fill="none" stroke="#000" stroke-miterlimit="10" stroke-width="5" d="M8117.568 2896.18a2.5 2.5 0 0 1 .278-.093M8117 2895h1l-1 1h1"/><path fill="none" stroke="#000" stroke-miterlimit="10" stroke-width="5" d="M8119.041 2895.728a4.5 4.5 0 0 1-1.123.253"/><path stroke="#000" stroke-miterlimit="10" stroke-width="6.25" d="m8121 2895-2 2-2-2 2-2 1 1z"/><path fill="none" stroke="#000" stroke-miterlimit="10" stroke-width="5" d="M8117.836 2895.013a4.5 4.5 0 0 1 1.231.269M8118 2895h-1v-1h1v-1 1l-1-1v1M8117 2904v1h-1"/><path fill="none" stroke="#000" stroke-miterlimit="10" stroke-width="5" d="M8116.379 2906.084a3.5 3.5 0 0 1-.377-1.691M8116.59 2903.469c.31.328.456.78.397 1.228"/><g fill="none" stroke="#000" stroke-miterlimit="10" stroke-width="5"><path d="m8116 2903-1-1h1"/><path stroke-linecap="round" d="M8116 2902v0"/><path d="M8116 2902h1"/></g><path fill="none" stroke="#000" stroke-miterlimit="10" stroke-width="5" d="M8117.846 2902.913a2.5 2.5 0 0 1-.278-.093M8117 2902l1 1M8118 2902h-1 1M8117.918 2903.02c.384.035.761.12 1.123.252"/><path stroke="#000" stroke-miterlimit="10" stroke-width="6.25" d="m8121 2903-2 2-2-2 2-2 1 1z"/><path fill="none" stroke="#000" stroke-miterlimit="10" stroke-width="5" d="M8119.067 2903.718a4.5 4.5 0 0 1-1.23.27"/><g fill="none" stroke="#000" stroke-miterlimit="10"><g stroke-width="5"><path d="M8118 2903h-1v1h1-1M7692 5660h82M7692 5658h86M7695 5655h81M7692 5658v2"/></g><path stroke-width="4" d="M7776 5672h-81M7695 5647h81"/><path stroke-width="5" d="M7695 5663h81M7694 5656h1v-1"/></g><path fill="none" stroke="#000" stroke-miterlimit="10" stroke-width="5" d="M7695.621 5655.916a3.5 3.5 0 0 1 .377 1.691"/><path fill="none" stroke="#000" stroke-miterlimit="10" stroke-width="5" d="M7696.41 5658.531a1.5 1.5 0 0 1-.397-1.228"/><path fill="none" stroke="#000" stroke-linecap="round" stroke-miterlimit="10" stroke-width="5" d="M7696 5658v0"/><path stroke="#000" stroke-linecap="round" stroke-miterlimit="10" stroke-width="6.25" d="m7697 5658-2 2-2-2 2-2 1 1z"/><path fill="none" stroke="#000" stroke-miterlimit="10" stroke-width="5" d="M7695.154 5659.087a2.5 2.5 0 0 1 .278.093M7695 5658h-1 1-1M7694.082 5658.98a4.499 4.499 0 0 1-1.123-.252"/><path stroke="#000" stroke-miterlimit="10" stroke-width="6.25" d="m7695 5658-2 2-2-2 2-2 1 1z"/><path fill="none" stroke="#000" stroke-miterlimit="10" stroke-width="5" d="M7692.933 5658.282a4.5 4.5 0 0 1 1.23-.27M7694 5657h1-2l1-1M7694 5662h1v1M7695.998 5662.393a3.5 3.5 0 0 1-.377 1.69"/><path fill="none" stroke="#000" stroke-miterlimit="10" stroke-width="5" d="M7696.013 5662.697a1.5 1.5 0 0 1 .397-1.228"/><g stroke="#000" stroke-miterlimit="10"><path fill="none" stroke-width="5" d="M7696 5661v-1"/><path fill="none" stroke-linecap="round" stroke-width="5" d="M7696 5661v0"/><path stroke-linecap="round" stroke-width="6.25" d="m7697 5660-2 2-2-2 2-2 1 1z"/></g><path fill="none" stroke="#000" stroke-miterlimit="10" stroke-width="5" d="M7695.432 5660.82a2.5 2.5 0 0 1-.278.093M7695 5660l-1 1M7694 5660h1-1M7692.959 5661.272a4.5 4.5 0 0 1 1.123-.253"/><path stroke="#000" stroke-miterlimit="10" stroke-width="6.25" d="m7695 5661-2 2-2-2 2-2 1 1z"/><path fill="none" stroke="#000" stroke-miterlimit="10" stroke-width="5" d="M7694.164 5661.987a4.5 4.5 0 0 1-1.231-.269"/><g fill="none" stroke="#000" stroke-miterlimit="10"><g stroke-width="5"><path d="M7694 5661h1v1h-2 1M8333 5660h-82M8333 5658h-86M8331 5655h-81M8333 5658v2"/></g><path stroke-width="4" d="M8250 5672h81M8331 5647h-81"/><path stroke-width="5" d="M8331 5663h-81M8331 5656v-1"/></g><path fill="none" stroke="#000" stroke-miterlimit="10" stroke-width="5" d="M8330.002 5657.607a3.5 3.5 0 0 1 .377-1.69M8330.987 5657.303a1.5 1.5 0 0 1-.397 1.228"/><g fill="none" stroke="#000" stroke-miterlimit="10" stroke-width="5"><path d="M8330 5658h-1 1"/><path stroke-linecap="round" d="M8330 5658v0"/><path d="M8330 5658h1"/></g><path fill="none" stroke="#000" stroke-miterlimit="10" stroke-width="5" d="M8331.568 5659.18a2.5 2.5 0 0 1 .278-.093M8331 5658h1-1 1M8333.041 5658.728a4.5 4.5 0 0 1-1.123.253"/><path stroke="#000" stroke-miterlimit="10" stroke-width="6.25" d="m8335 5658-2 2-2-2 2-2 1 1z"/><path fill="none" stroke="#000" stroke-miterlimit="10" stroke-width="5" d="M8331.836 5658.013a4.5 4.5 0 0 1 1.231.269M8332 5657h-1 1v-1h-1M8331 5662v1M8330.379 5664.084a3.5 3.5 0 0 1-.377-1.691M8330.59 5661.469c.31.328.456.78.397 1.228"/><g fill="none" stroke="#000" stroke-miterlimit="10" stroke-width="5"><path d="m8330 5661-1-1h1"/><path stroke-linecap="round" d="M8330 5661v0"/><path d="M8330 5660h1"/></g><path fill="none" stroke="#000" stroke-miterlimit="10" stroke-width="5" d="M8331.846 5660.913a2.5 2.5 0 0 1-.278-.093M8331 5660l1 1M8332 5660h-1 1M8331.918 5661.02c.384.035.761.12 1.123.252"/><path stroke="#000" stroke-miterlimit="10" stroke-width="6.25" d="m8335 5661-2 2-2-2 2-2 1 1z"/><path fill="none" stroke="#000" stroke-miterlimit="10" stroke-width="5" d="M8333.067 5661.718a4.5 4.5 0 0 1-1.23.27"/><path fill="none" stroke="#000" stroke-miterlimit="10" stroke-width="5" d="M8332 5661h-1v1h1-1M8249 5662h1v1M8250.998 5662.393a3.5 3.5 0 0 1-.377 1.69"/><path fill="none" stroke="#000" stroke-miterlimit="10" stroke-width="5" d="M8250.013 5662.697a1.5 1.5 0 0 1 .397-1.228"/><g stroke="#000" stroke-miterlimit="10"><path fill="none" stroke-width="5" d="M8251 5661v-1h-1"/><path fill="none" stroke-linecap="round" stroke-width="5" d="M8250 5661v0"/><path stroke-linecap="round" stroke-width="6.25" d="m8252 5660-2 2-2-2 2-2 1 1z"/></g><path fill="none" stroke="#000" stroke-miterlimit="10" stroke-width="5" d="M8250.432 5660.82a2.5 2.5 0 0 1-.278.093"/><path fill="none" stroke="#000" stroke-linecap="round" stroke-miterlimit="10" stroke-width="5" d="M8249 5661v0"/><path fill="none" stroke="#000" stroke-miterlimit="10" stroke-width="5" d="M8249 5660h1-1M8247.959 5661.272a4.5 4.5 0 0 1 1.123-.253"/><path stroke="#000" stroke-miterlimit="10" stroke-width="6.25" d="m8250 5661-2 2-2-2 2-2 1 1z"/><path fill="none" stroke="#000" stroke-miterlimit="10" stroke-width="5" d="M8249.164 5661.987a4.5 4.5 0 0 1-1.231-.269"/><path fill="none" stroke="#000" stroke-miterlimit="10" stroke-width="5" d="M8249 5661v1h-1 1M8249 5656h1v-1M8250.621 5655.916a3.5 3.5 0 0 1 .377 1.691M8250.41 5658.531a1.5 1.5 0 0 1-.397-1.228"/><g stroke="#000" stroke-miterlimit="10"><path fill="none" stroke-width="5" d="M8251 5658h-1"/><path fill="none" stroke-linecap="round" stroke-width="5" d="M8250 5658v0"/><path stroke-linecap="round" stroke-width="6.25" d="m8252 5658-2 2-2-2 2-2 1 1z"/></g><path fill="none" stroke="#000" stroke-miterlimit="10" stroke-width="5" d="M8250.154 5659.087a2.5 2.5 0 0 1 .278.093M8249 5658h1-1M8249.082 5658.98a4.499 4.499 0 0 1-1.123-.252"/><path stroke="#000" stroke-miterlimit="10" stroke-width="6.25" d="m8250 5658-2 2-2-2 2-2 1 1z"/><path fill="none" stroke="#000" stroke-miterlimit="10" stroke-width="5" d="M8247.933 5658.282a4.5 4.5 0 0 1 1.23-.27"/><g fill="none" stroke="#000" stroke-miterlimit="10" stroke-width="5"><path d="M8249 5657h-1l1-1M8247 5658v2M7777 5662h-1v1"/></g><path fill="none" stroke="#000" stroke-miterlimit="10" stroke-width="5" d="M7775.379 5664.084a3.5 3.5 0 0 1-.377-1.691M7775.59 5661.469c.31.328.456.78.397 1.228"/><g stroke="#000" stroke-miterlimit="10"><path fill="none" stroke-width="5" d="m7775 5661-1-1h1"/><path fill="none" stroke-linecap="round" stroke-width="5" d="M7775 5661v0"/><path stroke-linecap="round" stroke-width="6.25" d="m7778 5660-2 2-2-2 2-2 1 1z"/></g><path fill="none" stroke="#000" stroke-miterlimit="10" stroke-width="5" d="M7776.846 5660.913a2.5 2.5 0 0 1-.278-.093M7776 5661h1M7777 5660h-1 1M7776.918 5661.02c.384.035.761.12 1.123.252"/><path stroke="#000" stroke-miterlimit="10" stroke-width="6.25" d="m7780 5661-2 2-2-2 2-2 1 1z"/><path fill="none" stroke="#000" stroke-miterlimit="10" stroke-width="5" d="M7779.067 5661.718a4.5 4.5 0 0 1-1.23.27M7777 5661h-1v1h1M7777 5656h-1v-1M7775.002 5657.607a3.5 3.5 0 0 1 .377-1.69M7775.987 5657.303a1.5 1.5 0 0 1-.397 1.228"/><g stroke="#000" stroke-miterlimit="10"><path fill="none" stroke-width="5" d="M7775 5658h-1 1"/><path fill="none" stroke-linecap="round" stroke-width="5" d="M7775 5658v0"/><path stroke-linecap="round" stroke-width="6.25" d="m7778 5658-2 2-2-2 2-2 1 1z"/></g><path fill="none" stroke="#000" stroke-miterlimit="10" stroke-width="5" d="M7776.568 5659.18a2.5 2.5 0 0 1 .278-.093M7776 5658h1-1 1M7778.041 5658.728a4.5 4.5 0 0 1-1.123.253"/><path stroke="#000" stroke-miterlimit="10" stroke-width="6.25" d="m7780 5658-2 2-2-2 2-2 1 1z"/><path fill="none" stroke="#000" stroke-miterlimit="10" stroke-width="5" d="M7777.836 5658.013a4.5 4.5 0 0 1 1.231.269"/><g fill="none" stroke="#000" stroke-miterlimit="10"><path stroke-width="5" d="M7777 5657h-1 1v-1M7778 5658v2"/><g stroke-width="7"><path d="M8489 8537v-618.96h113"/><path d="M8493 8537v-614.96h109"/><path d="M8515 8537v-593.96h87M11275 2885h-30.77v38h30.77M10182 2885h62v38M7682 5432v241h-188v-225h150v-16"/><path d="M7644 5482h-116v157h116v-157M7682 4228v254h-38v-15M7682 2923v1494M7644 3025v1263h-150v179h150"/><path d="M7644 4323h-116v109h116M7644 3563v-678h238v38h-200M8943 2885h-811v38h745M9407 2923h-100v-38h100v38M10244 2885v-10h-34M7882 2885v-13 13M8132 2885v-13 13M7644 5432h-166v196M9057 2885v-10h-114v5M7630 4273h14"/></g></g></g><g clip-path="url(#d)" transform="scale(.12)"><g fill="none" stroke="#000" stroke-miterlimit="10" stroke-width="2"><path d="M11275 3485h-116.77M11158 3486c-31.204 0-56.5-25.296-56.5-56.5s25.296-56.5 56.5-56.5M11275 3373h-116.77"/></g><g font-family="Candara" font-size="88.485"><text transform="matrix(1 0 0 -1 11026 3615)"><tspan x="0 48.578266 91.935913 146.44267 191.65851 236.87434" y="0">CLASSR</tspan></text><text transform="matrix(1 0 0 -1 11126 3522)"><tspan x="0 48.578266 70.876488 101.84624 132.81598" y="0">0-11 </tspan></text><text transform="matrix(1 0 0 -1 11207 3400)"><tspan x="0 48.578266" y="0">00</tspan></text><text transform="matrix(1 0 0 -1 11158 3279)"><tspan x="0 43.446136 74.415886" y="0">513</tspan></text></g><g fill="none" stroke="#000" stroke-miterlimit="10" stroke-width="2"><path d="M10638 7940c31.204 0 56.5 25.296 56.5 56.5s-25.296 56.5-56.5 56.5M10637 8052h-225M10412 8053c-31.204 0-56.5-25.296-56.5-56.5s25.296-56.5 56.5-56.5M10412 7940h225"/></g><g font-family="Candara" font-size="88.485"><text transform="matrix(1 0 0 -1 10281 8183)"><tspan x="0 48.578266 91.935913 146.44267 191.65851 236.87434 290.40778 351.81635 413.22495" y="0">CLASSROOM</tspan></text><text transform="matrix(1 0 0 -1 10300 8089)"><tspan x="0 47.162506 66.363747 115.0305 161.13118 215.63794 269.17136 288.37262 349.78122 393.13885" y="0">4 YEAR OLD</tspan></text><text transform="matrix(1 0 0 -1 10461 7968)"><tspan x="0 48.578266 79.548012" y="0">010</tspan></text><text transform="matrix(1 0 0 -1 10401 7846)"><tspan x="0 48.666752 90.520157 139.36388 158.56512 203.78096" y="0">876 SF</tspan></text></g><g fill="none" stroke="#000" stroke-miterlimit="10" stroke-width="2"><path d="M10446 6663c31.204 0 56.5 25.296 56.5 56.5s-25.296 56.5-56.5 56.5M10446 6775h-225M10222 6776c-31.204 0-56.5-25.296-56.5-56.5s25.296-56.5 56.5-56.5M10221 6662h225"/></g><text font-family="Candara" font-size="88.485" transform="matrix(1 0 0 -1 10112 6812)"><tspan x="0 53.533424 99.634109 144.84995 189.88881 243.42224 304.83081 366.23941" y="0">RESTROOM</tspan></text><text font-family="Candara" font-size="88.485" transform="matrix(1 0 0 -1 10242 6690)"><tspan x="0 48.578266 79.548012 128.12628" y="0">010A</tspan></text><g fill="none" stroke="#000" stroke-miterlimit="10" stroke-width="2"><path d="M10442 6053c31.204 0 56.5 25.296 56.5 56.5s-25.296 56.5-56.5 56.5M10442 6165h-225M10218 6166c-31.204 0-56.5-25.296-56.5-56.5s25.296-56.5 56.5-56.5M10217 6053h225"/></g><text font-family="Candara" font-size="88.485" transform="matrix(1 0 0 -1 10149 6202)"><tspan x="0 45.215836 90.2547 151.66328 205.19672 259.70346 314.65265" y="0">STORAGE</tspan></text><text font-family="Candara" font-size="88.485" transform="matrix(1 0 0 -1 10239 6080)"><tspan x="0 48.578266 79.548012 128.12628" y="0">010B</tspan></text><g fill="none" stroke="#000" stroke-miterlimit="10" stroke-width="2"><path d="M11082 4354c-31.204 0-56.5-25.296-56.5-56.5s25.296-56.5 56.5-56.5M11275 4353h-192.77M11275 4241h-192.77"/></g><text font-family="Candara" font-size="88.485" transform="matrix(1 0 0 -1 10975 4390)"><tspan x="0 53.533424 99.634109 144.84995 189.88881 243.42224" y="0">RESTRO</tspan></text><text font-family="Candara" font-size="88.485" transform="matrix(1 0 0 -1 11106 4268)"><tspan x="0 48.578266 97.156532 128.12628" y="0">001A</tspan></text><g fill="none" stroke="#000" stroke-miterlimit="10" stroke-width="2"><path d="M9561.5 4654c-31.204 0-56.5-25.296-56.5-56.5s25.296-56.5 56.5-56.5M9561 4654h225M9786.5 4541c31.204 0 56.5 25.296 56.5 56.5s-25.296 56.5-56.5 56.5M9786 4541h-225"/></g><text font-family="Candara" font-size="88.485" transform="matrix(1 0 0 -1 9412 4691)"><tspan x="0 75.566193 121.66688 170.24513 227.93736 282.44412 342.08301 366.50488 415.08313 469.5899" y="0">MECHANICAL</tspan></text><text font-family="Candara" font-size="88.485" transform="matrix(1 0 0 -1 9587 4569)"><tspan x="0 30.969749 79.548012 120.42809" y="0">102A</tspan></text><g fill="none" stroke="#000" stroke-miterlimit="10" stroke-width="2"><path d="M7908.5 7407c31.204 0 56.5 25.296 56.5 56.5s-25.296 56.5-56.5 56.5M7908 7519h-225M7683.5 7520c-31.204 0-56.5-25.296-56.5-56.5s25.296-56.5 56.5-56.5M7683 7407h225"/></g><g font-family="Candara" font-size="88.485"><text transform="matrix(1 0 0 -1 7479 7650)"><tspan x="0 75.566193 136.00145 179.3591 224.39796 248.81982 297.75201 358.18729 411.7207 460.65292 522.06152 567.27734 613.37799" y="0">MULTIPURPOSE </tspan></text><text transform="matrix(1 0 0 -1 7669 7556)"><tspan x="0 53.533424 114.94202 176.3506" y="0">ROOM</tspan></text><text transform="matrix(1 0 0 -1 7735 7435)"><tspan x="0 30.969749 79.548012" y="0">107</tspan></text><text transform="matrix(1 0 0 -1 7658 7314)"><tspan x="0 30.969749 53.267971 94.148041 125.11779 166.97119 186.17244 231.38828" y="0">1,217 SF</tspan></text></g><g fill="none" stroke="#000" stroke-miterlimit="10" stroke-width="2"><path d="M8100.5 5013c31.204 0 56.5 25.296 56.5 56.5s-25.296 56.5-56.5 56.5M8100 5125h-225M7875.5 5126c-31.204 0-56.5-25.296-56.5-56.5s25.296-56.5 56.5-56.5M7875 5013h225"/></g><text font-family="Candara" font-size="88.485" transform="matrix(1 0 0 -1 7771 5162)"><tspan x="0 53.533424 99.634109 148.21237 194.31306 243.24527 288.28412 312.70599 374.11459" y="0">RECEPTION</tspan></text><text font-family="Candara" font-size="88.485" transform="matrix(1 0 0 -1 7924 5040)"><tspan x="0 30.969749 79.548012" y="0">100</tspan></text><g fill="none" stroke="#000" stroke-miterlimit="10" stroke-width="2"><path d="M9764.5 3715c31.204 0 56.5 25.296 56.5 56.5s-25.296 56.5-56.5 56.5M9764 3828h-225M9539.5 3828c-31.204 0-56.5-25.296-56.5-56.5s25.296-56.5 56.5-56.5M9539 3715h225"/></g><text font-family="Candara" font-size="88.485" transform="matrix(1 0 0 -1 9457 3865)"><tspan x="0 56.895855 81.317719 134.85114 180.95183 229.53009 274.56897 335.97754" y="0">DIRECTOR</tspan></text><text font-family="Candara" font-size="88.485" transform="matrix(1 0 0 -1 9591 3743)"><tspan x="0 30.969749 79.548012" y="0">102</tspan></text><g fill="none" stroke="#000" stroke-miterlimit="10" stroke-width="2"><path d="M8132.5 3617c31.204 0 56.5 25.296 56.5 56.5s-25.296 56.5-56.5 56.5M8132 3729h-225M7907.5 3730c-31.204 0-56.5-25.296-56.5-56.5s25.296-56.5 56.5-56.5M7907 3616h225"/></g><text font-family="Candara" font-size="88.485" transform="matrix(1 0 0 -1 7765 3766)"><tspan x="0 51.852211 105.38564 151.48631 205.99307 258.37619 311.90964 373.31821 434.72681" y="0">BREAKROOM</tspan></text><text font-family="Candara" font-size="88.485" transform="matrix(1 0 0 -1 7959 3644)"><tspan x="0 30.969749 79.548012" y="0">103</tspan></text><g fill="none" stroke="#000" stroke-miterlimit="10" stroke-width="2"><path d="m8236.1 2405.3 4.468 8.234 3.293 10.605 1.147 11.387-1.147 11.386-3.293 10.606-5.208 9.597-6.9 8.362-8.361 6.9-9.599 5.209-10.605 3.292-11.386 1.148M8188 2491h-225M7915.9 2405.3l-4.469 8.234-3.293 10.605-1.147 11.387 1.147 11.386 3.293 10.606 5.209 9.597 6.899 8.362 8.362 6.9 9.598 5.209 10.604 3.292 11.388 1.148"/></g><text font-family="Candara" font-size="88.485" transform="matrix(1 0 0 -1 7908 2528)"><tspan x="0 36.809761 91.316521 150.95541 175.37727 220.41614 281.82474" y="0">JANITOR</tspan></text><text font-family="Candara" font-size="88.485" transform="matrix(1 0 0 -1 8013 2406)"><tspan x="0 30.969749 79.548012" y="0">104</tspan></text><g fill="none" stroke="#000" stroke-miterlimit="10" stroke-width="2"><path d="m8906.1 2405.3 4.468 8.234 3.292 10.605 1.148 11.387-1.148 11.386-3.292 10.606-5.208 9.597-6.9 8.362-8.361 6.9-9.598 5.209-10.605 3.292-11.387 1.148M8858 2491h-225M8585.9 2405.3l-4.47 8.234-3.291 10.605-1.147 11.387 1.147 11.386 3.291 10.606 5.211 9.597 6.899 8.362 8.362 6.9 9.598 5.209 10.604 3.292 11.388 1.148"/></g><text font-family="Candara" font-size="88.485" transform="matrix(1 0 0 -1 8540 2528)"><tspan x="0 43.269165 67.691025 121.22445 167.32513 186.52638 240.0598 264.48166 309.69751 355.79819" y="0">FIRE RISER</tspan></text><text font-family="Candara" font-size="88.485" transform="matrix(1 0 0 -1 8684 2406)"><tspan x="0 30.969749 79.548012" y="0">105</tspan></text><g fill="none" stroke="#000" stroke-miterlimit="10" stroke-width="2"><path d="m9655.7 2405.3 4.375 2.375 8.361 6.899 6.9 8.362 5.21 9.598 3.292 10.605 1.147 11.387-1.147 11.386-3.292 10.606-5.21 9.598-6.9 8.361-8.361 6.9-9.598 5.209-10.605 3.292-11.387 1.148M9628 2511h-225M9376.3 2405.3l-4.375 2.375-8.36 6.899-6.9 8.362-5.209 9.598-3.292 10.605-1.148 11.387 1.148 11.386 3.292 10.606 5.209 9.598 6.9 8.361 8.36 6.9 9.598 5.209 10.606 3.292 11.386 1.148"/></g><text font-family="Candara" font-size="88.485" transform="matrix(1 0 0 -1 9288 2548)"><tspan x="0 46.100685 89.458336 135.55902 184.13728 229.17615 282.70956 307.13144 355.70969 410.21646" y="0">ELECTRICAL</tspan></text><text font-family="Candara" font-size="88.485" transform="matrix(1 0 0 -1 9451 2426)"><tspan x="0 30.969749 79.548012" y="0">106</tspan></text><path fill="none" stroke="#000" stroke-miterlimit="10" stroke-width="2" d="m7235 3758.9 2.865 9.229 1.148 11.387-1.148 11.386-2.865 9.23"/><text font-family="Candara" font-size="88.485" transform="matrix(1 0 0 -1 7215.2 3872)"><tspan x="0" y="0">M</tspan></text><g fill="none" stroke="#000" stroke-miterlimit="10" stroke-width="2"><path d="M7987.5 6384c31.204 0 56.5 25.296 56.5 56.5s-25.296 56.5-56.5 56.5M7987 6496h-225M7762.5 6497c-31.204 0-56.5-25.296-56.5-56.5s25.296-56.5 56.5-56.5M7762 6384h225"/></g><text font-family="Candara" font-size="88.485" transform="matrix(1 0 0 -1 7654 6533)"><tspan x="0 53.533424 99.634109 144.84995 189.88881 243.42224 304.83081 366.23941" y="0">RESTROOM</tspan></text><text font-family="Candara" font-size="88.485" transform="matrix(1 0 0 -1 7787 6411)"><tspan x="0 30.969749 79.548012 121.40142" y="0">107A</tspan></text><g fill="none" stroke="#000" stroke-miterlimit="10" stroke-width="2"><path d="M9211.5 6516c31.204 0 56.5 25.296 56.5 56.5s-25.296 56.5-56.5 56.5M9211 6628h-225M8986.5 6629c-31.204 0-56.5-25.296-56.5-56.5s25.296-56.5 56.5-56.5M8986 6516h225"/></g><text font-family="Candara" font-size="88.485" transform="matrix(1 0 0 -1 8918 6665)"><tspan x="0 45.215836 90.2547 151.66328 205.19672 259.70346 314.65265" y="0">STORAGE</tspan></text><text font-family="Candara" font-size="88.485" transform="matrix(1 0 0 -1 9034 6543)"><tspan x="0 30.969749 79.548012" y="0">108</tspan></text><g fill="none" stroke="#000" stroke-miterlimit="10" stroke-width="2"><path d="M9119.5 7899c31.204 0 56.5 25.296 56.5 56.5s-25.296 56.5-56.5 56.5M9119 8011h-225M8894.5 8012c-31.204 0-56.5-25.296-56.5-56.5s25.296-56.5 56.5-56.5M8894 7898h225"/></g><text font-family="Candara" font-size="88.485" transform="matrix(1 0 0 -1 8839 8048)"><tspan x="0 52.383121 76.804977 121.84384 170.4221 228.11433 274.21503" y="0">KITCHEN</tspan></text><text font-family="Candara" font-size="88.485" transform="matrix(1 0 0 -1 8942 7926)"><tspan x="0 30.969749 79.548012" y="0">109</tspan></text><g fill="none" stroke="#000" stroke-miterlimit="10" stroke-width="2"><path d="M10960 5101c31.204 0 56.5 25.296 56.5 56.5s-25.296 56.5-56.5 56.5M10960 5213h-225M10736 5214c-31.204 0-56.5-25.296-56.5-56.5s25.296-56.5 56.5-56.5M10735 5101h225"/></g><text font-family="Candara" font-size="88.485" transform="matrix(1 0 0 -1 10626 5250)"><tspan x="0 53.533424 99.634109 144.84995 189.88881 243.42224 304.83081 366.23941" y="0">RESTROOM</tspan></text><text font-family="Candara" font-size="88.485" transform="matrix(1 0 0 -1 10747 5128)"><tspan x="0 48.578266 97.156532 145.7348" y="0">000A</tspan></text><g fill="none" stroke="#000" stroke-miterlimit="10" stroke-width="2"><path d="M9110.5 6943c31.204 0 56.5 25.296 56.5 56.5s-25.296 56.5-56.5 56.5M9110 7055h-225M8885.5 7056c-31.204 0-56.5-25.296-56.5-56.5s25.296-56.5 56.5-56.5M8885 6943h225"/></g><text font-family="Candara" font-size="88.485" transform="matrix(1 0 0 -1 8817 7092)"><tspan x="0 45.215836 90.2547 151.66328 205.19672 259.70346 314.65265" y="0">STORAGE</tspan></text><text font-family="Candara" font-size="88.485" transform="matrix(1 0 0 -1 8942 6971)"><tspan x="0 30.969749 61.939499" y="0">110</tspan></text><path fill="none" stroke="#000" stroke-miterlimit="10" stroke-width="2" d="M11275 3128h-891.77"/><path stroke="#000" stroke-miterlimit="10" stroke-width="6.25" d="m10216 2946-30-23 21 31z"/><path fill="none" stroke="#000" stroke-miterlimit="10" stroke-width="2" d="M11275 3128h-891.77l-171-178"/><path fill="none" stroke="#fff" stroke-linecap="round" stroke-linejoin="round" stroke-miterlimit="10" stroke-width="6.25" d="m10810 3184-33-56"/><path fill="#fff" stroke="#fff" stroke-linecap="round" stroke-miterlimit="10" stroke-width="6.25" d="m10989 3128-32-56v112zm-32-56v112l-147-112zm0 112-147-112v112zm-147-112v112l-33-56z"/><path fill="none" stroke="#000" stroke-miterlimit="10" stroke-width="2" d="M10810 3072h147l32 56-32 56h-147l-33-56 33-56"/><text font-family="Candara" font-size="88.485" transform="matrix(1 0 0 -1 10805 3100)"><tspan x="0 48.932205 93.971069 116.26929" y="0">PT-2</tspan></text><path fill="#fff" fill-rule="evenodd" d="M10345 8501v35.96h-100.22L10198 8501v35.96h-20.55L10198 8501v35.96h46.78L10198 8501h147v35.96h21.19z"/><path fill="none" stroke="#fff" stroke-linecap="round" stroke-miterlimit="10" stroke-width="6.25" d="m10366 8537-21.19-35.96V8537m0 .833v-36.793h-147l46.78 35.96m0 .833-46.78-36.793V8537m0 .833v-36.793l-20.55 35.96"/><path fill="none" stroke="#000" stroke-miterlimit="10" stroke-width="2" d="m10366 8537-21.19-35.96h-147m-20.55 35.96 20.55-35.96"/><text font-family="Candara" font-size="88.485" transform="matrix(1 0 0 -1 10193 8529)"><tspan x="0 48.932205 93.971069 116.26929" y="0">PT-7</tspan></text><path fill="none" stroke="#000" stroke-miterlimit="10" stroke-width="2" d="M9176 8537V7484h-340v1053"/><path fill="#fff" fill-rule="evenodd" d="M9080 8501v35.96h-100.9l-47.098-35.96v35.96h-20.548l20.548-35.96v35.96h47.098l-47.098-35.96h148v35.96h20.549z"/><path fill="none" stroke="#fff" stroke-linecap="round" stroke-miterlimit="10" stroke-width="6.25" d="m9100.5 8537-20.549-35.96V8537m0 .833v-36.793h-148l47.098 35.96m0 .833-47.098-36.793V8537m0 .833v-36.793l-20.548 35.96"/><path fill="none" stroke="#000" stroke-miterlimit="10" stroke-width="2" d="m9100.5 8537-20.549-35.96h-148m-20.548 35.96 20.548-35.96"/><text font-family="Candara" font-size="88.485" transform="matrix(1 0 0 -1 8933 8529)"><tspan x="0 43.269165 96.802589" y="0">FRP</tspan></text><path stroke="#000" stroke-miterlimit="10" stroke-width="6.25" d="m9359 7310 22-31-31 23z"/><path fill="none" stroke="#000" stroke-miterlimit="10" stroke-width="2" d="m9354 7306-178 178 205-205"/><path stroke="#000" stroke-miterlimit="10" stroke-width="6.25" d="m7892 7215 31 22-22-31z"/><g fill="none" stroke-miterlimit="10"><path stroke="#000" stroke-width="2" d="m7897 7210-172-178h-397M7235 6935.7l93.013 96.277h397"/><path stroke="#fff" stroke-linecap="round" stroke-linejoin="round" stroke-width="6.25" d="m7453 7089-32-57"/></g><path fill="#fff" stroke="#fff" stroke-linecap="round" stroke-miterlimit="10" stroke-width="6.25" d="m7633 7032-33-56v113zm-33-56v113l-147-113zm0 113-147-113v113zm-147-113v113l-32-57z"/><path fill="none" stroke="#000" stroke-miterlimit="10" stroke-width="2" d="M7453 6976h147l33 56-33 57h-147l-32-57 32-56"/><text font-family="Candara" font-size="88.485" transform="matrix(1 0 0 -1 7454 7004)"><tspan x="0 48.932205 92.289856 114.58807" y="0">PL-1</tspan></text><path stroke="#000" stroke-miterlimit="10" stroke-width="6.25" d="m10610 7544 31 23-22-32z"/><path fill="none" stroke="#000" stroke-miterlimit="10" stroke-width="2" d="m10615 7540-172-178h-397"/><path stroke="#000" stroke-miterlimit="10" stroke-width="6.25" d="m9879 7180-30-23 21 32z"/><path fill="none" stroke="#000" stroke-miterlimit="10" stroke-width="2" d="m9875 7184 171 178h397"/><path fill="none" stroke="#fff" stroke-linecap="round" stroke-linejoin="round" stroke-miterlimit="10" stroke-width="6.25" d="m10171 7418-32-56"/><path fill="#fff" stroke="#fff" stroke-linecap="round" stroke-miterlimit="10" stroke-width="6.25" d="m10351 7362-32-56v112zm-32-56v112l-148-112zm0 112-148-112v112zm-148-112v112l-32-56z"/><path fill="none" stroke="#000" stroke-miterlimit="10" stroke-width="2" d="M10171 7306h148l32 56-32 56h-148l-32-56 32-56"/><text font-family="Candara" font-size="88.485" transform="matrix(1 0 0 -1 10172 7334)"><tspan x="0 48.932205 92.289856 114.58807" y="0">PL-1</tspan></text><path stroke="#000" stroke-miterlimit="10" stroke-width="6.25" d="m11155 4130 31 23-22-31z"/><path fill="none" stroke="#000" stroke-miterlimit="10" stroke-width="2" d="m11160 4126-172-178h-397"/><path stroke="#000" stroke-miterlimit="10" stroke-width="6.25" d="m10424 3766-30-23 21 32z"/><path fill="none" stroke="#000" stroke-miterlimit="10" stroke-width="2" d="m10420 3770 171 178h397"/><path fill="none" stroke="#fff" stroke-linecap="round" stroke-linejoin="round" stroke-miterlimit="10" stroke-width="6.25" d="m10716 4004-32-56"/><path fill="#fff" stroke="#fff" stroke-linecap="round" stroke-miterlimit="10" stroke-width="6.25" d="m10896 3948-33-56v112zm-33-56v112l-147-112zm0 112-147-112v112zm-147-112v112l-32-56z"/><path fill="none" stroke="#000" stroke-miterlimit="10" stroke-width="2" d="M10716 3892h147l33 56-33 56h-147l-32-56 32-56"/><text font-family="Candara" font-size="88.485" transform="matrix(1 0 0 -1 10717 3920)"><tspan x="0 48.932205 92.289856 114.58807" y="0">PL-1</tspan></text><path stroke="#000" stroke-miterlimit="10" stroke-width="6.25" d="m9100 4934 31 23-22-31z"/><path fill="none" stroke="#000" stroke-miterlimit="10" stroke-width="2" d="m9105 4930-172-178h-397"/><path stroke="#000" stroke-miterlimit="10" stroke-width="6.25" d="m8369 4570-30-22 21 31z"/><path fill="none" stroke="#000" stroke-miterlimit="10" stroke-width="2" d="m8365 4575 171 177h397"/><path fill="none" stroke="#fff" stroke-linecap="round" stroke-linejoin="round" stroke-miterlimit="10" stroke-width="6.25" d="m8661 4809-32-57"/><path fill="#fff" stroke="#fff" stroke-linecap="round" stroke-miterlimit="10" stroke-width="6.25" d="m8841 4752-33-56v113zm-33-56v113l-147-113zm0 113-147-113v113zm-147-113v113l-32-57z"/><path fill="none" stroke="#000" stroke-miterlimit="10" stroke-width="2" d="M8661 4696h147l33 56-33 57h-147l-32-57 32-56"/><text font-family="Candara" font-size="88.485" transform="matrix(1 0 0 -1 8662 4724)"><tspan x="0 48.932205 92.289856 114.58807" y="0">PL-1</tspan></text><path stroke="#000" stroke-miterlimit="10" stroke-width="6.25" d="m9764 6497 6-4 7 18zm6-4 7 18v-19zm7 18v-19l7 1zM9784 6493l6 5-13 13zm6 5-13 13 17-7zm-13 13 17-7 1 7zM9795 6511l-1 7-17-7zm-1 7-17-7 13 13zm-17-7 13 13-6 4z"/><path stroke="#000" stroke-miterlimit="10" stroke-width="6.25" d="m9784 6528-8 1 1-18zm-8 1 1-18-8 17zm1-18-8 17-6-4z"/><path stroke="#000" stroke-miterlimit="10" stroke-width="6.25" d="m9763 6524-4-7 18-6zm-4-7 18-6-19-1zm18-6-19-1 1-7z"/><path stroke="#000" stroke-miterlimit="10" stroke-width="6.25" d="m9759 6503 5-6 13 14z"/><path fill="none" stroke="#000" stroke-miterlimit="10" stroke-width="2" d="m9790 6524 13 14 171 177h190"/><path stroke="#000" stroke-miterlimit="10" stroke-width="6.25" d="m9760 5891 6-4 7 17zm6-4 7 17v-18zm7 17v-18l7 1zM9780 5887l6 4-13 13zm6 4-13 13 17-7zm-13 13 17-7 1 8zM9791 5905l-1 7-17-8zm-1 7-17-8 13 14zm-17-8 13 14-6 4z"/><path stroke="#000" stroke-miterlimit="10" stroke-width="6.25" d="m9780 5922-8 1 1-19zm-8 1 1-19-8 18zm1-19-8 18-6-5z"/><path stroke="#000" stroke-miterlimit="10" stroke-width="6.25" d="m9759 5917-4-6 18-7zm-4-6 18-7h-19zm18-7h-19l1-7z"/><path stroke="#000" stroke-miterlimit="10" stroke-width="6.25" d="m9755 5897 5-6 13 13z"/><path fill="none" stroke="#000" stroke-miterlimit="10" stroke-width="2" d="m9786 5918 13 13 171 178h190"/><path stroke="#000" stroke-miterlimit="10" stroke-width="6.25" d="m10625 4515-4-6 17-7zm-4-6 17-7h-18zm17-7h-18l1-7z"/><path stroke="#000" stroke-miterlimit="10" stroke-width="6.25" d="m10621 4495 4-6 13 13zm4-6 13 13-7-17zm13 13-7-17 7-2zM10638 4483l7 1-7 18zm7 1-7 18 14-14zm-7 18 14-14 4 6zM10656 4494l1 7-19 1zm1 7-19 1 18 7zm-19 1 18 7-4 6z"/><path stroke="#000" stroke-miterlimit="10" stroke-width="6.25" d="m10652 4515-6 4-8-17zm-6 4-8-17 1 19zm-8-17 1 19-7-2z"/><path stroke="#000" stroke-miterlimit="10" stroke-width="6.25" d="m10632 4519-7-4 13-13z"/><path fill="none" stroke="#000" stroke-miterlimit="10" stroke-width="2" d="m10652 4488 13-13 171-178h190"/><path stroke="#000" stroke-miterlimit="10" stroke-width="6.25" d="m10278 4939 6-4 7 17zm6-4 7 17v-19zm7 17v-19l7 2zM10298 4935l6 4-13 13zm6 4-13 13 17-7zm-13 13 17-7 2 8zM10310 4953l-2 7-17-8zm-2 7-17-8 13 14zm-17-8 13 14-6 4z"/><path stroke="#000" stroke-miterlimit="10" stroke-width="6.25" d="m10298 4970-8 1 1-19zm-8 1 1-19-8 17zm1-19-8 17-6-4z"/><path stroke="#000" stroke-miterlimit="10" stroke-width="6.25" d="m10277 4965-4-6 18-7zm-4-6 18-7h-19zm18-7h-19l2-7z"/><path stroke="#000" stroke-miterlimit="10" stroke-width="6.25" d="m10274 4945 4-6 13 13z"/><path fill="none" stroke="#000" stroke-miterlimit="10" stroke-width="2" d="m10304 4966 13 13 171 178h191"/><path stroke="#000" stroke-miterlimit="10" stroke-width="6.25" d="m8609 2991-7 1 2-19zm-7 1 2-19-9 17zm2-19-9 17-6-5z"/><path stroke="#000" stroke-miterlimit="10" stroke-width="6.25" d="m8589 2985-3-6 18-6zm-3-6 18-6-19-1zm18-6-19-1 2-7z"/><path stroke="#000" stroke-miterlimit="10" stroke-width="6.25" d="m8587 2965 5-6 12 14zm5-6 12 14-6-18zm12 14-6-18h7zM8605 2955l8 2-9 16zm8 2-9 16 14-12zm-9 16 14-12 4 7zM8622 2968l1 7-19-2zm1 7-19-2 16 9zm-19-2 16 9-4 6z"/><path stroke="#000" stroke-miterlimit="10" stroke-width="6.25" d="m8616 2988-7 3-5-18z"/><path fill="none" stroke="#000" stroke-miterlimit="10" stroke-width="2" d="m8598 2955-5-17-158-503h-190"/><path stroke="#000" stroke-miterlimit="10" stroke-width="6.25" d="M9226 2992h-7l3-19zm-7 0 3-19-10 16zm3-19-10 16-5-5z"/><path stroke="#000" stroke-miterlimit="10" stroke-width="6.25" d="m9207 2984-3-7 18-4zm-3-7 18-4-18-3zm18-4-18-3 2-7z"/><path stroke="#000" stroke-miterlimit="10" stroke-width="6.25" d="m9206 2963 5-5 11 15zm5-5 11 15-4-18zm11 15-4-18h7zM9225 2955l7 3-10 15zm7 3-10 15 15-10zm-10 15 15-10 3 6zM9240 2969l1 8-19-4zm1 8-19-4 16 10zm-19-4 16 10-5 6z"/><path stroke="#000" stroke-miterlimit="10" stroke-width="6.25" d="m9233 2989-7 3-4-19z"/><path fill="none" stroke="#000" stroke-miterlimit="10" stroke-width="2" d="m9218 2955-4-18-110-500h-190"/><path stroke="#000" stroke-miterlimit="10" stroke-width="6.25" d="M10002 3008h-7l3-18zm-7 0 3-18-10 16zm3-18-10 16-5-5z"/><path stroke="#000" stroke-miterlimit="10" stroke-width="6.25" d="m9983 3001-3-7 18-4zm-3-7 18-4-18-3zm18-4-18-3 2-7z"/><path stroke="#000" stroke-miterlimit="10" stroke-width="6.25" d="m9982 2980 5-6 11 16zm5-6 11 16-4-19zm11 16-4-19h7zM10001 2971l7 3-10 16zm7 3-10 16 15-11zm-10 16 15-11 3 6zM10016 2985l1 8-19-3zm1 8-19-3 16 10zm-19-3 16 10-5 5z"/><path stroke="#000" stroke-miterlimit="10" stroke-width="6.25" d="m10009 3005-7 3-4-18z"/><path fill="none" stroke="#000" stroke-miterlimit="10" stroke-width="2" d="m9994 2971-4-18-116-499h-190"/><path stroke="#000" stroke-miterlimit="10" stroke-width="6.25" d="m7759 4173-6 4-6-18zm-6 4-6-18-1 18zm-6-18-1 18-7-2z"/><path stroke="#000" stroke-miterlimit="10" stroke-width="6.25" d="m7739 4175-6-4 14-12zm-6-4 14-12-17 5zm14-12-17 5-1-7z"/><path stroke="#000" stroke-miterlimit="10" stroke-width="6.25" d="m7729 4157 2-7 16 9zm2-7 16 9-12-15zm16 9-12-15 7-3z"/><path stroke="#000" stroke-miterlimit="10" stroke-width="6.25" d="m7742 4141 7-1-2 19zm7-1-2 19 9-17zm-2 19 9-17 6 5zM7762 4147l3 6-18 6zm3 6-18 6 19 1zm-18 6 19 1-2 7z"/><path stroke="#000" stroke-miterlimit="10" stroke-width="6.25" d="m7764 4167-5 6-12-14z"/><path fill="none" stroke="#000" stroke-miterlimit="10" stroke-width="2" d="m7735 4144-12-14-294-351h-190"/><path stroke="#000" stroke-miterlimit="10" stroke-width="6.25" d="m8444 6222 4 6-17 7zm4 6-17 7h19zm-17 7h19l-1 7z"/><path stroke="#000" stroke-miterlimit="10" stroke-width="6.25" d="m8449 6242-4 6-14-13zm-4 6-14-13 8 17zm-14-13 8 17-7 2z"/><path stroke="#000" stroke-miterlimit="10" stroke-width="6.25" d="m8432 6254-8-2 7-17zm-8-2 7-17-13 14zm7-17-13 14-4-6z"/><path stroke="#000" stroke-miterlimit="10" stroke-width="6.25" d="m8414 6243-1-8h18zm-1-8h18l-17-7zm18 0-17-7 4-6z"/><path stroke="#000" stroke-miterlimit="10" stroke-width="6.25" d="m8418 6222 6-4 7 17zm6-4 7 17v-19zm7 17v-19l7 2zM8438 6218l6 4-13 13z"/><path fill="none" stroke="#000" stroke-miterlimit="10" stroke-width="2" d="m8418 6249-13 13-171 178h-190M8445 6223h278v-476h-278v476"/><path stroke="#000" stroke-miterlimit="10" stroke-width="6.25" d="m8772 5706 22-31-31 22z"/><path fill="none" stroke="#000" stroke-miterlimit="10" stroke-width="2" d="m8768 5702-46 46 72-73"/><path fill="none" stroke="#fff" stroke-linecap="round" stroke-linejoin="round" stroke-miterlimit="10" stroke-width="6.25" d="m8667 5911 56-32"/><path fill="#fff" stroke="#fff" stroke-linecap="round" stroke-miterlimit="10" stroke-width="6.25" d="m8723 6091 56-33h-112zm56-33h-112l112-147zm-112 0 112-147h-112zm112-147h-112l56-32z"/><path fill="none" stroke="#000" stroke-miterlimit="10" stroke-width="2" d="M8779 5911v147l-56 33-56-33v-147l56-32 56 32"/><text font-family="Candara" font-size="88.485" transform="matrix(0 1 1 0 8751 5911)"><tspan x="0 48.578266 93.617126 115.91535" y="0">CT-1</tspan></text><path fill="none" stroke="#000" stroke-miterlimit="10" stroke-width="2" d="M9494 6555h277v-477h-277v477"/><path stroke="#000" stroke-miterlimit="10" stroke-width="6.25" d="m9821 6037 22-30-31 22z"/><path fill="none" stroke="#000" stroke-miterlimit="10" stroke-width="2" d="m9816 6033-46 46 73-72"/><path fill="none" stroke="#fff" stroke-linecap="round" stroke-linejoin="round" stroke-miterlimit="10" stroke-width="6.25" d="m9715 6243 56-33"/><path fill="#fff" stroke="#fff" stroke-linecap="round" stroke-miterlimit="10" stroke-width="6.25" d="m9771 6422 57-32h-113zm57-32h-113l113-147zm-113 0 113-147h-113zm113-147h-113l56-33z"/><path fill="none" stroke="#000" stroke-miterlimit="10" stroke-width="2" d="M9828 6243v147l-57 32-56-32v-147l56-33 57 33"/><text font-family="Candara" font-size="88.485" transform="matrix(0 1 1 0 9800 6243)"><tspan x="0 48.578266 93.617126 115.91535" y="0">CT-1</tspan></text><path fill="none" stroke="#000" stroke-miterlimit="10" stroke-width="2" d="M10045 4965h278v-476h-278v476"/><path stroke="#000" stroke-miterlimit="10" stroke-width="6.25" d="m10372 4448 22-31-31 22z"/><path fill="none" stroke="#000" stroke-miterlimit="10" stroke-width="2" d="m10367 4444-46 46 73-73"/><path fill="none" stroke="#fff" stroke-linecap="round" stroke-linejoin="round" stroke-miterlimit="10" stroke-width="6.25" d="m10266 4653 57-32"/><path fill="#fff" stroke="#fff" stroke-linecap="round" stroke-miterlimit="10" stroke-width="6.25" d="m10323 4833 56-32h-113zm56-32h-113l113-148zm-113 0 113-148h-113zm113-148h-113l57-32z"/><path fill="none" stroke="#000" stroke-miterlimit="10" stroke-width="2" d="M10379 4653v148l-56 32-57-32v-148l57-32 56 32"/><text font-family="Candara" font-size="88.485" transform="matrix(0 1 1 0 10351 4654)"><tspan x="0 48.578266 93.617126 115.91535" y="0">CT-1</tspan></text><path fill="none" stroke="#000" stroke-miterlimit="10" stroke-width="2" d="M10565 4965h278v-476h-278v476"/><path stroke="#000" stroke-miterlimit="10" stroke-width="6.25" d="m10892 4448 22-31-30 22z"/><path fill="none" stroke="#000" stroke-miterlimit="10" stroke-width="2" d="m10888 4444-46 46 72-73"/><path fill="none" stroke="#fff" stroke-linecap="round" stroke-linejoin="round" stroke-miterlimit="10" stroke-width="6.25" d="m10787 4653 56-32"/><path fill="#fff" stroke="#fff" stroke-linecap="round" stroke-miterlimit="10" stroke-width="6.25" d="m10843 4833 56-32h-112zm56-32h-112l112-148zm-112 0 112-148h-112zm112-148h-112l56-32z"/><path fill="none" stroke="#000" stroke-miterlimit="10" stroke-width="2" d="M10899 4653v148l-56 32-56-32v-148l56-32 56 32"/><text font-family="Candara" font-size="88.485" transform="matrix(0 1 1 0 10871 4654)"><tspan x="0 48.578266 93.617126 115.91535" y="0">CT-1</tspan></text><path fill="none" stroke="#000" stroke-miterlimit="10" stroke-width="2" d="M7742 4337h426v-361h-426v361"/><path stroke="#000" stroke-miterlimit="10" stroke-width="6.25" d="m8217 3936 22-31-31 22z"/><path fill="none" stroke="#000" stroke-miterlimit="10" stroke-width="2" d="m8213 3931-46 46 72-72"/><path fill="none" stroke="#fff" stroke-linecap="round" stroke-linejoin="round" stroke-miterlimit="10" stroke-width="6.25" d="m8112 4083 56-32"/><path fill="#fff" stroke="#fff" stroke-linecap="round" stroke-miterlimit="10" stroke-width="6.25" d="m8168 4263 56-33h-112zm56-33h-112l112-147zm-112 0 112-147h-112zm112-147h-112l56-32z"/><path fill="none" stroke="#000" stroke-miterlimit="10" stroke-width="2" d="M8224 4083v147l-56 33-56-33v-147l56-32 56 32"/><text font-family="Candara" font-size="88.485" transform="matrix(0 1 1 0 8196 4083)"><tspan x="0 48.578266 93.617126 115.91535" y="0">CT-1</tspan></text><path fill="none" stroke="#000" stroke-miterlimit="10" stroke-width="2" d="M8687 7209h623v-308h-623v308"/><path stroke="#000" stroke-miterlimit="10" stroke-width="6.25" d="m9359 6860 22-31-31 22z"/><path fill="none" stroke="#000" stroke-miterlimit="10" stroke-width="2" d="m9354 6856-46 46 73-73"/><path fill="none" stroke="#fff" stroke-linecap="round" stroke-linejoin="round" stroke-miterlimit="10" stroke-width="6.25" d="m9253 6959 57-32"/><path fill="#fff" stroke="#fff" stroke-linecap="round" stroke-miterlimit="10" stroke-width="6.25" d="m9310 7139 56-32h-113zm56-32h-113l113-148zm-113 0 113-148h-113zm113-148h-113l57-32z"/><path fill="none" stroke="#000" stroke-miterlimit="10" stroke-width="2" d="M9366 6959v148l-56 32-57-32v-148l57-32 56 32"/><text font-family="Candara" font-size="88.485" transform="matrix(0 1 1 0 9338 6960)"><tspan x="0 43.269165 96.802589" y="0">FRP</tspan></text></g></g></g></svg>