<svg version="1.1" viewBox="0 0 24 24" xmlns="http://www.w3.org/2000/svg" style="overflow: visible; color: currentcolor;"><path d="m3.0304 13h-1.9919a1.0386 1.0386 45 0 1-1.0386-1.0386 1.0007 1.0007 137.21 0 1 1.0386-0.96144h1.9919c0.57358 0 0.96408 0.46271 0.97797 1.0353 0.012941 0.53369-0.40438 0.9647-0.97797 0.9647zm1.9385 4.6153-1.443 1.4435a1.0158 1.0158 89.995 0 0 1.247e-4 1.4364 0.9998 0.9998 179.09 0 0 1.4139-0.02242l1.443-1.4435c0.39655-0.39669 0.35384-0.99408-0.041831-1.3911-0.38537-0.38673-0.97562-0.41955-1.3722-0.022861zm1.416-12.646-1.4439-1.4444a1.0158 1.0158 0.015099 0 0-1.4365-3.786e-4 0.99997 0.99997 89.124 0 0 0.021614 1.4143l1.4446 1.4446c0.39664 0.39664 0.99325 0.35332 1.3903-0.042398 0.38673-0.38545 0.42042-0.97502 0.023851-1.3717zm12.633 1.4252 1.4668-1.4668a1 1 90 0 0 0-1.4142 0.99985 0.99985 179.99 0 0-1.414 2.136e-4l-1.4668 1.4668c-0.39052 0.39052-0.34807 0.97807 0.04223 1.3683 0.0011 0.00115 0.0023 0.0023 0.0034 0.00345 0.39007 0.39048 0.9778 0.43276 1.3683 0.042236zm-6.0181-3.3424v-2.0361a1.0165 1.0165 45 0 0-1.0165-1.0165 1.0001 1.0001 134.06 0 0-0.98353 1.0165v2.0361c0 0.56138 0.45274 0.94327 1.0132 0.95535 0.54591 0.011764 0.98679-0.39397 0.98679-0.95535zm4.6161 15.978 1.4437 1.4437a1.016 1.016 0.010127 0 0 1.4365 2.54e-4 0.99979 0.99979 89.123 0 0-0.02165-1.4141l-1.4445-1.444c-0.39669-0.39655-0.99369-0.3535-1.3907 0.04218-0.38674 0.38543-0.42002 0.97533-0.02341 1.3719zm2.3764-7.039c-1.13e-4 6e-3 -2.33e-4 0.01202-3.59e-4 0.01803-0.011544 0.54815 0.384 0.99085 0.93318 0.99085h2.0803a0.99437 0.99437 135 0 0 0.99437-0.99437v-0.01126a0.99437 0.99437 45 0 0-0.99437-0.99437h-2.0803c-0.54918 0-0.9225 0.44278-0.93282 0.99112zm-8.9925 8.9784v1.9919a1.0386 1.0386 45 0 0 1.0386 1.0386 1.0007 1.0007 132.79 0 0 0.96144-1.0386v-1.9919c0-0.57358-0.46271-0.96407-1.0353-0.97795-0.53369-0.012936-0.9647 0.40437-0.9647 0.97795zm7-8.9696c0 3.314-2.686 6-6 6-3.315 0-6-2.686-6-6s2.685-6 6-6c3.314 0 6 2.686 6 6zm-2 0c0-2.19-1.818-3.963-4-3.994 2.533 1.816 2.61 6.119 0 7.988 2.182-0.031 4-1.804 4-3.994z" fill="#ff0"/></svg>
