<svg width="49.018mm" height="10.986mm" version="1.1" viewBox="0 0 49.018 10.986" xmlns="http://www.w3.org/2000/svg"><g transform="translate(-50.951 -77.342)" stroke="#000"><g fill="none" stroke-linecap="round" stroke-linejoin="round" stroke-miterlimit="10"><g stroke-width=".127"><line class="st0" x1="98.132" x2="98.132" y1="86.422" y2="88.264"/><line class="st0" x1="98.957" x2="98.957" y1="86.422" y2="88.264"/><line class="st0" x1="98.195" x2="98.195" y1="85.597" y2="86.232"/><line class="st0" x1="97.941" x2="98.513" y1="85.597" y2="85.597"/></g><polyline class="st0" transform="matrix(.26458 0 0 .26458 25.339 29.802)" points="277.28 213.28 277.28 210.88 279.2 210.88" stroke-width=".48"/><line class="st0" x1="98.703" x2="99.021" y1="85.914" y2="85.914" stroke-width=".127"/><g stroke-width=".48"><polyline class="st0" transform="matrix(.26458 0 0 .26458 25.339 29.802)" points="97.04 183.04 99.44 180.88 101.6 183.04"/><polyline class="st0" transform="matrix(.26458 0 0 .26458 25.339 29.802)" points="97.04 184.72 99.44 182.32 101.6 184.72"/><polyline class="st0" transform="matrix(.26458 0 0 .26458 25.339 29.802)" points="97.04 195.28 99.44 192.88 101.6 195.28"/><polyline class="st0" transform="matrix(.26458 0 0 .26458 25.339 29.802)" points="97.04 196.72 99.44 194.56 101.6 196.72"/><polyline class="st0" transform="matrix(.26458 0 0 .26458 25.339 29.802)" points="97.04 209.68 99.44 211.84 101.6 209.68"/></g><line class="st0" x1="51.65" x2="51.65" y1="85.851" y2="84.962" stroke-width=".127"/><line class="st0" x1="51.65" x2="51.65" y1="81.279" y2="82.168" stroke-width=".127"/><polyline class="st0" transform="matrix(.26458 0 0 .26458 25.339 29.802)" points="97.04 197.92 101.6 197.92 101.6 208.48 97.04 208.48 97.04 197.92" stroke-width=".48"/><polyline class="st0" transform="matrix(.26458 0 0 .26458 25.339 29.802)" points="102.56 204.88 102.56 202.24 104.48 202.24" stroke-width=".48"/><line class="st0" x1="52.475" x2="52.793" y1="83.628" y2="83.628" stroke-width=".127"/><polyline class="st0" transform="matrix(.26458 0 0 .26458 25.339 29.802)" points="105.44 202.24 107.12 202.24 106.16 203.2 106.64 203.2 107.12 203.44" stroke-width=".48"/><path class="st0" d="m53.682 83.628" stroke-width=".127"/><g stroke-width=".48"><polyline class="st0" transform="matrix(.26458 0 0 .26458 25.339 29.802)" points="107.12 203.44 107.36 203.92 107.36 204.16 107.12 204.64 106.88 204.88 106.4 204.88 105.92 204.88 105.44 204.88 105.44 204.64 105.2 204.4"/><polyline class="st0" transform="matrix(.26458 0 0 .26458 25.339 29.802)" points="108.56 204.88 108.56 202.24 109.76 202.24 110.24 202.48 110.48 202.48 110.72 202.72 110.72 202.96 110.48 203.2 110.24 203.44 109.76 203.44 108.56 203.44"/><polyline class="st0" transform="matrix(.26458 0 0 .26458 25.339 29.802)" points="109.76 203.44 110.24 203.68 110.48 203.68 110.72 204.16 110.72 204.4 110.48 204.64 110.24 204.88 109.76 204.88 108.56 204.88"/><polyline class="st0" transform="matrix(.26458 0 0 .26458 25.339 29.802)" points="97.04 211.12 99.44 213.52 101.6 211.12"/><polyline class="st0" transform="matrix(.26458 0 0 .26458 19.519 29.802)" points="200.96 180.4 184.64 180.4 184.64 189.76"/></g><line class="st0" x1="68.371" x2="68.371" y1="80.644" y2="81.279" stroke-width=".127"/><polyline class="st0" transform="matrix(.26458 0 0 .26458 19.519 29.802)" points="184.64 196.96 184.64 206.32 200.96 206.32 200.96 196.96" stroke-width=".48"/><g stroke-width=".127"><line class="st0" x1="72.689" x2="72.689" y1="81.279" y2="80.644"/><line class="st0" x1="72.689" x2="72.689" y1="80.009" y2="77.532"/><line class="st0" x1="56.751" x2="67.546" y1="78.612" y2="78.612"/></g><g stroke-width=".48"><polyline class="st0" transform="matrix(.26458 0 0 .26458 19.519 29.802)" points="196.88 206.32 196.88 208.48 194.24 208.48 194.24 206.32"/><polyline class="st0" transform="matrix(.26458 0 0 .26458 19.519 29.802)" points="200.96 181.84 204.08 181.84 204.08 205.12 200.96 205.12"/><polyline class="st0" transform="matrix(.26458 0 0 .26458 19.519 29.802)" points="184.64 181.36 181.52 181.36 181.52 187.36 184.64 187.36"/></g><line class="st0" x1="69.387" x2="69.387" y1="80.199" y2="81.215" stroke-width=".127"/><line class="st0" x1="69.006" x2="69.832" y1="80.199" y2="80.199" stroke-width=".127"/><polyline class="st0" transform="matrix(.26458 0 0 .26458 19.519 29.802)" points="191.36 194.32 191.36 190.48 194.24 190.48" stroke-width=".48"/><line class="st0" x1="70.149" x2="70.657" y1="80.707" y2="80.707" stroke-width=".127"/><polyline class="st0" transform="matrix(.26458 0 0 .26458 19.519 29.802)" points="198.8 191.44 198.56 190.96 198.08 190.72 197.6 190.48 196.64 190.48 196.16 190.72 195.68 190.96 195.44 191.44 195.2 191.92 195.2 192.88 195.44 193.36 195.68 193.84 196.16 194.32 196.64 194.32 197.6 194.32" stroke-width=".48"/><polyline class="st0" transform="matrix(.26458 0 0 .26458 19.519 29.802)" points="197.6 194.32 198.08 194.32 198.56 193.84 198.8 193.36" stroke-width=".48"/><line class="st0" x1="51.65" x2="51.65" y1="80.834" y2="78.04" stroke-width=".127"/><line class="st0" x1="77.177" x2="75.589" y1="84.39" y2="86.168" stroke-width=".127"/><g stroke-width=".48"><polyline class="st0" transform="matrix(.26458 0 0 .26458 -7.9981 23.452)" points="316.64 228.88 316.64 226.48 317.84 226.48 318.08 226.48 318.32 226.72 318.56 226.96 318.56 227.2 318.32 227.44 318.08 227.68 317.84 227.68 316.64 227.68"/><polyline class="st0" transform="matrix(.26458 0 0 .26458 -7.9981 23.452)" points="319.28 228.88 319.28 226.48 320.48 226.48 320.96 226.48 321.2 226.72 321.2 226.96 321.2 227.2 321.2 227.44 320.96 227.44 320.48 227.68 319.28 227.68"/><polyline class="st0" transform="matrix(.26458 0 0 .26458 -7.9981 23.452)" points="320.48 227.68 320.96 227.68 321.2 227.92 321.2 228.16 321.2 228.4 321.2 228.64 320.96 228.88 320.48 228.88 319.28 228.88"/></g><path class="st0" d="m74.637 86.486" stroke-width=".127"/><g stroke-width=".48"><polyline class="st0" transform="matrix(.26458 0 0 .26458 -7.9981 23.452)" points="312.32 238.24 312.56 238 312.56 237.76 313.04 237.76 313.76 237.76 314 237.76 314.24 238"/><polyline class="st0" transform="matrix(.26458 0 0 .26458 -7.9981 23.452)" points="314.24 238 314.24 238.24 314.24 238.48 314.24 238.72 313.76 238.96 312.08 240.16 314.48 240.16"/><polyline class="st0" transform="matrix(.26458 0 0 .26458 -7.9981 23.452)" points="315.92 238.24 316.16 238 316.88 237.76 316.88 240.16"/></g><path class="st0" d="m76.923 86.486" stroke-width=".127"/><polyline class="st0" transform="matrix(.26458 0 0 .26458 -7.9981 23.452)" points="320.96 238.24 321.2 238 321.2 237.76 321.68 237.76 322.16 237.76 322.4 237.76 322.64 238 322.64 238.24 322.64 238.48 322.64 238.72 322.16 238.96 320.96 240.16 322.88 240.16" stroke-width=".48"/><path class="st0" d="m77.685 86.486" stroke-width=".127"/><polyline class="st0" transform="matrix(.26458 0 0 .26458 -7.9981 23.452)" points="323.84 238.24 323.84 238 324.08 237.76 324.32 237.76 324.8 237.76 325.04 237.76 325.28 238 325.52 238.24 325.52 238.48 325.28 238.72 325.04 238.96 323.6 240.16 325.52 240.16" stroke-width=".48"/><g stroke-width=".127"><line class="st0" x1="76.796" x2="76.796" y1="84.39" y2="86.168"/><line class="st0" x1="75.97" x2="75.97" y1="86.168" y2="84.39"/><line class="st0" x1="93.365" x2="93.365" y1="84.898" y2="85.597"/><line class="st0" x1="93.873" x2="93.365" y1="84.898" y2="85.343"/><line class="st0" x1="93.555" x2="93.873" y1="85.216" y2="85.597"/></g><polyline class="st0" transform="matrix(.26458 0 0 .26458 26.097 20.277)" points="257.12 246.88 257.12 244.24 258.08 244.24 258.56 244.48 258.8 244.72 259.04 244.96 259.04 245.2 259.04 245.92 258.8 246.4 258.56 246.64 258.08 246.88 257.12 246.88" stroke-width=".48"/><line class="st0" x1="71.256" x2="71.256" y1="84.973" y2="86.878" stroke-width=".127"/><line class="st0" x1="81.935" x2="81.935" y1="84.814" y2="85.512" stroke-width=".127"/><polyline class="st0" transform="matrix(.26458 0 0 .26458 22.097 2.3484)" points="227.12 314.32 227.12 311.68 228.32 311.68 228.8 311.92 229.04 312.16 229.28 312.16 229.28 312.64 229.04 312.88 228.8 312.88 228.32 313.12 227.12 313.12" stroke-width=".48"/><line class="st0" x1="83.014" x2="83.649" y1="85.195" y2="85.195" stroke-width=".127"/><g stroke-width=".48"><polyline class="st0" transform="matrix(.26458 0 0 .26458 22.097 2.3484)" points="235.76 312.4 235.76 312.16 235.28 311.92 235.04 311.68 234.56 311.68 234.32 311.92 234.08 312.16 233.84 312.4 233.6 312.64 233.6 313.36 233.84 313.6 234.08 313.84 234.32 314.08 234.56 314.32 235.04 314.32 235.28 314.08 235.76 313.84 235.76 313.6"/><polyline class="st0" transform="matrix(.26458 0 0 .26458 22.097 2.3484)" points="236.72 314.32 236.72 311.68 237.92 314.32 239.12 311.68 239.12 314.32"/><polyline class="st0" transform="matrix(.26458 0 0 .26458 34.797 3.4068)" points="198.56 304.48 198.56 301.84 200.48 301.84"/></g><line class="st0" x1="87.332" x2="87.65" y1="83.586" y2="83.586" stroke-width=".127"/><line class="st0" x1="87.332" x2="87.84" y1="83.967" y2="83.967" stroke-width=".127"/><polyline class="st0" transform="matrix(.26458 0 0 .26458 34.797 3.4068)" points="203.6 302.56 203.36 302.32 203.12 302.08 202.64 301.84 202.16 301.84 201.92 302.08 201.44 302.32 201.44 302.56 201.2 302.8 201.2 303.52 201.44 303.76 201.44 304 201.92 304.24 202.16 304.48 202.64 304.48 203.12 304.24 203.36 304 203.6 303.76" stroke-width=".48"/><g stroke-width=".127"><line class="st0" x1="88.92" x2="88.92" y1="83.269" y2="83.967"/><line class="st0" x1="89.491" x2="89.491" y1="83.269" y2="83.967"/><line class="st0" x1="88.92" x2="89.491" y1="83.586" y2="83.586"/></g><g stroke-width=".48"><polyline class="st0" transform="matrix(.26458 0 0 .26458 34.797 3.4068)" points="208.16 302.32 208.4 302.32 208.88 301.84 208.88 304.48"/><polyline class="st0" transform="matrix(.26458 0 0 .26458 22.097 2.3484)" points="217.04 315.28 214.64 317.44 217.04 319.84"/><polyline class="st0" transform="matrix(.26458 0 0 .26458 22.097 2.3484)" points="215.36 315.28 212.96 317.44 215.36 319.84"/><polyline class="st0" transform="matrix(.26458 0 0 .26458 22.097 2.3484)" points="217.04 315.28 214.64 317.44 217.04 319.84"/><polyline class="st0" transform="matrix(.26458 0 0 .26458 34.797 3.4068)" points="201.92 300.64 204.32 298.24 201.92 295.84"/><polyline class="st0" transform="matrix(.26458 0 0 .26458 22.097 2.3484)" points="248 319.84 250.16 317.44 248 315.28"/><polyline class="st0" transform="matrix(.26458 0 0 .26458 34.797 3.4068)" points="203.6 300.64 205.76 298.24 203.6 295.84"/><polyline class="st0" transform="matrix(.26458 0 0 .26458 22.097 2.3484)" points="249.44 319.84 251.84 317.44 249.44 315.28"/></g><g stroke-width=".127"><line class="st0" x1="88.729" x2="90.761" y1="86.338" y2="86.338"/><line class="st0" x1="94.571" x2="89.237" y1="82.316" y2="82.316"/><line class="st0" x1="88.285" x2="85.872" y1="86.338" y2="86.338"/></g><polyline class="st0" transform="matrix(.26458 0 0 .26458 22.097 2.3484)" points="225.68 317.44 214.64 317.44 225.68 317.44" stroke-width=".48"/><polyline class="st0" transform="matrix(.26458 0 0 .26458 22.097 2.3484)" points="275.36 317.44 260.96 317.44 263.36 319.84" stroke-width=".48"/><line class="st0" x1="91.142" x2="91.777" y1="86.338" y2="85.766" stroke-width=".127"/><g stroke-width=".48"><polyline class="st0" transform="matrix(.26458 0 0 .26458 22.097 2.3484)" points="261.68 319.84 259.52 317.44 261.68 315.28"/><polyline class="st0" transform="matrix(.26458 0 0 .26458 22.097 2.3484)" points="268.4 310.24 268.4 309.76 268.16 309.28 267.92 309.04 267.44 308.56 266.96 308.56 266.48 308.32 266 308.56 265.52 308.56 265.04 309.04 264.8 309.28 264.56 309.76 264.56 310.24"/><polyline class="st0" transform="matrix(.26458 0 0 .26458 22.097 2.3484)" points="264.56 310.24 264.56 310.96 264.8 311.44 265.04 311.68 265.52 312.16 266 312.16 266.48 312.4 266.96 312.16 267.44 312.16 267.92 311.68 268.16 311.44 268.4 310.96 268.4 310.24"/><polyline class="st0" transform="matrix(.26458 0 0 .26458 22.097 2.3484)" points="267.92 310.24 267.92 310 267.68 309.52 267.44 309.04 266.96 308.8 266.48 308.8 266 308.8 265.52 309.04 265.28 309.52 265.04 310 265.04 310.24 265.04 310.96 265.28 311.2 265.52 311.68 266 311.92 266.48 311.92 266.96 311.92 267.44 311.68 267.68 311.2 267.92 310.96 267.92 310.24"/><polyline class="st0" transform="matrix(.26458 0 0 .26458 22.097 2.3484)" points="267.44 310.24 267.44 310 267.2 309.76 266.96 309.52 266.48 309.28 266.24 309.52 265.76 309.76 265.52 310 265.52 310.24 265.52 310.72 265.76 310.96 266.24 311.2 266.48 311.44 266.96 311.2 267.2 310.96 267.44 310.72 267.44 310.24"/><polyline class="st0" transform="matrix(.26458 0 0 .26458 22.097 2.3484)" points="266.96 310.24 266.96 310 266.72 310 266.48 309.76 266.24 310 266 310 266 310.24 266 310.72 266.24 310.72 266.48 310.96 266.72 310.72 266.96 310.72 266.96 310.24"/></g><path class="st0" d="m92.666 84.433" stroke-width=".127"/><polyline class="st0" transform="matrix(.26458 0 0 .26458 22.097 2.3484)" points="266.72 310.24 266.48 310 266.24 310.24" stroke-width=".48"/><path class="st0" d="m92.539 84.433" stroke-width=".127"/><polyline class="st0" transform="matrix(.26458 0 0 .26458 22.097 2.3484)" points="266.24 310.24 266.24 310.48 266.48 310.72 266.72 310.48 266.72 310.24" stroke-width=".48"/><polyline class="st0" transform="matrix(.26458 0 0 .26458 22.097 2.3484)" points="262.4 309.28 260.96 311.2 263.36 311.2" stroke-width=".48"/><line class="st0" x1="91.523" x2="91.523" y1="84.179" y2="84.877" stroke-width=".127"/><line class="st0" x1="92.603" x2="92.603" y1="84.433" y2="86.338" stroke-width=".127"/><polyline class="st0" transform="matrix(.26458 0 0 .26458 22.097 2.3484)" points="241.04 317.44 241.04 316.96 240.8 316.72 240.32 316.24 239.84 316 239.36 316 238.88 316 238.64 316.24 238.16 316.72 237.92 316.96 237.92 317.44 237.92 317.92 238.16 318.4 238.64 318.64 238.88 318.88 239.36 319.12 239.84 318.88 240.32 318.64 240.8 318.4 241.04 317.92 241.04 317.44" stroke-width=".48"/><polyline class="st0" transform="matrix(.26458 0 0 .26458 22.097 2.3484)" points="228.8 317.44 228.56 316.96 228.32 316.72 228.08 316.24 227.6 316 227.12 316 226.64 316 226.16 316.24 225.92 316.72 225.68 316.96 225.68 317.44 225.68 317.92 225.92 318.4 226.16 318.64 226.64 318.88 227.12 319.12 227.6 318.88 228.08 318.64 228.32 318.4 228.56 317.92 228.8 317.44" stroke-width=".48"/><line class="st0" x1="82.633" x2="85.745" y1="86.338" y2="85.893" stroke-width=".127"/><polyline class="st0" transform="matrix(.26458 0 0 .26458 34.797 4.4651)" points="225.92 289.84 225.92 304.72 232.4 304.72" stroke-width=".48"/><line class="st0" x1="96.921" x2="97.556" y1="85.089" y2="85.089" stroke-width=".127"/><polyline class="st0" transform="matrix(.26458 0 0 .26458 34.797 4.4651)" points="239.6 304.72 246.08 304.72 246.08 289.84 239.6 289.84" stroke-width=".48"/><line class="st0" x1="97.556" x2="96.921" y1="81.152" y2="81.152" stroke-width=".127"/><line class="st0" x1="96.286" x2="94.571" y1="81.152" y2="81.152" stroke-width=".127"/><g stroke-width=".48"><polyline class="st0" transform="matrix(.26458 0 0 .26458 34.797 4.4651)" points="231.44 292.72 232.16 295.36 232.88 292.72 233.6 295.36 234.32 292.72"/><polyline class="st0" transform="matrix(.26458 0 0 .26458 34.797 4.4651)" points="237.2 293.44 236.96 293.2 236.72 292.96 236.48 292.72 235.76 292.72 235.52 292.96 235.28 293.2 235.28 293.44 235.04 293.68 235.04 294.4 235.28 294.64 235.28 294.88 235.52 295.12 235.76 295.36 236.48 295.36 236.72 295.12 236.96 294.88 237.2 294.64"/><polyline class="st0" transform="matrix(.26458 0 0 .26458 34.797 4.4651)" points="238.16 295.36 238.16 292.72 239.36 292.72 239.84 292.96"/></g><path class="st0" d="m98.254 81.977" stroke-width=".127"/><polyline class="st0" transform="matrix(.26458 0 0 .26458 34.797 4.4651)" points="239.84 292.96 240.08 293.2 240.08 293.44 239.84 293.68 239.84 293.92 239.36 293.92 238.16 293.92" stroke-width=".48"/><line class="st0" x1="98.064" x2="98.318" y1="82.231" y2="82.612" stroke-width=".127"/><polyline class="st0" transform="matrix(.26458 0 0 .26458 34.797 4.4651)" points="225.92 298.24 232.4 298.24 232.88 296.32 234.08 299.92 235.04 296.08 236.24 299.92 237.44 296.08 238.88 299.92 239.36 298.24 246.08 298.24" stroke-width=".48"/></g><path d="m56.752 77.342 0.0045 1.328" fill="#7ed957" opacity=".98" stroke-width=".226"/></g></svg>
