<svg preserveAspectRatio="xMidYMid" version="1.0" viewBox="0 0 24 24" xmlns="http://www.w3.org/2000/svg"><g transform="matrix(.12333 0 0 .10922 -5.92e-5 .00010922)"><g transform="matrix(.1 0 0 -.096508 -3 221.78)" fill="#7ed957"><path d="m780 2055-5-525.55-351.86-195.45 1.8648 528.17-335-178.12 0.47822-1152.5 332.52-184.25 7 511.69 350.68 196.77-3.044-902.75 259.37-131.98 278 154.1 5 1875-265 146.89z"/><path d="m1420 233.35 148.63 82.389 0.3672 1596.4-149 82.705z"/><path d="m1666 369.71 124 68.734v1351.2l-124 68.734z"/><path d="m1879.9 488.29 96.064 53.249v1145l-95.986 53.206z"/></g><g transform="matrix(.1 0 0 -.1 0 222.7)"><path d="m690 2085-5-525.55-351.86-195.45 1.8648 528.17-335-178.12v-1159.7l333-177.06 7 511.69 350.68 196.77 0.32327-898.81 256-135.92 278 154.1 5 1875-265 146.89z"/><path d="m1330 263.35 148.63 82.389 0.3672 1596.4-149 82.705z"/><path d="m1576 399.71 124 68.734v1351.2l-124 68.734z"/><path d="m1789.9 518.29 96.064 53.249v1145l-95.986 53.206z"/></g></g></svg>
