<svg xmlns="http://www.w3.org/2000/svg" preserveAspectRatio="xMidYMid" version="1.0" viewBox="0 0 24 24"><g fill="#7ed957"><path d="m9.25 2.562-.062 5.54-4.34 2.06.024-5.567L.74 6.472.746 18.62l4.1 1.942.087-5.393 4.325-2.074-.037 9.515 3.198 1.391 3.429-1.624.062-19.764-3.269-1.548zM17.143 21.763l1.833-.868.004-16.827-1.837-.872zM20.177 20.326l1.529-.725V5.36l-1.53-.725zM22.815 19.076 24 18.515V6.445l-1.184-.56z"/></g><path d="m8.51 1.551-.062 5.74-4.34 2.135.024-5.769L0 5.603v12.666l4.107 1.934.086-5.589 4.325-2.15.004 9.818 3.157 1.484 3.429-1.683.062-20.479L11.9 0zM16.403 21.447l1.833-.9.004-17.436-1.837-.903zM19.437 19.958l1.529-.75V4.448l-1.53-.75zM22.075 18.663l1.185-.582V5.575l-1.184-.58z"/></svg>