<?xml version="1.0" standalone="no"?>
<!DOCTYPE svg PUBLIC "-//W3C//DTD SVG 20010904//EN"
 "http://www.w3.org/TR/2001/REC-SVG-20010904/DTD/svg10.dtd">
<svg version="1.0" xmlns="http://www.w3.org/2000/svg"
 width="586.000000pt" height="586.000000pt" viewBox="0 0 586.000000 586.000000"
 preserveAspectRatio="xMidYMid meet">
<metadata>
Created by potrace 1.14, written by Peter Selinger 2001-2017
</metadata>
<g transform="translate(0.000000,586.000000) scale(0.100000,-0.100000)"
fill="#000000" stroke="none">
<path d="M2888 5852 c-1 -5 -109 -63 -238 -129 -129 -67 -248 -128 -265 -137
-16 -9 -35 -16 -42 -16 -6 0 -13 -3 -15 -7 -1 -5 -34 -23 -71 -42 -37 -19 -70
-37 -72 -41 -4 -7 -11 -513 -16 -1153 -1 -183 -4 -241 -15 -251 -7 -8 -46 -30
-86 -51 -40 -21 -85 -46 -100 -56 -14 -11 -28 -19 -31 -19 -2 0 -53 -27 -113
-61 -60 -34 -143 -79 -184 -102 -41 -22 -79 -43 -85 -47 -5 -4 -45 -26 -88
-49 l-78 -43 1 529 c1 290 1 535 1 544 -1 13 -15 9 -73 -22 -40 -21 -76 -39
-79 -39 -4 0 -6 60 -7 133 0 194 1 183 -19 165 -10 -8 -47 -29 -83 -47 -36
-18 -85 -44 -110 -58 -25 -13 -94 -50 -155 -82 -60 -32 -139 -74 -175 -93
-205 -109 -308 -163 -327 -173 l-23 -10 3 -1549 2 -1548 50 -27 c28 -15 95
-51 150 -80 55 -30 114 -61 130 -71 28 -16 122 -66 335 -178 47 -24 108 -57
135 -72 28 -15 94 -51 148 -79 l97 -52 1 143 c0 79 2 278 5 443 3 165 6 396 7
513 2 117 8 216 13 221 8 7 119 68 238 130 17 9 33 18 36 21 3 3 32 19 65 36
33 17 140 75 239 128 98 53 181 94 184 92 3 -3 5 -485 5 -1070 0 -586 3 -1069
6 -1074 5 -8 132 -77 301 -164 36 -18 67 -36 68 -40 2 -5 8 -8 14 -8 5 0 69
-32 141 -71 72 -39 143 -72 157 -73 14 -1 55 -16 91 -34 58 -28 69 -30 92 -19
15 6 27 15 27 20 0 4 9 7 19 7 11 0 21 3 23 8 2 4 17 14 35 24 265 138 329
172 333 177 3 3 44 26 93 50 48 25 109 57 136 72 l49 28 2 768 c0 422 2 1508
3 2413 l2 1645 -75 40 -75 40 -3 82 -3 82 -79 45 c-44 24 -89 47 -100 51 -11
3 -20 11 -20 16 0 5 -9 9 -19 9 -11 0 -21 4 -23 8 -1 5 -37 27 -78 49 -41 22
-91 49 -110 60 -19 11 -69 38 -110 60 -41 23 -95 53 -120 67 -47 27 -66 32
-72 18z"/>
<path d="M3885 2970 c0 -1287 3 -2340 7 -2340 9 0 120 60 132 71 20 18 24 8
24 -49 0 -110 -2 -105 32 -87 16 8 33 15 36 14 4 0 10 3 13 8 3 4 33 22 66 39
33 18 103 54 155 82 l94 50 1 2044 c1 1123 -2 2050 -6 2059 -4 8 -37 29 -73
47 -36 17 -69 40 -74 49 -5 10 -8 44 -7 76 1 41 -4 62 -15 71 -21 19 -361 206
-374 206 -8 0 -11 -658 -11 -2340z"/>
<path d="M4544 2976 c1 -1086 5 -1978 9 -1982 4 -5 11 -4 15 2 10 15 124 75
131 69 2 -3 5 -40 6 -83 0 -45 4 -76 10 -75 10 2 228 116 255 133 8 6 25 14
36 19 12 5 23 15 26 23 2 7 3 791 3 1741 l-1 1729 -74 39 c-41 22 -77 43 -80
45 -2 3 -5 35 -6 72 l-1 66 -158 88 c-86 48 -161 88 -164 88 -4 0 -7 -888 -7
-1974z"/>
<path d="M5119 4638 c-6 -12 -4 -3328 2 -3328 4 0 38 18 76 40 79 46 79 46 77
-71 -1 -38 2 -69 6 -69 6 0 52 23 200 103 l45 24 3 1475 2 1476 -80 41 -80 42
0 63 c0 56 -11 87 -30 83 -3 0 -33 16 -68 36 -35 20 -65 37 -68 37 -2 0 -22
11 -44 25 -22 14 -41 24 -41 23z"/>
</g>
</svg>
